M48
;Layer_Color=9474304
;FILE_FORMAT=4:4
METRIC,LZ
;TYPE=PLATED
T1F00S00C0.3000
T2F00S00C0.7112
T3F00S00C0.8000
T4F00S00C0.9000
T5F00S00C0.9500
T6F00S00C1.0000
T8F00S00C2.5000
T9F00S00C3.2000
;TYPE=NON_PLATED
T10F00S00C0.9000
%
T01
X0008509Y0002286
X00133145Y00094185
X0040132Y0012319
X0051689
X0065278Y0008509
X0071247Y000254
X0077851Y0004191
X008001Y0002032
X0092456
X0091186Y0004699
X0094869Y0043053
X0078613Y0035052
X0077978Y0024003
X008509Y0028194
X0090678Y0017399
X0063754Y0016383
X0057912Y00239014
X0056896Y0023876
Y0030099
X0057912Y0030226
X005588Y003302
X0062611Y0037338
X0065532Y0029591
X0069977Y0031115
X0052451Y0030099
X0051943Y002794
X0053086
X0051308Y0024384
X0048387Y0025908
X0047498Y00254
Y0021082
X0044704
X0050292Y0020193
X0043307Y0028448
Y0031496
X004318Y0034544
X00420172Y0035941
X0038735Y0042799
X0052578Y0035433
X0026162Y0026924
X0028829Y002413
X0020447Y0046101
X0026162Y0056261
X0043434Y0056134
T02
X0054356Y0032131
X0075521Y0029635
X0071501Y0039116
X0078613Y0051308
X0051943Y0022352
X0045847Y0022606
X0021971Y0052324
X0004284Y0035848
Y0029811
X0003937Y002032
X0010668Y00254
T03
X0072898Y0003683
Y0006223
X0085598
Y0003683
X0098298
Y0006223
X0088646Y0028548
Y0033428
X0068072
Y0028548
T04
X00562729Y00491262
X00588129
X00613529
X00638929
X00664329
X00689729
X00715129
X00740529
X00537329
X00511929
X00486529
X00461129
X00435729
X00410329
X00384929
X00359529
T05
X003102Y0003481
X003502
Y0009981
X003102
X004372
X004772
Y0003481
X004372
X005642
X006042
Y0009981
X005642
T06
X0023444Y0014732
X0022098Y0031877
X0019558
X0019558Y0034417
Y0036957
Y0039497
Y0042037
X0022098
Y0039497
Y0036957
Y0034417
X0015327Y005334
X0012827
X0010327
X0003219Y0014732
T08
X0105664Y0017399
Y0048387
X0030734
Y0017399
T09
X0004Y0004
X0106
X0004Y0056
X0106
T10
X0006184Y0030871
Y0035271
M30
