%FSLAX44Y44*%
%MOMM*%
G71*
G01*
G75*
G04 Layer_Color=16711935*
%ADD10C,0.2540*%
%ADD11C,0.5080*%
%ADD12C,0.5842*%
%ADD13C,1.2700*%
%ADD14R,0.9000X1.0000*%
%ADD15R,1.0160X0.7620*%
%ADD16R,1.8000X1.3000*%
%ADD17R,1.1430X1.2700*%
%ADD18R,1.0000X1.0000*%
%ADD19R,1.0000X1.0000*%
%ADD20R,1.0000X0.9000*%
G04:AMPARAMS|DCode=21|XSize=2.8mm|YSize=0.5mm|CornerRadius=0.125mm|HoleSize=0mm|Usage=FLASHONLY|Rotation=180.000|XOffset=0mm|YOffset=0mm|HoleType=Round|Shape=RoundedRectangle|*
%AMROUNDEDRECTD21*
21,1,2.8000,0.2500,0,0,180.0*
21,1,2.5500,0.5000,0,0,180.0*
1,1,0.2500,-1.2750,0.1250*
1,1,0.2500,1.2750,0.1250*
1,1,0.2500,1.2750,-0.1250*
1,1,0.2500,-1.2750,-0.1250*
%
%ADD21ROUNDEDRECTD21*%
G04:AMPARAMS|DCode=22|XSize=3.5mm|YSize=2.05mm|CornerRadius=0.5125mm|HoleSize=0mm|Usage=FLASHONLY|Rotation=180.000|XOffset=0mm|YOffset=0mm|HoleType=Round|Shape=RoundedRectangle|*
%AMROUNDEDRECTD22*
21,1,3.5000,1.0250,0,0,180.0*
21,1,2.4750,2.0500,0,0,180.0*
1,1,1.0250,-1.2375,0.5125*
1,1,1.0250,1.2375,0.5125*
1,1,1.0250,1.2375,-0.5125*
1,1,1.0250,-1.2375,-0.5125*
%
%ADD22ROUNDEDRECTD22*%
G04:AMPARAMS|DCode=23|XSize=4mm|YSize=2.05mm|CornerRadius=0.5125mm|HoleSize=0mm|Usage=FLASHONLY|Rotation=180.000|XOffset=0mm|YOffset=0mm|HoleType=Round|Shape=RoundedRectangle|*
%AMROUNDEDRECTD23*
21,1,4.0000,1.0250,0,0,180.0*
21,1,2.9750,2.0500,0,0,180.0*
1,1,1.0250,-1.4875,0.5125*
1,1,1.0250,1.4875,0.5125*
1,1,1.0250,1.4875,-0.5125*
1,1,1.0250,-1.4875,-0.5125*
%
%ADD23ROUNDEDRECTD23*%
G04:AMPARAMS|DCode=24|XSize=3.5mm|YSize=2.05mm|CornerRadius=0.5125mm|HoleSize=0mm|Usage=FLASHONLY|Rotation=180.000|XOffset=0mm|YOffset=0mm|HoleType=Round|Shape=RoundedRectangle|*
%AMROUNDEDRECTD24*
21,1,3.5000,1.0250,0,0,180.0*
21,1,2.4750,2.0500,0,0,180.0*
1,1,1.0250,-1.2375,0.5125*
1,1,1.0250,1.2375,0.5125*
1,1,1.0250,1.2375,-0.5125*
1,1,1.0250,-1.2375,-0.5125*
%
%ADD24ROUNDEDRECTD24*%
%ADD25O,0.6000X1.9000*%
%ADD26O,1.9000X0.6000*%
%ADD27O,0.6000X2.0500*%
%ADD28O,2.0500X0.6000*%
%ADD29R,0.6000X0.8500*%
%ADD30C,1.0160*%
%ADD31C,0.7620*%
%ADD32C,0.3810*%
%ADD33R,2.5250X7.2000*%
%ADD34R,4.1500X2.0750*%
%ADD35R,2.7250X2.0750*%
%ADD36R,1.2250X7.2000*%
%ADD37C,1.6500*%
%ADD38R,1.6500X1.6500*%
%ADD39C,1.6000*%
%ADD40O,1.5000X2.5000*%
%ADD41R,1.5000X2.5000*%
%ADD42O,4.0000X2.0000*%
%ADD43O,2.0000X4.5000*%
%ADD44O,2.0000X4.0000*%
%ADD45C,2.0000*%
%ADD46C,1.7000*%
%ADD47C,0.9000*%
%ADD48C,6.0000*%
%ADD49C,1.5000*%
%ADD50R,1.5000X1.5000*%
%ADD51C,5.0000*%
%ADD52C,0.7000*%
%ADD53C,1.2700*%
%ADD54C,0.2500*%
%ADD55C,0.2000*%
%ADD56C,1.0000*%
%ADD57C,0.6000*%
%ADD58C,0.1000*%
%ADD59C,0.5000*%
%ADD60C,0.1016*%
%ADD61R,1.9000X4.1000*%
%ADD62R,1.7500X7.7750*%
%ADD63R,3.1250X0.8750*%
%ADD64R,1.1032X1.2032*%
%ADD65R,1.2192X0.9652*%
%ADD66R,2.0032X1.5032*%
%ADD67R,1.3462X1.4732*%
%ADD68R,1.2032X1.2032*%
%ADD69R,1.2032X1.2032*%
%ADD70R,1.2032X1.1032*%
G04:AMPARAMS|DCode=71|XSize=3.0032mm|YSize=0.7032mm|CornerRadius=0.2266mm|HoleSize=0mm|Usage=FLASHONLY|Rotation=180.000|XOffset=0mm|YOffset=0mm|HoleType=Round|Shape=RoundedRectangle|*
%AMROUNDEDRECTD71*
21,1,3.0032,0.2500,0,0,180.0*
21,1,2.5500,0.7032,0,0,180.0*
1,1,0.4532,-1.2750,0.1250*
1,1,0.4532,1.2750,0.1250*
1,1,0.4532,1.2750,-0.1250*
1,1,0.4532,-1.2750,-0.1250*
%
%ADD71ROUNDEDRECTD71*%
G04:AMPARAMS|DCode=72|XSize=3.7032mm|YSize=2.2532mm|CornerRadius=0.6141mm|HoleSize=0mm|Usage=FLASHONLY|Rotation=180.000|XOffset=0mm|YOffset=0mm|HoleType=Round|Shape=RoundedRectangle|*
%AMROUNDEDRECTD72*
21,1,3.7032,1.0250,0,0,180.0*
21,1,2.4750,2.2532,0,0,180.0*
1,1,1.2282,-1.2375,0.5125*
1,1,1.2282,1.2375,0.5125*
1,1,1.2282,1.2375,-0.5125*
1,1,1.2282,-1.2375,-0.5125*
%
%ADD72ROUNDEDRECTD72*%
G04:AMPARAMS|DCode=73|XSize=4.2032mm|YSize=2.2532mm|CornerRadius=0.6141mm|HoleSize=0mm|Usage=FLASHONLY|Rotation=180.000|XOffset=0mm|YOffset=0mm|HoleType=Round|Shape=RoundedRectangle|*
%AMROUNDEDRECTD73*
21,1,4.2032,1.0250,0,0,180.0*
21,1,2.9750,2.2532,0,0,180.0*
1,1,1.2282,-1.4875,0.5125*
1,1,1.2282,1.4875,0.5125*
1,1,1.2282,1.4875,-0.5125*
1,1,1.2282,-1.4875,-0.5125*
%
%ADD73ROUNDEDRECTD73*%
G04:AMPARAMS|DCode=74|XSize=3.7032mm|YSize=2.2532mm|CornerRadius=0.6141mm|HoleSize=0mm|Usage=FLASHONLY|Rotation=180.000|XOffset=0mm|YOffset=0mm|HoleType=Round|Shape=RoundedRectangle|*
%AMROUNDEDRECTD74*
21,1,3.7032,1.0250,0,0,180.0*
21,1,2.4750,2.2532,0,0,180.0*
1,1,1.2282,-1.2375,0.5125*
1,1,1.2282,1.2375,0.5125*
1,1,1.2282,1.2375,-0.5125*
1,1,1.2282,-1.2375,-0.5125*
%
%ADD74ROUNDEDRECTD74*%
%ADD75O,0.8032X2.1032*%
%ADD76O,2.1032X0.8032*%
%ADD77O,0.8032X2.2532*%
%ADD78O,2.2532X0.8032*%
%ADD79R,0.8032X1.0532*%
%ADD80C,1.8532*%
%ADD81R,1.8532X1.8532*%
%ADD82C,1.8032*%
%ADD83O,1.7032X2.7032*%
%ADD84R,1.7032X2.7032*%
%ADD85O,4.2032X2.2032*%
%ADD86O,2.2032X4.7032*%
%ADD87O,2.2032X4.2032*%
%ADD88C,2.2032*%
%ADD89C,1.9032*%
%ADD90C,1.1032*%
%ADD91C,6.2032*%
%ADD92C,1.7032*%
%ADD93R,1.7032X1.7032*%
%ADD94C,5.2032*%
%ADD95C,0.7508*%
%ADD96C,1.4732*%
D80*
X195580Y420370D02*
D03*
X220980D02*
D03*
X195580Y394970D02*
D03*
X220980D02*
D03*
X195580Y369570D02*
D03*
X220980D02*
D03*
X195580Y344170D02*
D03*
X220980D02*
D03*
X195580Y318770D02*
D03*
D81*
X220980D02*
D03*
D82*
X680720Y334280D02*
D03*
Y285480D02*
D03*
X103270Y533400D02*
D03*
X128270D02*
D03*
X153270D02*
D03*
X886460Y285480D02*
D03*
Y334280D02*
D03*
D83*
X477200Y99810D02*
D03*
X437200D02*
D03*
X477200Y34810D02*
D03*
X604200Y99810D02*
D03*
X564200D02*
D03*
X604200Y34810D02*
D03*
X350200Y99810D02*
D03*
X310200D02*
D03*
X350200Y34810D02*
D03*
D84*
X437200D02*
D03*
X564200D02*
D03*
X310200D02*
D03*
D85*
X106270Y418630D02*
D03*
D86*
X138270Y468630D02*
D03*
D87*
X66110Y469900D02*
D03*
D88*
X32190Y147320D02*
D03*
X234440D02*
D03*
D89*
X728980Y62230D02*
D03*
Y36830D02*
D03*
X855980Y62230D02*
D03*
Y36830D02*
D03*
X982980Y62230D02*
D03*
Y36830D02*
D03*
D90*
X61840Y308710D02*
D03*
Y352710D02*
D03*
D91*
X1060000Y560000D02*
D03*
Y40000D02*
D03*
X40000Y560000D02*
D03*
Y40000D02*
D03*
D92*
X740529Y491262D02*
D03*
X715129D02*
D03*
X689729D02*
D03*
X664329D02*
D03*
X638929D02*
D03*
X613529D02*
D03*
X588129D02*
D03*
X562729D02*
D03*
X537329D02*
D03*
X511929D02*
D03*
X486529D02*
D03*
X461129D02*
D03*
X435729D02*
D03*
X410329D02*
D03*
X384929D02*
D03*
D93*
X359529D02*
D03*
D94*
X307340Y483870D02*
D03*
Y173990D02*
D03*
X1056640Y483870D02*
D03*
Y173990D02*
D03*
D95*
X519430Y279400D02*
D03*
X530860D02*
D03*
X483870Y259080D02*
D03*
X474980Y254000D02*
D03*
X431800Y345440D02*
D03*
X433070Y314960D02*
D03*
X579120Y302260D02*
D03*
X568960Y238760D02*
D03*
X579120Y239014D02*
D03*
X800100Y20320D02*
D03*
X712470Y25400D02*
D03*
X652780Y85090D02*
D03*
X516890Y123190D02*
D03*
X401320D02*
D03*
X204470Y461010D02*
D03*
X924560Y20320D02*
D03*
X447040Y210820D02*
D03*
X474980D02*
D03*
X568960Y300990D02*
D03*
X513080Y243840D02*
D03*
X502920Y201930D02*
D03*
X420172Y359410D02*
D03*
X433070Y284480D02*
D03*
X626110Y373380D02*
D03*
X655320Y295910D02*
D03*
X699770Y311150D02*
D03*
X786130Y350520D02*
D03*
X779780Y240030D02*
D03*
X261620Y562610D02*
D03*
Y269240D02*
D03*
X288290Y241300D02*
D03*
X85090Y22860D02*
D03*
X850900Y281940D02*
D03*
X911860Y46990D02*
D03*
X434340Y561340D02*
D03*
X948690Y430530D02*
D03*
X906780Y173990D02*
D03*
X133145Y94185D02*
D03*
X387350Y427990D02*
D03*
X637540Y163830D02*
D03*
X525780Y354330D02*
D03*
X524510Y300990D02*
D03*
X558800Y330200D02*
D03*
X778510Y41910D02*
D03*
D96*
X39370Y203200D02*
D03*
X106680Y254000D02*
D03*
X458470Y226060D02*
D03*
X519430Y223520D02*
D03*
X543560Y321310D02*
D03*
X786130Y513080D02*
D03*
X755210Y296350D02*
D03*
X219710Y523240D02*
D03*
X42840Y358480D02*
D03*
Y298110D02*
D03*
X715010Y391160D02*
D03*
M02*
