%FSLAX44Y44*%
%MOMM*%
G71*
G01*
G75*
G04 Layer_Physical_Order=2*
G04 Layer_Color=16711680*
%ADD10C,0.2540*%
%ADD11C,0.5080*%
%ADD12C,0.5842*%
%ADD13C,1.2700*%
%ADD14R,0.9000X1.0000*%
%ADD15R,1.0160X0.7620*%
%ADD16R,1.8000X1.3000*%
%ADD17R,1.1430X1.2700*%
%ADD18R,1.0000X1.0000*%
%ADD19R,1.0000X1.0000*%
%ADD20R,1.0000X0.9000*%
G04:AMPARAMS|DCode=21|XSize=2.8mm|YSize=0.5mm|CornerRadius=0.125mm|HoleSize=0mm|Usage=FLASHONLY|Rotation=180.000|XOffset=0mm|YOffset=0mm|HoleType=Round|Shape=RoundedRectangle|*
%AMROUNDEDRECTD21*
21,1,2.8000,0.2500,0,0,180.0*
21,1,2.5500,0.5000,0,0,180.0*
1,1,0.2500,-1.2750,0.1250*
1,1,0.2500,1.2750,0.1250*
1,1,0.2500,1.2750,-0.1250*
1,1,0.2500,-1.2750,-0.1250*
%
%ADD21ROUNDEDRECTD21*%
G04:AMPARAMS|DCode=22|XSize=3.5mm|YSize=2.05mm|CornerRadius=0.5125mm|HoleSize=0mm|Usage=FLASHONLY|Rotation=180.000|XOffset=0mm|YOffset=0mm|HoleType=Round|Shape=RoundedRectangle|*
%AMROUNDEDRECTD22*
21,1,3.5000,1.0250,0,0,180.0*
21,1,2.4750,2.0500,0,0,180.0*
1,1,1.0250,-1.2375,0.5125*
1,1,1.0250,1.2375,0.5125*
1,1,1.0250,1.2375,-0.5125*
1,1,1.0250,-1.2375,-0.5125*
%
%ADD22ROUNDEDRECTD22*%
G04:AMPARAMS|DCode=23|XSize=4mm|YSize=2.05mm|CornerRadius=0.5125mm|HoleSize=0mm|Usage=FLASHONLY|Rotation=180.000|XOffset=0mm|YOffset=0mm|HoleType=Round|Shape=RoundedRectangle|*
%AMROUNDEDRECTD23*
21,1,4.0000,1.0250,0,0,180.0*
21,1,2.9750,2.0500,0,0,180.0*
1,1,1.0250,-1.4875,0.5125*
1,1,1.0250,1.4875,0.5125*
1,1,1.0250,1.4875,-0.5125*
1,1,1.0250,-1.4875,-0.5125*
%
%ADD23ROUNDEDRECTD23*%
G04:AMPARAMS|DCode=24|XSize=3.5mm|YSize=2.05mm|CornerRadius=0.5125mm|HoleSize=0mm|Usage=FLASHONLY|Rotation=180.000|XOffset=0mm|YOffset=0mm|HoleType=Round|Shape=RoundedRectangle|*
%AMROUNDEDRECTD24*
21,1,3.5000,1.0250,0,0,180.0*
21,1,2.4750,2.0500,0,0,180.0*
1,1,1.0250,-1.2375,0.5125*
1,1,1.0250,1.2375,0.5125*
1,1,1.0250,1.2375,-0.5125*
1,1,1.0250,-1.2375,-0.5125*
%
%ADD24ROUNDEDRECTD24*%
%ADD25O,0.6000X1.9000*%
%ADD26O,1.9000X0.6000*%
%ADD27O,0.6000X2.0500*%
%ADD28O,2.0500X0.6000*%
%ADD29R,0.6000X0.8500*%
%ADD30C,1.0160*%
%ADD31C,0.7620*%
%ADD32C,0.3810*%
%ADD33R,2.5250X7.2000*%
%ADD34R,4.1500X2.0750*%
%ADD35R,2.7250X2.0750*%
%ADD36R,1.2250X7.2000*%
%ADD37C,1.6500*%
%ADD38R,1.6500X1.6500*%
%ADD39C,1.6000*%
%ADD40O,1.5000X2.5000*%
%ADD41R,1.5000X2.5000*%
%ADD42O,4.0000X2.0000*%
%ADD43O,2.0000X4.5000*%
%ADD44O,2.0000X4.0000*%
%ADD45C,2.0000*%
%ADD46C,1.7000*%
%ADD47C,0.9000*%
%ADD48C,6.0000*%
%ADD49C,1.5000*%
%ADD50R,1.5000X1.5000*%
%ADD51C,5.0000*%
%ADD52C,0.7000*%
%ADD53C,1.2700*%
G36*
X1058677Y593810D02*
X1054695Y593497D01*
X1049520Y592255D01*
X1044603Y590218D01*
X1040066Y587437D01*
X1036019Y583981D01*
X1032563Y579935D01*
X1029782Y575397D01*
X1027745Y570480D01*
X1026503Y565305D01*
X1026086Y560000D01*
X1026503Y554695D01*
X1027745Y549520D01*
X1029782Y544603D01*
X1032563Y540065D01*
X1036019Y536019D01*
X1040066Y532563D01*
X1044603Y529782D01*
X1049520Y527745D01*
X1054695Y526503D01*
X1060000Y526086D01*
X1065305Y526503D01*
X1070480Y527745D01*
X1075397Y529782D01*
X1079934Y532563D01*
X1083981Y536019D01*
X1087437Y540065D01*
X1090218Y544603D01*
X1092255Y549520D01*
X1093497Y554695D01*
X1093810Y558678D01*
X1095079Y558628D01*
Y41372D01*
X1093810Y41322D01*
X1093497Y45305D01*
X1092255Y50480D01*
X1090218Y55397D01*
X1087437Y59934D01*
X1083981Y63981D01*
X1079934Y67437D01*
X1075397Y70218D01*
X1070480Y72255D01*
X1065305Y73497D01*
X1060000Y73914D01*
X1054695Y73497D01*
X1049520Y72255D01*
X1044603Y70218D01*
X1040066Y67437D01*
X1036019Y63981D01*
X1032563Y59934D01*
X1029782Y55397D01*
X1027745Y50480D01*
X1026503Y45305D01*
X1026086Y40000D01*
X1026503Y34695D01*
X1027745Y29520D01*
X1029782Y24603D01*
X1032563Y20066D01*
X1036019Y16019D01*
X1040066Y12563D01*
X1044603Y9782D01*
X1049520Y7745D01*
X1054695Y6503D01*
X1058677Y6190D01*
X1058627Y4920D01*
X41373D01*
X41323Y6190D01*
X45305Y6503D01*
X50480Y7745D01*
X55397Y9782D01*
X59934Y12563D01*
X63981Y16019D01*
X67437Y20066D01*
X70218Y24603D01*
X72255Y29520D01*
X73497Y34695D01*
X73914Y40000D01*
X73497Y45305D01*
X72255Y50480D01*
X70218Y55397D01*
X67437Y59934D01*
X63981Y63981D01*
X59934Y67437D01*
X55397Y70218D01*
X50480Y72255D01*
X45305Y73497D01*
X40000Y73914D01*
X34695Y73497D01*
X29520Y72255D01*
X24603Y70218D01*
X20066Y67437D01*
X16019Y63981D01*
X12563Y59934D01*
X9782Y55397D01*
X7745Y50480D01*
X6503Y45305D01*
X6190Y41323D01*
X4920Y41373D01*
Y558627D01*
X6190Y558677D01*
X6503Y554695D01*
X7745Y549520D01*
X9782Y544603D01*
X12563Y540065D01*
X16019Y536019D01*
X20066Y532563D01*
X24603Y529782D01*
X29520Y527745D01*
X34695Y526503D01*
X40000Y526086D01*
X45305Y526503D01*
X50480Y527745D01*
X55397Y529782D01*
X59934Y532563D01*
X63981Y536019D01*
X67437Y540065D01*
X70218Y544603D01*
X72255Y549520D01*
X73497Y554695D01*
X73914Y560000D01*
X73497Y565305D01*
X72255Y570480D01*
X70218Y575397D01*
X67437Y579935D01*
X63981Y583981D01*
X59934Y587437D01*
X55397Y590218D01*
X50480Y592255D01*
X45305Y593497D01*
X41323Y593810D01*
X41373Y595079D01*
X1058627D01*
X1058677Y593810D01*
D02*
G37*
%LPC*%
G36*
X778510Y238760D02*
X772574D01*
X772658Y238122D01*
X773395Y236343D01*
X774566Y234816D01*
X776094Y233645D01*
X777872Y232908D01*
X778510Y232824D01*
Y238760D01*
D02*
G37*
G36*
X786986D02*
X781050D01*
Y232824D01*
X781688Y232908D01*
X783466Y233645D01*
X784994Y234816D01*
X786165Y236343D01*
X786902Y238122D01*
X786986Y238760D01*
D02*
G37*
G36*
X458470Y236308D02*
X455818Y235958D01*
X453346Y234935D01*
X451224Y233306D01*
X449595Y231184D01*
X448572Y228712D01*
X448222Y226060D01*
X448572Y223408D01*
X449595Y220936D01*
X451224Y218814D01*
X453324Y217202D01*
X453192Y216814D01*
X453133Y216670D01*
X451917Y216301D01*
X451820Y216366D01*
X450727Y217205D01*
X448948Y217942D01*
X447040Y218193D01*
X445132Y217942D01*
X443354Y217205D01*
X441826Y216034D01*
X440655Y214506D01*
X439918Y212728D01*
X439667Y210820D01*
X439918Y208912D01*
X440655Y207134D01*
X441826Y205606D01*
X443354Y204435D01*
X445132Y203698D01*
X447040Y203447D01*
X448948Y203698D01*
X450727Y204435D01*
X451820Y205274D01*
X452279Y205581D01*
X452289Y205571D01*
D01*
D01*
X452424Y205627D01*
X452425Y205628D01*
X469583Y205641D01*
X469596Y205628D01*
Y205627D01*
X469664Y205599D01*
X469731Y205571D01*
D01*
X469828Y205522D01*
X470200Y205274D01*
X471293Y204435D01*
X473072Y203698D01*
X474980Y203447D01*
X476888Y203698D01*
X478666Y204435D01*
X480194Y205606D01*
X481365Y207134D01*
X482102Y208912D01*
X482353Y210820D01*
X482102Y212728D01*
X481365Y214506D01*
X480254Y215954D01*
X480816Y217093D01*
X510247D01*
X511294Y216885D01*
X512158Y216308D01*
X512184Y216274D01*
X514306Y214645D01*
X516778Y213622D01*
X519430Y213272D01*
X522082Y213622D01*
X524554Y214645D01*
X526676Y216274D01*
X528305Y218396D01*
X529328Y220868D01*
X529678Y223520D01*
X529328Y226172D01*
X528305Y228644D01*
X526676Y230766D01*
X524554Y232395D01*
X522082Y233419D01*
X521867Y233447D01*
X521373Y233825D01*
X519211Y234721D01*
X516890Y235027D01*
X510466D01*
X510232Y235050D01*
Y235027D01*
X463372D01*
X461122Y235958D01*
X458470Y236308D01*
D02*
G37*
G36*
X38100Y213281D02*
X36718Y213099D01*
X34246Y212075D01*
X32124Y210446D01*
X30495Y208324D01*
X29471Y205852D01*
X29290Y204470D01*
X38100D01*
Y213281D01*
D02*
G37*
G36*
X40640D02*
Y204470D01*
X49450D01*
X49268Y205852D01*
X48245Y208324D01*
X46616Y210446D01*
X44494Y212075D01*
X42022Y213099D01*
X40640Y213281D01*
D02*
G37*
G36*
X287020Y240030D02*
X281084D01*
X281168Y239392D01*
X281905Y237614D01*
X283076Y236086D01*
X284604Y234915D01*
X286382Y234178D01*
X287020Y234094D01*
Y240030D01*
D02*
G37*
G36*
Y248506D02*
X286382Y248422D01*
X284604Y247685D01*
X283076Y246514D01*
X281905Y244986D01*
X281168Y243208D01*
X281084Y242570D01*
X287020D01*
Y248506D01*
D02*
G37*
G36*
X289560D02*
Y242570D01*
X295496D01*
X295412Y243208D01*
X294675Y244986D01*
X293504Y246514D01*
X291977Y247685D01*
X290198Y248422D01*
X289560Y248506D01*
D02*
G37*
G36*
X781050Y247236D02*
Y241300D01*
X786986D01*
X786902Y241938D01*
X786165Y243717D01*
X784994Y245244D01*
X783466Y246415D01*
X781688Y247152D01*
X781050Y247236D01*
D02*
G37*
G36*
X295496Y240030D02*
X289560D01*
Y234094D01*
X290198Y234178D01*
X291977Y234915D01*
X293504Y236086D01*
X294675Y237614D01*
X295412Y239392D01*
X295496Y240030D01*
D02*
G37*
G36*
X778510Y247236D02*
X777872Y247152D01*
X776094Y246415D01*
X774566Y245244D01*
X773395Y243717D01*
X772658Y241938D01*
X772574Y241300D01*
X778510D01*
Y247236D01*
D02*
G37*
G36*
X504190Y209136D02*
Y203200D01*
X510126D01*
X510042Y203838D01*
X509305Y205616D01*
X508134Y207144D01*
X506606Y208315D01*
X504828Y209052D01*
X504190Y209136D01*
D02*
G37*
G36*
X905510Y181196D02*
X904872Y181112D01*
X903093Y180375D01*
X901566Y179204D01*
X900395Y177677D01*
X899658Y175898D01*
X899574Y175260D01*
X905510D01*
Y181196D01*
D02*
G37*
G36*
X908050D02*
Y175260D01*
X913986D01*
X913902Y175898D01*
X913165Y177677D01*
X911994Y179204D01*
X910467Y180375D01*
X908688Y181112D01*
X908050Y181196D01*
D02*
G37*
G36*
X913986Y172720D02*
X908050D01*
Y166784D01*
X908688Y166868D01*
X910467Y167605D01*
X911994Y168776D01*
X913165Y170303D01*
X913902Y172082D01*
X913986Y172720D01*
D02*
G37*
G36*
X638810Y171036D02*
Y165100D01*
X644746D01*
X644662Y165738D01*
X643925Y167516D01*
X642754Y169044D01*
X641227Y170215D01*
X639448Y170952D01*
X638810Y171036D01*
D02*
G37*
G36*
X905510Y172720D02*
X899574D01*
X899658Y172082D01*
X900395Y170303D01*
X901566Y168776D01*
X903093Y167605D01*
X904872Y166868D01*
X905510Y166784D01*
Y172720D01*
D02*
G37*
G36*
X38100Y201930D02*
X29290D01*
X29471Y200548D01*
X30495Y198076D01*
X32124Y195954D01*
X34246Y194325D01*
X36718Y193302D01*
X38100Y193120D01*
Y201930D01*
D02*
G37*
G36*
X501650Y209136D02*
X501012Y209052D01*
X499234Y208315D01*
X497706Y207144D01*
X496535Y205616D01*
X495798Y203838D01*
X495714Y203200D01*
X501650D01*
Y209136D01*
D02*
G37*
G36*
X636270Y171036D02*
X635632Y170952D01*
X633853Y170215D01*
X632326Y169044D01*
X631155Y167516D01*
X630418Y165738D01*
X630334Y165100D01*
X636270D01*
Y171036D01*
D02*
G37*
G36*
X510126Y200660D02*
X504190D01*
Y194724D01*
X504828Y194808D01*
X506606Y195545D01*
X508134Y196716D01*
X509305Y198244D01*
X510042Y200022D01*
X510126Y200660D01*
D02*
G37*
G36*
X49450Y201930D02*
X40640D01*
Y193120D01*
X42022Y193302D01*
X44494Y194325D01*
X46616Y195954D01*
X48245Y198076D01*
X49268Y200548D01*
X49450Y201930D01*
D02*
G37*
G36*
X501650Y200660D02*
X495714D01*
X495798Y200022D01*
X496535Y198244D01*
X497706Y196716D01*
X499234Y195545D01*
X501012Y194808D01*
X501650Y194724D01*
Y200660D01*
D02*
G37*
G36*
X105410Y252730D02*
X96600D01*
X96782Y251348D01*
X97805Y248876D01*
X99434Y246754D01*
X101556Y245125D01*
X104028Y244102D01*
X105410Y243920D01*
Y252730D01*
D02*
G37*
G36*
X431800Y291686D02*
X431162Y291602D01*
X429384Y290865D01*
X427856Y289694D01*
X426685Y288167D01*
X425948Y286388D01*
X425864Y285750D01*
X431800D01*
Y291686D01*
D02*
G37*
G36*
X434340D02*
Y285750D01*
X440276D01*
X440192Y286388D01*
X439455Y288167D01*
X438284Y289694D01*
X436757Y290865D01*
X434978Y291602D01*
X434340Y291686D01*
D02*
G37*
G36*
X852170Y289146D02*
Y283210D01*
X858106D01*
X858022Y283848D01*
X857285Y285627D01*
X856114Y287154D01*
X854586Y288325D01*
X852808Y289062D01*
X852170Y289146D01*
D02*
G37*
G36*
X440276Y283210D02*
X434340D01*
Y277274D01*
X434978Y277358D01*
X436757Y278095D01*
X438284Y279266D01*
X439455Y280793D01*
X440192Y282572D01*
X440276Y283210D01*
D02*
G37*
G36*
X849630Y289146D02*
X848992Y289062D01*
X847214Y288325D01*
X845686Y287154D01*
X844515Y285627D01*
X843778Y283848D01*
X843694Y283210D01*
X849630D01*
Y289146D01*
D02*
G37*
G36*
X654050Y294640D02*
X648114D01*
X648198Y294002D01*
X648935Y292223D01*
X650106Y290696D01*
X651634Y289525D01*
X653412Y288788D01*
X654050Y288704D01*
Y294640D01*
D02*
G37*
G36*
Y303116D02*
X653412Y303032D01*
X651634Y302295D01*
X650106Y301124D01*
X648935Y299597D01*
X648198Y297818D01*
X648114Y297180D01*
X654050D01*
Y303116D01*
D02*
G37*
G36*
X656590D02*
Y297180D01*
X662526D01*
X662442Y297818D01*
X661705Y299597D01*
X660534Y301124D01*
X659007Y302295D01*
X657228Y303032D01*
X656590Y303116D01*
D02*
G37*
G36*
X531716Y299720D02*
X525780D01*
Y293784D01*
X526418Y293868D01*
X528196Y294605D01*
X529724Y295776D01*
X530895Y297304D01*
X531632Y299082D01*
X531716Y299720D01*
D02*
G37*
G36*
X662526Y294640D02*
X656590D01*
Y288704D01*
X657228Y288788D01*
X659007Y289525D01*
X660534Y290696D01*
X661705Y292223D01*
X662442Y294002D01*
X662526Y294640D01*
D02*
G37*
G36*
X523240Y299720D02*
X517304D01*
X517388Y299082D01*
X518125Y297304D01*
X519296Y295776D01*
X520824Y294605D01*
X522602Y293868D01*
X523240Y293784D01*
Y299720D01*
D02*
G37*
G36*
X431800Y283210D02*
X425864D01*
X425948Y282572D01*
X426685Y280793D01*
X427856Y279266D01*
X429384Y278095D01*
X431162Y277358D01*
X431800Y277274D01*
Y283210D01*
D02*
G37*
G36*
X260350Y267970D02*
X254414D01*
X254498Y267332D01*
X255235Y265553D01*
X256406Y264026D01*
X257934Y262855D01*
X259712Y262118D01*
X260350Y262034D01*
Y267970D01*
D02*
G37*
G36*
X268826D02*
X262890D01*
Y262034D01*
X263528Y262118D01*
X265306Y262855D01*
X266834Y264026D01*
X268005Y265553D01*
X268742Y267332D01*
X268826Y267970D01*
D02*
G37*
G36*
X107950Y264081D02*
Y255270D01*
X116761D01*
X116579Y256652D01*
X115555Y259124D01*
X113926Y261246D01*
X111804Y262875D01*
X109332Y263899D01*
X107950Y264081D01*
D02*
G37*
G36*
X116761Y252730D02*
X107950D01*
Y243920D01*
X109332Y244102D01*
X111804Y245125D01*
X113926Y246754D01*
X115555Y248876D01*
X116579Y251348D01*
X116761Y252730D01*
D02*
G37*
G36*
X105410Y264081D02*
X104028Y263899D01*
X101556Y262875D01*
X99434Y261246D01*
X97805Y259124D01*
X96782Y256652D01*
X96600Y255270D01*
X105410D01*
Y264081D01*
D02*
G37*
G36*
X260350Y276446D02*
X259712Y276362D01*
X257934Y275625D01*
X256406Y274454D01*
X255235Y272927D01*
X254498Y271148D01*
X254414Y270510D01*
X260350D01*
Y276446D01*
D02*
G37*
G36*
X849630Y280670D02*
X843694D01*
X843778Y280032D01*
X844515Y278253D01*
X845686Y276726D01*
X847214Y275555D01*
X848992Y274818D01*
X849630Y274734D01*
Y280670D01*
D02*
G37*
G36*
X858106D02*
X852170D01*
Y274734D01*
X852808Y274818D01*
X854586Y275555D01*
X856114Y276726D01*
X857285Y278253D01*
X858022Y280032D01*
X858106Y280670D01*
D02*
G37*
G36*
X886460Y297392D02*
X883377Y296986D01*
X880504Y295796D01*
X878037Y293903D01*
X876144Y291436D01*
X874954Y288563D01*
X874548Y285480D01*
X874954Y282397D01*
X876144Y279524D01*
X878037Y277057D01*
X880504Y275164D01*
X883377Y273974D01*
X886460Y273568D01*
X889543Y273974D01*
X892416Y275164D01*
X894883Y277057D01*
X896776Y279524D01*
X897966Y282397D01*
X898372Y285480D01*
X897966Y288563D01*
X896776Y291436D01*
X894883Y293903D01*
X892416Y295796D01*
X889543Y296986D01*
X886460Y297392D01*
D02*
G37*
G36*
X262890Y276446D02*
Y270510D01*
X268826D01*
X268742Y271148D01*
X268005Y272927D01*
X266834Y274454D01*
X265306Y275625D01*
X263528Y276362D01*
X262890Y276446D01*
D02*
G37*
G36*
X680720Y297392D02*
X677637Y296986D01*
X674764Y295796D01*
X672297Y293903D01*
X670404Y291436D01*
X669214Y288563D01*
X668808Y285480D01*
X669214Y282397D01*
X670404Y279524D01*
X672297Y277057D01*
X674764Y275164D01*
X677637Y273974D01*
X680720Y273568D01*
X683803Y273974D01*
X686676Y275164D01*
X689143Y277057D01*
X691036Y279524D01*
X692226Y282397D01*
X692632Y285480D01*
X692226Y288563D01*
X691036Y291436D01*
X689143Y293903D01*
X686676Y295796D01*
X683803Y296986D01*
X680720Y297392D01*
D02*
G37*
G36*
X785716Y40640D02*
X779780D01*
Y34704D01*
X780418Y34788D01*
X782197Y35525D01*
X783724Y36696D01*
X784895Y38224D01*
X785632Y40002D01*
X785716Y40640D01*
D02*
G37*
G36*
X308930Y51120D02*
X298890D01*
Y36080D01*
X308930D01*
Y51120D01*
D02*
G37*
G36*
X777240Y40640D02*
X771304D01*
X771388Y40002D01*
X772125Y38224D01*
X773296Y36696D01*
X774824Y35525D01*
X776602Y34788D01*
X777240Y34704D01*
Y40640D01*
D02*
G37*
G36*
X86360Y30066D02*
Y24130D01*
X92296D01*
X92212Y24768D01*
X91475Y26546D01*
X90304Y28074D01*
X88777Y29245D01*
X86998Y29982D01*
X86360Y30066D01*
D02*
G37*
G36*
X982980Y74646D02*
X979766Y74223D01*
X976772Y72983D01*
X974200Y71010D01*
X972227Y68438D01*
X970987Y65444D01*
X970564Y62230D01*
X970987Y59016D01*
X972227Y56022D01*
X974200Y53450D01*
X976772Y51477D01*
X979766Y50237D01*
X980312Y50165D01*
Y48895D01*
X979766Y48823D01*
X976772Y47583D01*
X974200Y45610D01*
X972227Y43038D01*
X970987Y40044D01*
X970564Y36830D01*
X970987Y33616D01*
X972227Y30622D01*
X974200Y28050D01*
X976772Y26077D01*
X979766Y24837D01*
X982980Y24414D01*
X986194Y24837D01*
X989188Y26077D01*
X991760Y28050D01*
X993733Y30622D01*
X994973Y33616D01*
X995396Y36830D01*
X994973Y40044D01*
X993733Y43038D01*
X991760Y45610D01*
X989188Y47583D01*
X986194Y48823D01*
X985648Y48895D01*
Y50165D01*
X986194Y50237D01*
X989188Y51477D01*
X991760Y53450D01*
X993733Y56022D01*
X994973Y59016D01*
X995396Y62230D01*
X994973Y65444D01*
X993733Y68438D01*
X991760Y71010D01*
X989188Y72983D01*
X986194Y74223D01*
X982980Y74646D01*
D02*
G37*
G36*
X321510Y51120D02*
X311470D01*
Y36080D01*
X321510D01*
Y51120D01*
D02*
G37*
G36*
X575510D02*
X565470D01*
Y36080D01*
X575510D01*
Y51120D01*
D02*
G37*
G36*
X910590Y45720D02*
X904654D01*
X904738Y45082D01*
X905475Y43303D01*
X906646Y41776D01*
X908174Y40605D01*
X909952Y39868D01*
X910590Y39784D01*
Y45720D01*
D02*
G37*
G36*
X562930Y51120D02*
X552890D01*
Y36080D01*
X562930D01*
Y51120D01*
D02*
G37*
G36*
X435930D02*
X425890D01*
Y36080D01*
X435930D01*
Y51120D01*
D02*
G37*
G36*
X448510D02*
X438470D01*
Y36080D01*
X448510D01*
Y51120D01*
D02*
G37*
G36*
X83820Y30066D02*
X83182Y29982D01*
X81404Y29245D01*
X79876Y28074D01*
X78705Y26546D01*
X77968Y24768D01*
X77884Y24130D01*
X83820D01*
Y30066D01*
D02*
G37*
G36*
X477200Y51218D02*
X474248Y50829D01*
X471496Y49689D01*
X469134Y47876D01*
X467321Y45514D01*
X466181Y42762D01*
X465792Y39810D01*
Y29810D01*
X466181Y26858D01*
X467321Y24106D01*
X469134Y21744D01*
X471496Y19931D01*
X474248Y18791D01*
X477200Y18402D01*
X480153Y18791D01*
X482904Y19931D01*
X485266Y21744D01*
X487079Y24106D01*
X488219Y26858D01*
X488608Y29810D01*
Y39810D01*
X488219Y42762D01*
X487079Y45514D01*
X485266Y47876D01*
X482904Y49689D01*
X480153Y50829D01*
X477200Y51218D01*
D02*
G37*
G36*
X604200D02*
X601247Y50829D01*
X598496Y49689D01*
X596134Y47876D01*
X594321Y45514D01*
X593181Y42762D01*
X592792Y39810D01*
Y29810D01*
X593181Y26858D01*
X594321Y24106D01*
X596134Y21744D01*
X598496Y19931D01*
X601247Y18791D01*
X604200Y18402D01*
X607152Y18791D01*
X609904Y19931D01*
X612266Y21744D01*
X614079Y24106D01*
X615219Y26858D01*
X615608Y29810D01*
Y39810D01*
X615219Y42762D01*
X614079Y45514D01*
X612266Y47876D01*
X609904Y49689D01*
X607152Y50829D01*
X604200Y51218D01*
D02*
G37*
G36*
X350200D02*
X347248Y50829D01*
X344496Y49689D01*
X342134Y47876D01*
X340321Y45514D01*
X339181Y42762D01*
X338792Y39810D01*
Y29810D01*
X339181Y26858D01*
X340321Y24106D01*
X342134Y21744D01*
X344496Y19931D01*
X347248Y18791D01*
X350200Y18402D01*
X353153Y18791D01*
X355904Y19931D01*
X358266Y21744D01*
X360079Y24106D01*
X361219Y26858D01*
X361608Y29810D01*
Y39810D01*
X361219Y42762D01*
X360079Y45514D01*
X358266Y47876D01*
X355904Y49689D01*
X353153Y50829D01*
X350200Y51218D01*
D02*
G37*
G36*
X83820Y21590D02*
X77884D01*
X77968Y20952D01*
X78705Y19174D01*
X79876Y17646D01*
X81404Y16475D01*
X83182Y15738D01*
X83820Y15654D01*
Y21590D01*
D02*
G37*
G36*
X92296D02*
X86360D01*
Y15654D01*
X86998Y15738D01*
X88777Y16475D01*
X90304Y17646D01*
X91475Y19174D01*
X92212Y20952D01*
X92296Y21590D01*
D02*
G37*
G36*
X308930Y33540D02*
X298890D01*
Y18500D01*
X308930D01*
Y33540D01*
D02*
G37*
G36*
X562930D02*
X552890D01*
Y18500D01*
X562930D01*
Y33540D01*
D02*
G37*
G36*
X575510D02*
X565470D01*
Y18500D01*
X575510D01*
Y33540D01*
D02*
G37*
G36*
X448510D02*
X438470D01*
Y18500D01*
X448510D01*
Y33540D01*
D02*
G37*
G36*
X321510D02*
X311470D01*
Y18500D01*
X321510D01*
Y33540D01*
D02*
G37*
G36*
X435930D02*
X425890D01*
Y18500D01*
X435930D01*
Y33540D01*
D02*
G37*
G36*
X919066Y45720D02*
X913130D01*
Y39784D01*
X913768Y39868D01*
X915546Y40605D01*
X917074Y41776D01*
X918245Y43303D01*
X918982Y45082D01*
X919066Y45720D01*
D02*
G37*
G36*
X233170Y146050D02*
X220678D01*
X220985Y143715D01*
X222377Y140355D01*
X224591Y137471D01*
X227475Y135257D01*
X230835Y133865D01*
X233170Y133558D01*
Y146050D01*
D02*
G37*
G36*
X248202D02*
X235710D01*
Y133558D01*
X238045Y133865D01*
X241405Y135257D01*
X244289Y137471D01*
X246503Y140355D01*
X247895Y143715D01*
X248202Y146050D01*
D02*
G37*
G36*
X32190Y161249D02*
X28585Y160775D01*
X25225Y159383D01*
X22341Y157169D01*
X20127Y154285D01*
X18735Y150925D01*
X18261Y147320D01*
X18735Y143715D01*
X20127Y140355D01*
X22341Y137471D01*
X25225Y135257D01*
X28585Y133865D01*
X32190Y133391D01*
X35795Y133865D01*
X39155Y135257D01*
X42039Y137471D01*
X44253Y140355D01*
X45645Y143715D01*
X46119Y147320D01*
X45645Y150925D01*
X44253Y154285D01*
X42039Y157169D01*
X39155Y159383D01*
X35795Y160775D01*
X32190Y161249D01*
D02*
G37*
G36*
X131875Y101391D02*
X131237Y101307D01*
X129459Y100570D01*
X127931Y99399D01*
X126760Y97872D01*
X126023Y96093D01*
X125939Y95455D01*
X131875D01*
Y101391D01*
D02*
G37*
G36*
X134415D02*
Y95455D01*
X140351D01*
X140267Y96093D01*
X139530Y97872D01*
X138358Y99399D01*
X136832Y100570D01*
X135053Y101307D01*
X134415Y101391D01*
D02*
G37*
G36*
X307340Y202889D02*
X302819Y202533D01*
X298410Y201475D01*
X294220Y199739D01*
X290354Y197370D01*
X286905Y194425D01*
X283960Y190977D01*
X281591Y187110D01*
X279855Y182920D01*
X278797Y178511D01*
X278441Y173990D01*
X278797Y169469D01*
X279855Y165060D01*
X281591Y160870D01*
X283960Y157003D01*
X286905Y153555D01*
X290354Y150610D01*
X294220Y148241D01*
X298410Y146505D01*
X302819Y145447D01*
X307340Y145091D01*
X311861Y145447D01*
X316270Y146505D01*
X320460Y148241D01*
X324327Y150610D01*
X327775Y153555D01*
X330720Y157003D01*
X333089Y160870D01*
X334825Y165060D01*
X335883Y169469D01*
X336239Y173990D01*
X335883Y178511D01*
X334825Y182920D01*
X333089Y187110D01*
X330720Y190977D01*
X327775Y194425D01*
X324327Y197370D01*
X320460Y199739D01*
X316270Y201475D01*
X311861Y202533D01*
X307340Y202889D01*
D02*
G37*
G36*
X636270Y162560D02*
X630334D01*
X630418Y161922D01*
X631155Y160144D01*
X632326Y158616D01*
X633853Y157445D01*
X635632Y156708D01*
X636270Y156624D01*
Y162560D01*
D02*
G37*
G36*
X644746D02*
X638810D01*
Y156624D01*
X639448Y156708D01*
X641227Y157445D01*
X642754Y158616D01*
X643925Y160144D01*
X644662Y161922D01*
X644746Y162560D01*
D02*
G37*
G36*
X235710Y161082D02*
Y148590D01*
X248202D01*
X247895Y150925D01*
X246503Y154285D01*
X244289Y157169D01*
X241405Y159383D01*
X238045Y160775D01*
X235710Y161082D01*
D02*
G37*
G36*
X1056640Y202889D02*
X1052119Y202533D01*
X1047710Y201475D01*
X1043520Y199739D01*
X1039653Y197370D01*
X1036205Y194425D01*
X1033260Y190977D01*
X1030891Y187110D01*
X1029155Y182920D01*
X1028097Y178511D01*
X1027741Y173990D01*
X1028097Y169469D01*
X1029155Y165060D01*
X1030891Y160870D01*
X1033260Y157003D01*
X1036205Y153555D01*
X1039653Y150610D01*
X1043520Y148241D01*
X1047710Y146505D01*
X1052119Y145447D01*
X1056640Y145091D01*
X1061161Y145447D01*
X1065570Y146505D01*
X1069760Y148241D01*
X1073626Y150610D01*
X1077075Y153555D01*
X1080020Y157003D01*
X1082389Y160870D01*
X1084125Y165060D01*
X1085183Y169469D01*
X1085539Y173990D01*
X1085183Y178511D01*
X1084125Y182920D01*
X1082389Y187110D01*
X1080020Y190977D01*
X1077075Y194425D01*
X1073626Y197370D01*
X1069760Y199739D01*
X1065570Y201475D01*
X1061161Y202533D01*
X1056640Y202889D01*
D02*
G37*
G36*
X233170Y161082D02*
X230835Y160775D01*
X227475Y159383D01*
X224591Y157169D01*
X222377Y154285D01*
X220985Y150925D01*
X220678Y148590D01*
X233170D01*
Y161082D01*
D02*
G37*
G36*
X140351Y92915D02*
X134415D01*
Y86979D01*
X135053Y87063D01*
X136832Y87800D01*
X138358Y88972D01*
X139530Y90499D01*
X140267Y92277D01*
X140351Y92915D01*
D02*
G37*
G36*
X913130Y54196D02*
Y48260D01*
X919066D01*
X918982Y48898D01*
X918245Y50676D01*
X917074Y52204D01*
X915546Y53375D01*
X913768Y54112D01*
X913130Y54196D01*
D02*
G37*
G36*
X308930Y98540D02*
X298792D01*
Y94810D01*
X299181Y91858D01*
X300321Y89106D01*
X302134Y86744D01*
X304496Y84931D01*
X307248Y83791D01*
X308930Y83570D01*
Y98540D01*
D02*
G37*
G36*
X910590Y54196D02*
X909952Y54112D01*
X908174Y53375D01*
X906646Y52204D01*
X905475Y50676D01*
X904738Y48898D01*
X904654Y48260D01*
X910590D01*
Y54196D01*
D02*
G37*
G36*
X777240Y49116D02*
X776602Y49032D01*
X774824Y48295D01*
X773296Y47124D01*
X772125Y45596D01*
X771388Y43818D01*
X771304Y43180D01*
X777240D01*
Y49116D01*
D02*
G37*
G36*
X779780D02*
Y43180D01*
X785716D01*
X785632Y43818D01*
X784895Y45596D01*
X783724Y47124D01*
X782197Y48295D01*
X780418Y49032D01*
X779780Y49116D01*
D02*
G37*
G36*
X321608Y98540D02*
X311470D01*
Y83570D01*
X313153Y83791D01*
X315904Y84931D01*
X318266Y86744D01*
X320079Y89106D01*
X321219Y91858D01*
X321608Y94810D01*
Y98540D01*
D02*
G37*
G36*
X575608D02*
X565470D01*
Y83570D01*
X567152Y83791D01*
X569904Y84931D01*
X572266Y86744D01*
X574079Y89106D01*
X575219Y91858D01*
X575608Y94810D01*
Y98540D01*
D02*
G37*
G36*
X131875Y92915D02*
X125939D01*
X126023Y92277D01*
X126760Y90499D01*
X127931Y88972D01*
X129459Y87800D01*
X131237Y87063D01*
X131875Y86979D01*
Y92915D01*
D02*
G37*
G36*
X562930Y98540D02*
X552792D01*
Y94810D01*
X553181Y91858D01*
X554321Y89106D01*
X556134Y86744D01*
X558496Y84931D01*
X561247Y83791D01*
X562930Y83570D01*
Y98540D01*
D02*
G37*
G36*
X435930D02*
X425792D01*
Y94810D01*
X426181Y91858D01*
X427321Y89106D01*
X429134Y86744D01*
X431496Y84931D01*
X434248Y83791D01*
X435930Y83570D01*
Y98540D01*
D02*
G37*
G36*
X448608D02*
X438470D01*
Y83570D01*
X440153Y83791D01*
X442904Y84931D01*
X445266Y86744D01*
X447079Y89106D01*
X448219Y91858D01*
X448608Y94810D01*
Y98540D01*
D02*
G37*
G36*
X562729Y502670D02*
X559777Y502281D01*
X557025Y501142D01*
X554663Y499329D01*
X552850Y496966D01*
X551710Y494215D01*
X551322Y491262D01*
X551710Y488310D01*
X552850Y485559D01*
X554663Y483196D01*
X557025Y481383D01*
X559777Y480243D01*
X562729Y479855D01*
X565682Y480243D01*
X568433Y481383D01*
X570796Y483196D01*
X572608Y485559D01*
X573748Y488310D01*
X574137Y491262D01*
X573748Y494215D01*
X572608Y496966D01*
X570796Y499329D01*
X568433Y501142D01*
X565682Y502281D01*
X562729Y502670D01*
D02*
G37*
G36*
X588129D02*
X585177Y502281D01*
X582425Y501142D01*
X580063Y499329D01*
X578250Y496966D01*
X577110Y494215D01*
X576722Y491262D01*
X577110Y488310D01*
X578250Y485559D01*
X580063Y483196D01*
X582425Y481383D01*
X585177Y480243D01*
X588129Y479855D01*
X591082Y480243D01*
X593833Y481383D01*
X596196Y483196D01*
X598008Y485559D01*
X599148Y488310D01*
X599537Y491262D01*
X599148Y494215D01*
X598008Y496966D01*
X596196Y499329D01*
X593833Y501142D01*
X591082Y502281D01*
X588129Y502670D01*
D02*
G37*
G36*
X537329D02*
X534377Y502281D01*
X531626Y501142D01*
X529263Y499329D01*
X527450Y496966D01*
X526310Y494215D01*
X525922Y491262D01*
X526310Y488310D01*
X527450Y485559D01*
X529263Y483196D01*
X531626Y481383D01*
X534377Y480243D01*
X537329Y479855D01*
X540282Y480243D01*
X543033Y481383D01*
X545396Y483196D01*
X547209Y485559D01*
X548348Y488310D01*
X548737Y491262D01*
X548348Y494215D01*
X547209Y496966D01*
X545396Y499329D01*
X543033Y501142D01*
X540282Y502281D01*
X537329Y502670D01*
D02*
G37*
G36*
X486529D02*
X483577Y502281D01*
X480826Y501142D01*
X478463Y499329D01*
X476650Y496966D01*
X475510Y494215D01*
X475122Y491262D01*
X475510Y488310D01*
X476650Y485559D01*
X478463Y483196D01*
X480826Y481383D01*
X483577Y480243D01*
X486529Y479855D01*
X489482Y480243D01*
X492233Y481383D01*
X494596Y483196D01*
X496409Y485559D01*
X497548Y488310D01*
X497937Y491262D01*
X497548Y494215D01*
X496409Y496966D01*
X494596Y499329D01*
X492233Y501142D01*
X489482Y502281D01*
X486529Y502670D01*
D02*
G37*
G36*
X511929D02*
X508977Y502281D01*
X506226Y501142D01*
X503863Y499329D01*
X502050Y496966D01*
X500910Y494215D01*
X500522Y491262D01*
X500910Y488310D01*
X502050Y485559D01*
X503863Y483196D01*
X506226Y481383D01*
X508977Y480243D01*
X511929Y479855D01*
X514882Y480243D01*
X517633Y481383D01*
X519996Y483196D01*
X521809Y485559D01*
X522948Y488310D01*
X523337Y491262D01*
X522948Y494215D01*
X521809Y496966D01*
X519996Y499329D01*
X517633Y501142D01*
X514882Y502281D01*
X511929Y502670D01*
D02*
G37*
G36*
X613529D02*
X610577Y502281D01*
X607826Y501142D01*
X605463Y499329D01*
X603650Y496966D01*
X602510Y494215D01*
X602122Y491262D01*
X602510Y488310D01*
X603650Y485559D01*
X605463Y483196D01*
X607826Y481383D01*
X610577Y480243D01*
X613529Y479855D01*
X616482Y480243D01*
X619233Y481383D01*
X621596Y483196D01*
X623409Y485559D01*
X624548Y488310D01*
X624937Y491262D01*
X624548Y494215D01*
X623409Y496966D01*
X621596Y499329D01*
X619233Y501142D01*
X616482Y502281D01*
X613529Y502670D01*
D02*
G37*
G36*
X715129D02*
X712177Y502281D01*
X709426Y501142D01*
X707063Y499329D01*
X705250Y496966D01*
X704110Y494215D01*
X703722Y491262D01*
X704110Y488310D01*
X705250Y485559D01*
X707063Y483196D01*
X709426Y481383D01*
X712177Y480243D01*
X715129Y479855D01*
X718082Y480243D01*
X720833Y481383D01*
X723196Y483196D01*
X725008Y485559D01*
X726148Y488310D01*
X726537Y491262D01*
X726148Y494215D01*
X725008Y496966D01*
X723196Y499329D01*
X720833Y501142D01*
X718082Y502281D01*
X715129Y502670D01*
D02*
G37*
G36*
X358259Y489992D02*
X348219D01*
Y479952D01*
X358259D01*
Y489992D01*
D02*
G37*
G36*
X689729Y502670D02*
X686777Y502281D01*
X684025Y501142D01*
X681663Y499329D01*
X679850Y496966D01*
X678710Y494215D01*
X678322Y491262D01*
X678710Y488310D01*
X679850Y485559D01*
X681663Y483196D01*
X684025Y481383D01*
X686777Y480243D01*
X689729Y479855D01*
X692682Y480243D01*
X695433Y481383D01*
X697796Y483196D01*
X699609Y485559D01*
X700748Y488310D01*
X701137Y491262D01*
X700748Y494215D01*
X699609Y496966D01*
X697796Y499329D01*
X695433Y501142D01*
X692682Y502281D01*
X689729Y502670D01*
D02*
G37*
G36*
X638929D02*
X635977Y502281D01*
X633226Y501142D01*
X630863Y499329D01*
X629050Y496966D01*
X627910Y494215D01*
X627522Y491262D01*
X627910Y488310D01*
X629050Y485559D01*
X630863Y483196D01*
X633226Y481383D01*
X635977Y480243D01*
X638929Y479855D01*
X641882Y480243D01*
X644633Y481383D01*
X646996Y483196D01*
X648809Y485559D01*
X649948Y488310D01*
X650337Y491262D01*
X649948Y494215D01*
X648809Y496966D01*
X646996Y499329D01*
X644633Y501142D01*
X641882Y502281D01*
X638929Y502670D01*
D02*
G37*
G36*
X664329D02*
X661377Y502281D01*
X658625Y501142D01*
X656263Y499329D01*
X654450Y496966D01*
X653310Y494215D01*
X652922Y491262D01*
X653310Y488310D01*
X654450Y485559D01*
X656263Y483196D01*
X658625Y481383D01*
X661377Y480243D01*
X664329Y479855D01*
X667282Y480243D01*
X670033Y481383D01*
X672396Y483196D01*
X674209Y485559D01*
X675348Y488310D01*
X675737Y491262D01*
X675348Y494215D01*
X674209Y496966D01*
X672396Y499329D01*
X670033Y501142D01*
X667282Y502281D01*
X664329Y502670D01*
D02*
G37*
G36*
X461129D02*
X458177Y502281D01*
X455425Y501142D01*
X453063Y499329D01*
X451250Y496966D01*
X450110Y494215D01*
X449722Y491262D01*
X450110Y488310D01*
X451250Y485559D01*
X453063Y483196D01*
X455425Y481383D01*
X458177Y480243D01*
X461129Y479855D01*
X464082Y480243D01*
X466833Y481383D01*
X469196Y483196D01*
X471008Y485559D01*
X472148Y488310D01*
X472537Y491262D01*
X472148Y494215D01*
X471008Y496966D01*
X469196Y499329D01*
X466833Y501142D01*
X464082Y502281D01*
X461129Y502670D01*
D02*
G37*
G36*
X1056640Y512769D02*
X1052119Y512413D01*
X1047710Y511355D01*
X1043520Y509619D01*
X1039653Y507250D01*
X1036205Y504305D01*
X1033260Y500857D01*
X1030891Y496990D01*
X1029155Y492800D01*
X1028097Y488391D01*
X1027741Y483870D01*
X1028097Y479349D01*
X1029155Y474940D01*
X1030891Y470750D01*
X1033260Y466884D01*
X1036205Y463435D01*
X1039653Y460490D01*
X1043520Y458121D01*
X1047710Y456385D01*
X1052119Y455327D01*
X1056640Y454971D01*
X1061161Y455327D01*
X1065570Y456385D01*
X1069760Y458121D01*
X1073626Y460490D01*
X1077075Y463435D01*
X1080020Y466884D01*
X1082389Y470750D01*
X1084125Y474940D01*
X1085183Y479349D01*
X1085539Y483870D01*
X1085183Y488391D01*
X1084125Y492800D01*
X1082389Y496990D01*
X1080020Y500857D01*
X1077075Y504305D01*
X1073626Y507250D01*
X1069760Y509619D01*
X1065570Y511355D01*
X1061161Y512413D01*
X1056640Y512769D01*
D02*
G37*
G36*
X203200Y468216D02*
X202562Y468132D01*
X200784Y467395D01*
X199256Y466224D01*
X198085Y464697D01*
X197348Y462918D01*
X197264Y462280D01*
X203200D01*
Y468216D01*
D02*
G37*
G36*
X307340Y512769D02*
X302819Y512413D01*
X298410Y511355D01*
X294220Y509619D01*
X290354Y507250D01*
X286905Y504305D01*
X283960Y500857D01*
X281591Y496990D01*
X279855Y492800D01*
X278797Y488391D01*
X278441Y483870D01*
X278797Y479349D01*
X279855Y474940D01*
X281591Y470750D01*
X283960Y466884D01*
X286905Y463435D01*
X290354Y460490D01*
X294220Y458121D01*
X298410Y456385D01*
X302819Y455327D01*
X307340Y454971D01*
X311861Y455327D01*
X316270Y456385D01*
X320460Y458121D01*
X324327Y460490D01*
X327775Y463435D01*
X330720Y466884D01*
X333089Y470750D01*
X334825Y474940D01*
X335883Y479349D01*
X336239Y483870D01*
X335883Y488391D01*
X334825Y492800D01*
X333089Y496990D01*
X330720Y500857D01*
X327775Y504305D01*
X324327Y507250D01*
X320460Y509619D01*
X316270Y511355D01*
X311861Y512413D01*
X307340Y512769D01*
D02*
G37*
G36*
X203200Y459740D02*
X197264D01*
X197348Y459102D01*
X198085Y457323D01*
X199256Y455796D01*
X200784Y454625D01*
X202562Y453888D01*
X203200Y453804D01*
Y459740D01*
D02*
G37*
G36*
X211676D02*
X205740D01*
Y453804D01*
X206378Y453888D01*
X208157Y454625D01*
X209684Y455796D01*
X210855Y457323D01*
X211592Y459102D01*
X211676Y459740D01*
D02*
G37*
G36*
X205740Y468216D02*
Y462280D01*
X211676D01*
X211592Y462918D01*
X210855Y464697D01*
X209684Y466224D01*
X208157Y467395D01*
X206378Y468132D01*
X205740Y468216D01*
D02*
G37*
G36*
X410329Y502670D02*
X407377Y502281D01*
X404626Y501142D01*
X402263Y499329D01*
X400450Y496966D01*
X399310Y494215D01*
X398922Y491262D01*
X399310Y488310D01*
X400450Y485559D01*
X402263Y483196D01*
X404626Y481383D01*
X407377Y480243D01*
X410329Y479855D01*
X413282Y480243D01*
X416033Y481383D01*
X418396Y483196D01*
X420209Y485559D01*
X421348Y488310D01*
X421737Y491262D01*
X421348Y494215D01*
X420209Y496966D01*
X418396Y499329D01*
X416033Y501142D01*
X413282Y502281D01*
X410329Y502670D01*
D02*
G37*
G36*
X435729D02*
X432777Y502281D01*
X430025Y501142D01*
X427663Y499329D01*
X425850Y496966D01*
X424710Y494215D01*
X424322Y491262D01*
X424710Y488310D01*
X425850Y485559D01*
X427663Y483196D01*
X430025Y481383D01*
X432777Y480243D01*
X435729Y479855D01*
X438682Y480243D01*
X441433Y481383D01*
X443796Y483196D01*
X445608Y485559D01*
X446748Y488310D01*
X447137Y491262D01*
X446748Y494215D01*
X445608Y496966D01*
X443796Y499329D01*
X441433Y501142D01*
X438682Y502281D01*
X435729Y502670D01*
D02*
G37*
G36*
X219710Y533488D02*
X217058Y533139D01*
X214586Y532115D01*
X212464Y530486D01*
X210835Y528364D01*
X209903Y526114D01*
X161386Y477597D01*
X152199D01*
Y481130D01*
X151725Y484735D01*
X150333Y488095D01*
X148119Y490979D01*
X145235Y493193D01*
X141875Y494585D01*
X138270Y495059D01*
X134665Y494585D01*
X131305Y493193D01*
X128421Y490979D01*
X126207Y488095D01*
X124815Y484735D01*
X124341Y481130D01*
Y456130D01*
X124815Y452525D01*
X126207Y449165D01*
X128421Y446281D01*
X131305Y444067D01*
X134665Y442675D01*
X138270Y442201D01*
X141875Y442675D01*
X145235Y444067D01*
X148119Y446281D01*
X150333Y449165D01*
X151725Y452525D01*
X152199Y456130D01*
Y459663D01*
X157403D01*
Y342900D01*
Y254000D01*
X157709Y251679D01*
X158605Y249517D01*
X160030Y247660D01*
X290840Y116850D01*
X292697Y115425D01*
X294859Y114529D01*
X297180Y114223D01*
X301913D01*
X302322Y113021D01*
X302134Y112876D01*
X300321Y110514D01*
X299181Y107762D01*
X298792Y104810D01*
Y101080D01*
X321608D01*
Y104810D01*
X321219Y107762D01*
X320079Y110514D01*
X318266Y112876D01*
X318078Y113021D01*
X318487Y114223D01*
X341913D01*
X342322Y113021D01*
X342134Y112876D01*
X340321Y110514D01*
X339181Y107762D01*
X338792Y104810D01*
Y94810D01*
X339181Y91858D01*
X340321Y89106D01*
X342134Y86744D01*
X344496Y84931D01*
X347248Y83791D01*
X350200Y83402D01*
X353153Y83791D01*
X355904Y84931D01*
X358266Y86744D01*
X360079Y89106D01*
X361219Y91858D01*
X361608Y94810D01*
Y104810D01*
X361219Y107762D01*
X360079Y110514D01*
X358266Y112876D01*
X358078Y113021D01*
X358487Y114223D01*
X428913D01*
X429322Y113021D01*
X429134Y112876D01*
X427321Y110514D01*
X426181Y107762D01*
X425792Y104810D01*
Y101080D01*
X448608D01*
Y104810D01*
X448219Y107762D01*
X447079Y110514D01*
X445266Y112876D01*
X445078Y113021D01*
X445487Y114223D01*
X468913D01*
X469322Y113021D01*
X469134Y112876D01*
X467321Y110514D01*
X466181Y107762D01*
X465792Y104810D01*
Y94810D01*
X466181Y91858D01*
X467321Y89106D01*
X469134Y86744D01*
X471496Y84931D01*
X474248Y83791D01*
X477200Y83402D01*
X480153Y83791D01*
X482904Y84931D01*
X485266Y86744D01*
X487079Y89106D01*
X488219Y91858D01*
X488608Y94810D01*
Y104810D01*
X488219Y107762D01*
X487079Y110514D01*
X485266Y112876D01*
X485078Y113021D01*
X485487Y114223D01*
X555913D01*
X556322Y113021D01*
X556134Y112876D01*
X554321Y110514D01*
X553181Y107762D01*
X552792Y104810D01*
Y101080D01*
X575608D01*
Y104810D01*
X575219Y107762D01*
X574079Y110514D01*
X572266Y112876D01*
X572078Y113021D01*
X572487Y114223D01*
X595913D01*
X596322Y113021D01*
X596134Y112876D01*
X594321Y110514D01*
X593181Y107762D01*
X592792Y104810D01*
Y94810D01*
X593181Y91858D01*
X594321Y89106D01*
X596134Y86744D01*
X598496Y84931D01*
X601247Y83791D01*
X604200Y83402D01*
X607152Y83791D01*
X609904Y84931D01*
X612266Y86744D01*
X614079Y89106D01*
X615219Y91858D01*
X615608Y94810D01*
Y104810D01*
X615219Y107762D01*
X614903Y108524D01*
X615959Y109230D01*
X646440Y78750D01*
X702281Y22908D01*
X702332Y22517D01*
X702670Y21702D01*
X702651Y21657D01*
X702651Y21657D01*
X702651Y21657D01*
X702783Y21220D01*
X704260Y18456D01*
X706248Y16034D01*
X708670Y14047D01*
X711433Y12570D01*
X714432Y11660D01*
X717550Y11353D01*
X717550Y11353D01*
X717550Y11353D01*
Y11353D01*
X720597D01*
X720920Y11322D01*
Y11353D01*
X923290D01*
X925611Y11659D01*
X927773Y12555D01*
X929630Y13980D01*
X931055Y15837D01*
X931951Y17999D01*
X932257Y20320D01*
X931951Y22641D01*
X931055Y24803D01*
X929630Y26660D01*
X927773Y28085D01*
X925611Y28981D01*
X923290Y29287D01*
X867144D01*
X866582Y30426D01*
X866733Y30622D01*
X867973Y33616D01*
X868396Y36830D01*
X867973Y40044D01*
X866733Y43038D01*
X864760Y45610D01*
X862188Y47583D01*
X859194Y48823D01*
X858648Y48895D01*
Y50165D01*
X859194Y50237D01*
X862188Y51477D01*
X864760Y53450D01*
X866733Y56022D01*
X867973Y59016D01*
X868396Y62230D01*
X867973Y65444D01*
X866733Y68438D01*
X864760Y71010D01*
X862188Y72983D01*
X859194Y74223D01*
X855980Y74646D01*
X852766Y74223D01*
X849772Y72983D01*
X847200Y71010D01*
X845227Y68438D01*
X843987Y65444D01*
X843564Y62230D01*
X843987Y59016D01*
X845227Y56022D01*
X847200Y53450D01*
X849772Y51477D01*
X852766Y50237D01*
X853312Y50165D01*
Y48895D01*
X852766Y48823D01*
X849772Y47583D01*
X847200Y45610D01*
X845227Y43038D01*
X843987Y40044D01*
X843564Y36830D01*
X843987Y33616D01*
X845227Y30622D01*
X845378Y30426D01*
X844816Y29287D01*
X740144D01*
X739582Y30426D01*
X739733Y30622D01*
X740973Y33616D01*
X741396Y36830D01*
X740973Y40044D01*
X739733Y43038D01*
X737760Y45610D01*
X735188Y47583D01*
X732194Y48823D01*
X731648Y48895D01*
Y50165D01*
X732194Y50237D01*
X735188Y51477D01*
X737760Y53450D01*
X739733Y56022D01*
X740973Y59016D01*
X741396Y62230D01*
X740973Y65444D01*
X739733Y68438D01*
X737760Y71010D01*
X735188Y72983D01*
X732194Y74223D01*
X728980Y74646D01*
X725766Y74223D01*
X722772Y72983D01*
X720200Y71010D01*
X718227Y68438D01*
X716987Y65444D01*
X716564Y62230D01*
X716987Y59016D01*
X718227Y56022D01*
X720200Y53450D01*
X722772Y51477D01*
X725766Y50237D01*
X726312Y50165D01*
Y48895D01*
X725766Y48823D01*
X722772Y47583D01*
X720200Y45610D01*
X718227Y43038D01*
X716987Y40044D01*
X716564Y36830D01*
X716737Y35515D01*
X715598Y34953D01*
X659120Y91430D01*
X621020Y129530D01*
X619163Y130955D01*
X617001Y131851D01*
X614680Y132157D01*
X552527D01*
Y243840D01*
Y316408D01*
X553459Y318658D01*
X553808Y321310D01*
X553511Y323566D01*
X554611Y324201D01*
X555113Y323815D01*
X556892Y323078D01*
X557530Y322994D01*
Y330200D01*
Y337406D01*
X556892Y337322D01*
X555113Y336585D01*
X553666Y335474D01*
X552527Y336036D01*
Y422833D01*
X691095D01*
X706162Y407766D01*
Y396319D01*
X706135Y396284D01*
X705111Y393812D01*
X704762Y391160D01*
X705111Y388508D01*
X706135Y386036D01*
X706162Y386001D01*
Y335161D01*
X706468Y332840D01*
X707364Y330677D01*
X708789Y328820D01*
X746301Y291308D01*
X746335Y291226D01*
X747964Y289104D01*
X750086Y287475D01*
X752558Y286451D01*
X755210Y286102D01*
X757862Y286451D01*
X760334Y287475D01*
X762456Y289104D01*
X764085Y291226D01*
X765108Y293698D01*
X765458Y296350D01*
X765108Y299002D01*
X764085Y301474D01*
X762456Y303596D01*
X760334Y305225D01*
X757862Y306248D01*
X756550Y306421D01*
X724096Y338875D01*
Y386546D01*
X724909Y388508D01*
X725258Y391160D01*
X724909Y393812D01*
X724096Y395774D01*
Y411480D01*
X723790Y413801D01*
X722895Y415963D01*
X721470Y417820D01*
X701150Y438140D01*
X699293Y439565D01*
X697130Y440461D01*
X694809Y440767D01*
X411384D01*
X393777Y458374D01*
Y484214D01*
X394809Y485559D01*
X395948Y488310D01*
X396337Y491262D01*
X395948Y494215D01*
X394809Y496966D01*
X392996Y499329D01*
X390633Y501142D01*
X387882Y502281D01*
X384929Y502670D01*
X381977Y502281D01*
X379226Y501142D01*
X376863Y499329D01*
X375050Y496966D01*
X373910Y494215D01*
X373522Y491262D01*
X373910Y488310D01*
X375050Y485559D01*
X375843Y484525D01*
Y454660D01*
X376149Y452339D01*
X377045Y450177D01*
X378470Y448320D01*
X391086Y435703D01*
X390381Y434647D01*
X389258Y435112D01*
X388620Y435196D01*
Y429260D01*
X394556D01*
X394472Y429898D01*
X394007Y431021D01*
X395063Y431726D01*
X401330Y425460D01*
X403187Y424035D01*
X405349Y423139D01*
X407670Y422833D01*
X534593D01*
Y326212D01*
X533661Y323962D01*
X533312Y321310D01*
X533661Y318658D01*
X534593Y316408D01*
Y286909D01*
X533537Y286203D01*
X532768Y286522D01*
X530860Y286773D01*
X528952Y286522D01*
X527174Y285785D01*
X525647Y284614D01*
X524644D01*
X523116Y285785D01*
X521338Y286522D01*
X519430Y286773D01*
X517522Y286522D01*
X515743Y285785D01*
X514216Y284614D01*
X513045Y283086D01*
X512308Y281308D01*
X512057Y279400D01*
X512308Y277492D01*
X513045Y275714D01*
X513884Y274620D01*
X514191Y274161D01*
X514182Y274151D01*
X514212Y274078D01*
X514238Y274016D01*
Y274016D01*
X514250Y273998D01*
Y268845D01*
X509665Y264259D01*
X489267D01*
X489254Y264272D01*
Y264272D01*
X489138Y264320D01*
X489118Y264328D01*
X489118Y264328D01*
X489109Y264319D01*
X488650Y264626D01*
X487556Y265465D01*
X485778Y266202D01*
X483870Y266453D01*
X481962Y266202D01*
X480183Y265465D01*
X478656Y264294D01*
X477485Y262766D01*
X476808Y261132D01*
X474980Y261373D01*
X473072Y261122D01*
X471293Y260385D01*
X469766Y259214D01*
X468595Y257687D01*
X467858Y255908D01*
X467607Y254000D01*
X467858Y252092D01*
X468595Y250313D01*
X469766Y248786D01*
X471293Y247615D01*
X473072Y246878D01*
X474980Y246627D01*
X476888Y246878D01*
X478033Y247353D01*
X505480D01*
X506185Y246297D01*
X505958Y245748D01*
X505707Y243840D01*
X505958Y241932D01*
X506695Y240154D01*
X507866Y238626D01*
X509394Y237455D01*
X511172Y236718D01*
X513080Y236467D01*
X514988Y236718D01*
X516767Y237455D01*
X517860Y238294D01*
X518319Y238601D01*
X518329Y238591D01*
D01*
D01*
X518464Y238647D01*
X518465Y238648D01*
X534593Y238661D01*
Y132157D01*
X300894D01*
X175337Y257714D01*
Y338991D01*
X184672D01*
X185046Y338088D01*
X186979Y335569D01*
X189498Y333636D01*
X192432Y332420D01*
X194828Y332105D01*
Y330835D01*
X192432Y330520D01*
X189498Y329304D01*
X186979Y327371D01*
X185046Y324852D01*
X183830Y321918D01*
X183583Y320040D01*
X195580D01*
Y318770D01*
X196850D01*
Y306773D01*
X198728Y307020D01*
X201662Y308236D01*
X204181Y310169D01*
X206114Y312688D01*
X207330Y315622D01*
X207653Y318076D01*
X208920Y317993D01*
Y306710D01*
X233040D01*
Y330830D01*
X221757D01*
X221674Y332097D01*
X224128Y332420D01*
X227062Y333636D01*
X229581Y335569D01*
X231514Y338088D01*
X232730Y341022D01*
X233144Y344170D01*
X232730Y347318D01*
X231514Y350252D01*
X229581Y352771D01*
X227062Y354704D01*
X224128Y355920D01*
X221732Y356235D01*
Y357505D01*
X224128Y357820D01*
X227062Y359036D01*
X229581Y360969D01*
X231514Y363488D01*
X232730Y366422D01*
X233144Y369570D01*
X232730Y372718D01*
X231514Y375652D01*
X229581Y378171D01*
X227062Y380104D01*
X224128Y381320D01*
X221732Y381635D01*
Y382905D01*
X224128Y383220D01*
X227062Y384436D01*
X229581Y386369D01*
X231514Y388888D01*
X232730Y391822D01*
X233144Y394970D01*
X232730Y398118D01*
X231514Y401052D01*
X229581Y403571D01*
X227062Y405504D01*
X224128Y406720D01*
X221732Y407035D01*
Y408305D01*
X224128Y408620D01*
X227062Y409836D01*
X229581Y411769D01*
X231514Y414288D01*
X232730Y417222D01*
X233144Y420370D01*
X232730Y423518D01*
X231514Y426452D01*
X229581Y428971D01*
X227062Y430904D01*
X224128Y432120D01*
X220980Y432534D01*
X217832Y432120D01*
X214898Y430904D01*
X212379Y428971D01*
X210446Y426452D01*
X209230Y423518D01*
X208915Y421122D01*
X208858D01*
Y420692D01*
X208815Y420370D01*
X208858Y420048D01*
Y419618D01*
X208915D01*
X209230Y417222D01*
X210446Y414288D01*
X212379Y411769D01*
X214898Y409836D01*
X217832Y408620D01*
X220228Y408305D01*
Y407035D01*
X217832Y406720D01*
X214898Y405504D01*
X212379Y403571D01*
X210446Y401052D01*
X209230Y398118D01*
X208915Y395722D01*
X207645D01*
X207330Y398118D01*
X206114Y401052D01*
X204181Y403571D01*
X201662Y405504D01*
X198728Y406720D01*
X196332Y407035D01*
Y407092D01*
X195902D01*
X195580Y407135D01*
X195258Y407092D01*
X194828D01*
Y407035D01*
X192432Y406720D01*
X189498Y405504D01*
X186979Y403571D01*
X185046Y401052D01*
X183830Y398118D01*
X183416Y394970D01*
X183830Y391822D01*
X185046Y388888D01*
X186979Y386369D01*
X189498Y384436D01*
X192432Y383220D01*
X194828Y382905D01*
Y381635D01*
X192432Y381320D01*
X189498Y380104D01*
X186979Y378171D01*
X185046Y375652D01*
X183830Y372718D01*
X183416Y369570D01*
X183830Y366422D01*
X185046Y363488D01*
X186979Y360969D01*
X189498Y359036D01*
X192432Y357820D01*
X194828Y357505D01*
Y356235D01*
X192432Y355920D01*
X189498Y354704D01*
X186979Y352771D01*
X185046Y350252D01*
X184672Y349350D01*
X175337D01*
Y466186D01*
X222584Y513433D01*
X224834Y514365D01*
X226956Y515994D01*
X228585Y518116D01*
X229608Y520588D01*
X229958Y523240D01*
X229608Y525892D01*
X228585Y528364D01*
X226956Y530486D01*
X224834Y532115D01*
X222362Y533139D01*
X219710Y533488D01*
D02*
G37*
G36*
X64840Y493662D02*
X62505Y493354D01*
X59145Y491963D01*
X56261Y489749D01*
X54047Y486865D01*
X52655Y483505D01*
X52181Y479900D01*
Y471170D01*
X64840D01*
Y493662D01*
D02*
G37*
G36*
X67380D02*
Y471170D01*
X80039D01*
Y479900D01*
X79565Y483505D01*
X78173Y486865D01*
X75959Y489749D01*
X73075Y491963D01*
X69715Y493354D01*
X67380Y493662D01*
D02*
G37*
G36*
X370839Y489992D02*
X360799D01*
Y479952D01*
X370839D01*
Y489992D01*
D02*
G37*
G36*
X433070Y560070D02*
X427134D01*
X427218Y559432D01*
X427955Y557654D01*
X429126Y556126D01*
X430653Y554955D01*
X432432Y554218D01*
X433070Y554134D01*
Y560070D01*
D02*
G37*
G36*
X441546D02*
X435610D01*
Y554134D01*
X436248Y554218D01*
X438027Y554955D01*
X439554Y556126D01*
X440725Y557654D01*
X441462Y559432D01*
X441546Y560070D01*
D02*
G37*
G36*
X154540Y545145D02*
Y534670D01*
X165015D01*
X164776Y536483D01*
X163586Y539356D01*
X161693Y541823D01*
X159226Y543716D01*
X156353Y544906D01*
X154540Y545145D01*
D02*
G37*
G36*
X128270Y545312D02*
X125187Y544906D01*
X122314Y543716D01*
X119847Y541823D01*
X117954Y539356D01*
X116764Y536483D01*
X116405Y533756D01*
X115135D01*
X114776Y536483D01*
X113586Y539356D01*
X111693Y541823D01*
X109226Y543716D01*
X106353Y544906D01*
X103270Y545312D01*
X100187Y544906D01*
X97314Y543716D01*
X94847Y541823D01*
X92954Y539356D01*
X91764Y536483D01*
X91358Y533400D01*
X91764Y530317D01*
X92954Y527444D01*
X94847Y524977D01*
X97314Y523084D01*
X100187Y521894D01*
X103270Y521488D01*
X106353Y521894D01*
X109226Y523084D01*
X111693Y524977D01*
X113586Y527444D01*
X114776Y530317D01*
X115135Y533044D01*
X116405D01*
X116764Y530317D01*
X117954Y527444D01*
X119847Y524977D01*
X122314Y523084D01*
X125187Y521894D01*
X128270Y521488D01*
X131353Y521894D01*
X134226Y523084D01*
X136693Y524977D01*
X138586Y527444D01*
X139776Y530317D01*
X140135Y533044D01*
X140244D01*
Y533756D01*
X140135D01*
X139776Y536483D01*
X138586Y539356D01*
X136693Y541823D01*
X134226Y543716D01*
X131353Y544906D01*
X128270Y545312D01*
D02*
G37*
G36*
X152000Y545145D02*
X150187Y544906D01*
X147314Y543716D01*
X144847Y541823D01*
X142954Y539356D01*
X141764Y536483D01*
X141525Y534670D01*
X152000D01*
Y545145D01*
D02*
G37*
G36*
X260350Y561340D02*
X254414D01*
X254498Y560702D01*
X255235Y558923D01*
X256406Y557396D01*
X257934Y556225D01*
X259712Y555488D01*
X260350Y555404D01*
Y561340D01*
D02*
G37*
G36*
Y569816D02*
X259712Y569732D01*
X257934Y568995D01*
X256406Y567824D01*
X255235Y566297D01*
X254498Y564518D01*
X254414Y563880D01*
X260350D01*
Y569816D01*
D02*
G37*
G36*
X262890D02*
Y563880D01*
X268826D01*
X268742Y564518D01*
X268005Y566297D01*
X266834Y567824D01*
X265306Y568995D01*
X263528Y569732D01*
X262890Y569816D01*
D02*
G37*
G36*
X435610Y568546D02*
Y562610D01*
X441546D01*
X441462Y563248D01*
X440725Y565027D01*
X439554Y566554D01*
X438027Y567725D01*
X436248Y568462D01*
X435610Y568546D01*
D02*
G37*
G36*
X268826Y561340D02*
X262890D01*
Y555404D01*
X263528Y555488D01*
X265306Y556225D01*
X266834Y557396D01*
X268005Y558923D01*
X268742Y560702D01*
X268826Y561340D01*
D02*
G37*
G36*
X433070Y568546D02*
X432432Y568462D01*
X430653Y567725D01*
X429126Y566554D01*
X427955Y565027D01*
X427218Y563248D01*
X427134Y562610D01*
X433070D01*
Y568546D01*
D02*
G37*
G36*
X165015Y532130D02*
X154540D01*
Y521655D01*
X156353Y521894D01*
X159226Y523084D01*
X161693Y524977D01*
X163586Y527444D01*
X164776Y530317D01*
X165015Y532130D01*
D02*
G37*
G36*
X370839Y502572D02*
X360799D01*
Y492532D01*
X370839D01*
Y502572D01*
D02*
G37*
G36*
X739259Y502503D02*
X737577Y502281D01*
X734826Y501142D01*
X732463Y499329D01*
X730650Y496966D01*
X729510Y494215D01*
X729289Y492532D01*
X739259D01*
Y502503D01*
D02*
G37*
G36*
X358259Y502572D02*
X348219D01*
Y492532D01*
X358259D01*
Y502572D01*
D02*
G37*
G36*
X739259Y489992D02*
X729289D01*
X729510Y488310D01*
X730650Y485559D01*
X732463Y483196D01*
X734826Y481383D01*
X737577Y480243D01*
X739259Y480022D01*
Y489992D01*
D02*
G37*
G36*
X751770D02*
X741799D01*
Y480022D01*
X743482Y480243D01*
X746233Y481383D01*
X748596Y483196D01*
X750408Y485559D01*
X751548Y488310D01*
X751770Y489992D01*
D02*
G37*
G36*
X741799Y502503D02*
Y492532D01*
X751770D01*
X751548Y494215D01*
X750408Y496966D01*
X748596Y499329D01*
X746233Y501142D01*
X743482Y502281D01*
X741799Y502503D01*
D02*
G37*
G36*
X787400Y523161D02*
Y514350D01*
X796210D01*
X796029Y515732D01*
X795005Y518204D01*
X793376Y520326D01*
X791254Y521955D01*
X788782Y522979D01*
X787400Y523161D01*
D02*
G37*
G36*
X152000Y532130D02*
X141525D01*
X141764Y530317D01*
X142954Y527444D01*
X144847Y524977D01*
X147314Y523084D01*
X150187Y521894D01*
X152000Y521655D01*
Y532130D01*
D02*
G37*
G36*
X784860Y523161D02*
X783478Y522979D01*
X781006Y521955D01*
X778884Y520326D01*
X777255Y518204D01*
X776232Y515732D01*
X776049Y514350D01*
X784860D01*
Y523161D01*
D02*
G37*
G36*
Y511810D02*
X776049D01*
X776232Y510428D01*
X777255Y507956D01*
X778884Y505834D01*
X781006Y504205D01*
X783478Y503181D01*
X784860Y502999D01*
Y511810D01*
D02*
G37*
G36*
X796210D02*
X787400D01*
Y502999D01*
X788782Y503181D01*
X791254Y504205D01*
X793376Y505834D01*
X795005Y507956D01*
X796029Y510428D01*
X796210Y511810D01*
D02*
G37*
G36*
X42840Y371290D02*
X39525Y370853D01*
X36435Y369574D01*
X33782Y367538D01*
X31746Y364885D01*
X30467Y361795D01*
X30030Y358480D01*
Y298110D01*
X30467Y294795D01*
X31746Y291705D01*
X33782Y289052D01*
X36435Y287017D01*
X39525Y285737D01*
X42840Y285300D01*
X46155Y285737D01*
X49245Y287017D01*
X51898Y289052D01*
X53933Y291705D01*
X55213Y294795D01*
X55649Y298110D01*
Y301550D01*
X56789Y302112D01*
X57649Y301451D01*
X59671Y300614D01*
X61840Y300328D01*
X64009Y300614D01*
X66031Y301451D01*
X67767Y302783D01*
X69099Y304519D01*
X69936Y306541D01*
X70222Y308710D01*
X69936Y310879D01*
X69099Y312901D01*
X67767Y314637D01*
X66031Y315969D01*
X64009Y316806D01*
X61840Y317092D01*
X59671Y316806D01*
X57649Y315969D01*
X56789Y315308D01*
X55649Y315870D01*
Y345550D01*
X56789Y346111D01*
X57649Y345451D01*
X59671Y344614D01*
X61840Y344328D01*
X64009Y344614D01*
X66031Y345451D01*
X67767Y346783D01*
X69099Y348519D01*
X69936Y350541D01*
X70222Y352710D01*
X69936Y354879D01*
X69099Y356901D01*
X67767Y358637D01*
X66031Y359969D01*
X64009Y360806D01*
X61840Y361091D01*
X59671Y360806D01*
X57649Y359969D01*
X56663Y359211D01*
X55489Y359697D01*
X55213Y361795D01*
X53933Y364885D01*
X51898Y367538D01*
X49245Y369574D01*
X46155Y370853D01*
X42840Y371290D01*
D02*
G37*
G36*
X524510Y353060D02*
X518574D01*
X518658Y352422D01*
X519395Y350644D01*
X520566Y349116D01*
X522094Y347945D01*
X523872Y347208D01*
X524510Y347124D01*
Y353060D01*
D02*
G37*
G36*
X793336Y349250D02*
X787400D01*
Y343314D01*
X788038Y343398D01*
X789817Y344135D01*
X791344Y345306D01*
X792515Y346833D01*
X793252Y348612D01*
X793336Y349250D01*
D02*
G37*
G36*
X560070Y337406D02*
Y331470D01*
X566006D01*
X565922Y332108D01*
X565185Y333886D01*
X564014Y335414D01*
X562486Y336585D01*
X560708Y337322D01*
X560070Y337406D01*
D02*
G37*
G36*
X784860Y349250D02*
X778924D01*
X779008Y348612D01*
X779745Y346833D01*
X780916Y345306D01*
X782443Y344135D01*
X784222Y343398D01*
X784860Y343314D01*
Y349250D01*
D02*
G37*
G36*
X532986Y353060D02*
X527050D01*
Y347124D01*
X527688Y347208D01*
X529467Y347945D01*
X530994Y349116D01*
X532165Y350644D01*
X532902Y352422D01*
X532986Y353060D01*
D02*
G37*
G36*
X427378Y358140D02*
X421442D01*
Y352204D01*
X422080Y352288D01*
X423858Y353025D01*
X425386Y354196D01*
X426557Y355723D01*
X427294Y357502D01*
X427378Y358140D01*
D02*
G37*
G36*
X524510Y361536D02*
X523872Y361452D01*
X522094Y360715D01*
X520566Y359544D01*
X519395Y358017D01*
X518658Y356238D01*
X518574Y355600D01*
X524510D01*
Y361536D01*
D02*
G37*
G36*
X418902Y358140D02*
X412966D01*
X413050Y357502D01*
X413787Y355723D01*
X414958Y354196D01*
X416485Y353025D01*
X418264Y352288D01*
X418902Y352204D01*
Y358140D01*
D02*
G37*
G36*
X784860Y357726D02*
X784222Y357642D01*
X782443Y356905D01*
X780916Y355734D01*
X779745Y354207D01*
X779008Y352428D01*
X778924Y351790D01*
X784860D01*
Y357726D01*
D02*
G37*
G36*
X787400D02*
Y351790D01*
X793336D01*
X793252Y352428D01*
X792515Y354207D01*
X791344Y355734D01*
X789817Y356905D01*
X788038Y357642D01*
X787400Y357726D01*
D02*
G37*
G36*
X566006Y328930D02*
X560070D01*
Y322994D01*
X560708Y323078D01*
X562486Y323815D01*
X564014Y324986D01*
X565185Y326513D01*
X565922Y328292D01*
X566006Y328930D01*
D02*
G37*
G36*
X706976Y309880D02*
X701040D01*
Y303944D01*
X701678Y304028D01*
X703456Y304765D01*
X704984Y305936D01*
X706155Y307463D01*
X706892Y309242D01*
X706976Y309880D01*
D02*
G37*
G36*
X194310Y317500D02*
X183583D01*
X183830Y315622D01*
X185046Y312688D01*
X186979Y310169D01*
X189498Y308236D01*
X192432Y307020D01*
X194310Y306773D01*
Y317500D01*
D02*
G37*
G36*
X698500Y309880D02*
X692564D01*
X692648Y309242D01*
X693385Y307463D01*
X694556Y305936D01*
X696084Y304765D01*
X697862Y304028D01*
X698500Y303944D01*
Y309880D01*
D02*
G37*
G36*
X523240Y308196D02*
X522602Y308112D01*
X520824Y307375D01*
X519296Y306204D01*
X518125Y304676D01*
X517388Y302898D01*
X517304Y302260D01*
X523240D01*
Y308196D01*
D02*
G37*
G36*
X525780D02*
Y302260D01*
X531716D01*
X531632Y302898D01*
X530895Y304676D01*
X529724Y306204D01*
X528196Y307375D01*
X526418Y308112D01*
X525780Y308196D01*
D02*
G37*
G36*
X579120Y309633D02*
X577212Y309382D01*
X575434Y308645D01*
X573907Y307474D01*
X572722Y307318D01*
X572646Y307375D01*
X570868Y308112D01*
X568960Y308363D01*
X567052Y308112D01*
X565274Y307375D01*
X563746Y306204D01*
X562575Y304676D01*
X561838Y302898D01*
X561587Y300990D01*
X561838Y299082D01*
X562575Y297304D01*
X563414Y296210D01*
X563721Y295751D01*
X563712Y295742D01*
X563742Y295668D01*
X563768Y295606D01*
Y295606D01*
X563781Y295588D01*
Y244157D01*
X563768Y244144D01*
X563768D01*
X563730Y244053D01*
X563712Y244009D01*
X563712D01*
X563714Y243989D01*
X563414Y243540D01*
X562575Y242446D01*
X561838Y240668D01*
X561587Y238760D01*
X561838Y236852D01*
X562575Y235074D01*
X563746Y233546D01*
X565274Y232375D01*
X567052Y231638D01*
X568960Y231387D01*
X570868Y231638D01*
X572646Y232375D01*
X574174Y233546D01*
X574197Y233577D01*
X575434Y232629D01*
X577212Y231892D01*
X579120Y231641D01*
X581028Y231892D01*
X582807Y232629D01*
X584334Y233800D01*
X585505Y235327D01*
X586242Y237106D01*
X586493Y239014D01*
X586242Y240922D01*
X585505Y242701D01*
X584639Y243829D01*
X584349Y244264D01*
X584344Y244267D01*
X584341Y244304D01*
X584341Y244304D01*
X584341D01*
X584322Y244348D01*
X584300Y244348D01*
X584300Y244348D01*
X583905Y246330D01*
X582783Y248011D01*
X578457Y252335D01*
Y287415D01*
X582783Y291740D01*
X583905Y293420D01*
X584300Y295402D01*
Y296863D01*
X584312Y296876D01*
X584313D01*
X584356Y296982D01*
X584369Y297012D01*
X584369Y297012D01*
X584369Y297012D01*
X584368Y297012D01*
X584359Y297021D01*
X584666Y297480D01*
X585505Y298573D01*
X586242Y300352D01*
X586493Y302260D01*
X586242Y304168D01*
X585505Y305947D01*
X584334Y307474D01*
X582807Y308645D01*
X581028Y309382D01*
X579120Y309633D01*
D02*
G37*
G36*
X680720Y346192D02*
X677637Y345786D01*
X674764Y344596D01*
X672297Y342703D01*
X670404Y340236D01*
X669214Y337363D01*
X668808Y334280D01*
X669214Y331197D01*
X670404Y328324D01*
X672297Y325857D01*
X674764Y323964D01*
X677637Y322774D01*
X680720Y322368D01*
X683803Y322774D01*
X686676Y323964D01*
X689143Y325857D01*
X691036Y328324D01*
X692226Y331197D01*
X692632Y334280D01*
X692226Y337363D01*
X691036Y340236D01*
X689143Y342703D01*
X686676Y344596D01*
X683803Y345786D01*
X680720Y346192D01*
D02*
G37*
G36*
X886460D02*
X883377Y345786D01*
X880504Y344596D01*
X878037Y342703D01*
X876144Y340236D01*
X874954Y337363D01*
X874548Y334280D01*
X874954Y331197D01*
X876144Y328324D01*
X878037Y325857D01*
X880504Y323964D01*
X883377Y322774D01*
X886460Y322368D01*
X889543Y322774D01*
X892416Y323964D01*
X894883Y325857D01*
X896776Y328324D01*
X897966Y331197D01*
X898372Y334280D01*
X897966Y337363D01*
X896776Y340236D01*
X894883Y342703D01*
X892416Y344596D01*
X889543Y345786D01*
X886460Y346192D01*
D02*
G37*
G36*
X431800Y352813D02*
X429892Y352562D01*
X428114Y351825D01*
X426586Y350654D01*
X425415Y349127D01*
X424678Y347348D01*
X424427Y345440D01*
X424678Y343532D01*
X425415Y341754D01*
X426254Y340660D01*
X426561Y340201D01*
X426586Y340226D01*
X426646Y340181D01*
X427601Y338751D01*
X427891Y337297D01*
Y320357D01*
X427878Y320344D01*
X427878D01*
X427840Y320253D01*
X427822Y320209D01*
X427822D01*
X427824Y320189D01*
X427524Y319740D01*
X426685Y318647D01*
X425948Y316868D01*
X425697Y314960D01*
X425948Y313052D01*
X426685Y311273D01*
X427856Y309746D01*
X429384Y308575D01*
X431162Y307838D01*
X433070Y307587D01*
X434978Y307838D01*
X436757Y308575D01*
X438284Y309746D01*
X439455Y311273D01*
X440192Y313052D01*
X440443Y314960D01*
X440192Y316868D01*
X439455Y318647D01*
X438616Y319740D01*
X438309Y320199D01*
X438318Y320209D01*
X438266Y320335D01*
X438262Y320344D01*
X438262D01*
D01*
D01*
Y320344D01*
X438250Y341909D01*
X438922Y343532D01*
X439173Y345440D01*
X438922Y347348D01*
X438185Y349127D01*
X437014Y350654D01*
X435486Y351825D01*
X433708Y352562D01*
X431800Y352813D01*
D02*
G37*
G36*
X698500Y318356D02*
X697862Y318272D01*
X696084Y317535D01*
X694556Y316364D01*
X693385Y314837D01*
X692648Y313058D01*
X692564Y312420D01*
X698500D01*
Y318356D01*
D02*
G37*
G36*
X701040D02*
Y312420D01*
X706976D01*
X706892Y313058D01*
X706155Y314837D01*
X704984Y316364D01*
X703456Y317535D01*
X701678Y318272D01*
X701040Y318356D01*
D02*
G37*
G36*
X527050Y361536D02*
Y355600D01*
X532986D01*
X532902Y356238D01*
X532165Y358017D01*
X530994Y359544D01*
X529467Y360715D01*
X527688Y361452D01*
X527050Y361536D01*
D02*
G37*
G36*
X196850Y432367D02*
Y421640D01*
X207577D01*
X207330Y423518D01*
X206114Y426452D01*
X204181Y428971D01*
X201662Y430904D01*
X198728Y432120D01*
X196850Y432367D01*
D02*
G37*
G36*
X947420Y429260D02*
X941484D01*
X941568Y428622D01*
X942305Y426843D01*
X943476Y425316D01*
X945004Y424145D01*
X946782Y423408D01*
X947420Y423324D01*
Y429260D01*
D02*
G37*
G36*
X194310Y432367D02*
X192432Y432120D01*
X189498Y430904D01*
X186979Y428971D01*
X185046Y426452D01*
X183830Y423518D01*
X183583Y421640D01*
X194310D01*
Y432367D01*
D02*
G37*
G36*
X386080Y426720D02*
X380144D01*
X380228Y426082D01*
X380965Y424304D01*
X382136Y422776D01*
X383663Y421605D01*
X385442Y420868D01*
X386080Y420784D01*
Y426720D01*
D02*
G37*
G36*
X394556D02*
X388620D01*
Y420784D01*
X389258Y420868D01*
X391036Y421605D01*
X392564Y422776D01*
X393735Y424304D01*
X394472Y426082D01*
X394556Y426720D01*
D02*
G37*
G36*
X955896Y429260D02*
X949960D01*
Y423324D01*
X950598Y423408D01*
X952376Y424145D01*
X953904Y425316D01*
X955075Y426843D01*
X955812Y428622D01*
X955896Y429260D01*
D02*
G37*
G36*
X64840Y468630D02*
X52181D01*
Y459900D01*
X52655Y456295D01*
X54047Y452935D01*
X56261Y450051D01*
X59145Y447837D01*
X62505Y446446D01*
X64840Y446138D01*
Y468630D01*
D02*
G37*
G36*
X80039D02*
X67380D01*
Y446138D01*
X69715Y446446D01*
X73075Y447837D01*
X75959Y450051D01*
X78173Y452935D01*
X79565Y456295D01*
X80039Y459900D01*
Y468630D01*
D02*
G37*
G36*
X949960Y437736D02*
Y431800D01*
X955896D01*
X955812Y432438D01*
X955075Y434216D01*
X953904Y435744D01*
X952376Y436915D01*
X950598Y437652D01*
X949960Y437736D01*
D02*
G37*
G36*
X386080Y435196D02*
X385442Y435112D01*
X383663Y434375D01*
X382136Y433204D01*
X380965Y431676D01*
X380228Y429898D01*
X380144Y429260D01*
X386080D01*
Y435196D01*
D02*
G37*
G36*
X947420Y437736D02*
X946782Y437652D01*
X945004Y436915D01*
X943476Y435744D01*
X942305Y434216D01*
X941568Y432438D01*
X941484Y431800D01*
X947420D01*
Y437736D01*
D02*
G37*
G36*
X116270Y432559D02*
X107540D01*
Y419900D01*
X130032D01*
X129725Y422235D01*
X128333Y425595D01*
X126119Y428479D01*
X123235Y430693D01*
X119875Y432085D01*
X116270Y432559D01*
D02*
G37*
G36*
X633316Y372110D02*
X627380D01*
Y366174D01*
X628018Y366258D01*
X629796Y366995D01*
X631324Y368166D01*
X632495Y369693D01*
X633232Y371472D01*
X633316Y372110D01*
D02*
G37*
G36*
X624840Y380586D02*
X624202Y380502D01*
X622424Y379765D01*
X620896Y378594D01*
X619725Y377066D01*
X618988Y375288D01*
X618904Y374650D01*
X624840D01*
Y380586D01*
D02*
G37*
G36*
Y372110D02*
X618904D01*
X618988Y371472D01*
X619725Y369693D01*
X620896Y368166D01*
X622424Y366995D01*
X624202Y366258D01*
X624840Y366174D01*
Y372110D01*
D02*
G37*
G36*
X418902Y366616D02*
X418264Y366532D01*
X416485Y365795D01*
X414958Y364624D01*
X413787Y363097D01*
X413050Y361318D01*
X412966Y360680D01*
X418902D01*
Y366616D01*
D02*
G37*
G36*
X421442D02*
Y360680D01*
X427378D01*
X427294Y361318D01*
X426557Y363097D01*
X425386Y364624D01*
X423858Y365795D01*
X422080Y366532D01*
X421442Y366616D01*
D02*
G37*
G36*
X627380Y380586D02*
Y374650D01*
X633316D01*
X633232Y375288D01*
X632495Y377066D01*
X631324Y378594D01*
X629796Y379765D01*
X628018Y380502D01*
X627380Y380586D01*
D02*
G37*
G36*
X207577Y419100D02*
X196850D01*
Y408373D01*
X198728Y408620D01*
X201662Y409836D01*
X204181Y411769D01*
X206114Y414288D01*
X207330Y417222D01*
X207577Y419100D01*
D02*
G37*
G36*
X105000Y432559D02*
X96270D01*
X92665Y432085D01*
X89305Y430693D01*
X86421Y428479D01*
X84207Y425595D01*
X82816Y422235D01*
X82508Y419900D01*
X105000D01*
Y432559D01*
D02*
G37*
G36*
X194310Y419100D02*
X183583D01*
X183830Y417222D01*
X185046Y414288D01*
X186979Y411769D01*
X189498Y409836D01*
X192432Y408620D01*
X194310Y408373D01*
Y419100D01*
D02*
G37*
G36*
X105000Y417360D02*
X82508D01*
X82816Y415025D01*
X84207Y411665D01*
X86421Y408781D01*
X89305Y406567D01*
X92665Y405175D01*
X96270Y404701D01*
X105000D01*
Y417360D01*
D02*
G37*
G36*
X130032D02*
X107540D01*
Y404701D01*
X116270D01*
X119875Y405175D01*
X123235Y406567D01*
X126119Y408781D01*
X128333Y411665D01*
X129725Y415025D01*
X130032Y417360D01*
D02*
G37*
%LPD*%
D10*
X362138Y488653D02*
G03*
X359529Y482354I6299J-6299D01*
G01*
X363935Y486857D02*
G03*
X359529Y476222I10635J-10635D01*
G01*
Y482354D02*
G03*
X356920Y488653I-8908J0D01*
G01*
X359529Y476222D02*
G03*
X355124Y486857I-15041J0D01*
G01*
X356920Y493872D02*
G03*
X359529Y500171I-6299J6299D01*
G01*
X355124Y495668D02*
G03*
X359529Y506303I-10635J10635D01*
G01*
Y500171D02*
G03*
X362138Y493872I8908J0D01*
G01*
X359529Y506303D02*
G03*
X363935Y495668I15041J0D01*
G01*
X307591Y42419D02*
G03*
X310200Y48718I-6299J6299D01*
G01*
X305795Y44215D02*
G03*
X310200Y54851I-10635J10635D01*
G01*
Y48718D02*
G03*
X312809Y42419I8908J0D01*
G01*
X310200Y54851D02*
G03*
X314605Y44215I15041J0D01*
G01*
X312809Y92201D02*
G03*
X309880Y85129I7072J-7072D01*
G01*
X314605Y90405D02*
G03*
X309880Y78997I11408J-11408D01*
G01*
Y86674D02*
G03*
X307591Y92201I-7816J0D01*
G01*
X309880Y80542D02*
G03*
X305795Y90405I-13948J0D01*
G01*
X561591Y42419D02*
G03*
X564200Y48718I-6299J6299D01*
G01*
X559795Y44215D02*
G03*
X564200Y54851I-10635J10635D01*
G01*
Y48718D02*
G03*
X566809Y42419I8908J0D01*
G01*
X564200Y54851D02*
G03*
X568605Y44215I15041J0D01*
G01*
X566809Y92201D02*
G03*
X563880Y85129I7072J-7072D01*
G01*
X568605Y90405D02*
G03*
X563880Y78997I11408J-11408D01*
G01*
Y86674D02*
G03*
X561591Y92201I-7816J0D01*
G01*
X563880Y80542D02*
G03*
X559795Y90405I-13948J0D01*
G01*
X434591Y42419D02*
G03*
X437200Y48718I-6299J6299D01*
G01*
X432795Y44215D02*
G03*
X437200Y54851I-10635J10635D01*
G01*
Y48718D02*
G03*
X439809Y42419I8908J0D01*
G01*
X437200Y54851D02*
G03*
X441605Y44215I15041J0D01*
G01*
X439809Y92201D02*
G03*
X436880Y85129I7072J-7072D01*
G01*
X441605Y90405D02*
G03*
X436880Y78997I11408J-11408D01*
G01*
Y86674D02*
G03*
X434591Y92201I-7816J0D01*
G01*
X436880Y80542D02*
G03*
X432795Y90405I-13948J0D01*
G01*
X504497Y200353D02*
G03*
X502920Y196546I3807J-3807D01*
G01*
D02*
G03*
X501343Y200353I-5384J0D01*
G01*
X514657Y245417D02*
G03*
X518464Y243840I3807J3807D01*
G01*
D02*
G03*
X514657Y242263I0J-5384D01*
G01*
X570537Y299413D02*
G03*
X568960Y295606I3807J-3807D01*
G01*
D02*
G03*
X567383Y299413I-5384J0D01*
G01*
X473403Y209243D02*
G03*
X469596Y210820I-3807J-3807D01*
G01*
D02*
G03*
X473403Y212397I0J5384D01*
G01*
X448617D02*
G03*
X452424Y210820I3807J3807D01*
G01*
D02*
G03*
X448617Y209243I0J-5384D01*
G01*
X577554Y240601D02*
G03*
X579120Y244348I-3697J3747D01*
G01*
D02*
G03*
X580686Y240601I5264J0D01*
G01*
X567383Y240337D02*
G03*
X568960Y244144I-3807J3807D01*
G01*
D02*
G03*
X570537Y240337I5384J0D01*
G01*
X580697Y300683D02*
G03*
X579120Y296876I3807J-3807D01*
G01*
D02*
G03*
X577543Y300683I-5384J0D01*
G01*
X431493Y316537D02*
G03*
X433070Y320344I-3807J3807D01*
G01*
D02*
G03*
X434647Y316537I5384J0D01*
G01*
X433070Y336990D02*
G03*
X430223Y343863I-9720J0D01*
G01*
X476557Y255577D02*
G03*
X483908Y252532I7351J7351D01*
G01*
X485447Y260657D02*
G03*
X489254Y259080I3807J3807D01*
G01*
D02*
G03*
X485447Y257503I0J-5384D01*
G01*
X532437Y277823D02*
G03*
X530860Y274016I3807J-3807D01*
G01*
D02*
G03*
X529283Y277823I-5384J0D01*
G01*
X521007D02*
G03*
X519430Y274016I3807J-3807D01*
G01*
D02*
G03*
X517853Y277823I-5384J0D01*
G01*
X483870Y259080D02*
X511810D01*
X519430Y266700D01*
Y279400D01*
X474980Y254000D02*
X476448Y252532D01*
X520502D01*
X530860Y262890D01*
Y279400D01*
X433070Y314960D02*
Y344170D01*
X431800Y345440D02*
X433070Y344170D01*
X477200Y99810D02*
X477520Y100130D01*
X350200Y99810D02*
X350520Y100130D01*
X579120Y295402D02*
Y302260D01*
X573278Y289560D02*
X579120Y295402D01*
X573278Y250190D02*
Y289560D01*
Y250190D02*
X579120Y244348D01*
Y238760D02*
Y239014D01*
Y244348D01*
X167640Y344170D02*
X195580D01*
X166370Y342900D02*
X167640Y344170D01*
X564200Y34810D02*
Y66990D01*
X563880Y67310D02*
X564200Y66990D01*
X563880Y67310D02*
Y99490D01*
X564200Y99810D01*
X437200Y34810D02*
Y66990D01*
X436880Y67310D02*
X437200Y66990D01*
X436880Y67310D02*
Y99490D01*
X437200Y99810D01*
X310200Y34810D02*
Y66990D01*
X309880Y67310D02*
X310200Y66990D01*
X309880Y67310D02*
Y99490D01*
X310200Y99810D01*
X153270Y505860D02*
Y533400D01*
X195580Y298450D02*
Y318770D01*
Y298450D02*
X203200Y290830D01*
X261620D01*
X195580Y420370D02*
Y458470D01*
X198120Y461010D01*
X447040Y210820D02*
X474980D01*
X476250D01*
X568960Y238760D02*
Y300990D01*
X513080Y243840D02*
X543560D01*
X502920Y180340D02*
Y201930D01*
X359529Y458589D02*
Y491262D01*
X358140Y457200D02*
X359529Y458589D01*
Y491262D02*
Y527169D01*
X367030Y534670D01*
X153270Y533400D02*
Y551580D01*
X152400Y552450D02*
X153270Y551580D01*
X740529Y491262D02*
Y534551D01*
X740410Y534670D02*
X740529Y534551D01*
D13*
X106270Y121060D02*
X160020Y67310D01*
X436880D02*
X563880D01*
X309880D02*
X436880D01*
X234440Y68070D02*
Y147320D01*
X233680Y67310D02*
X234440Y68070D01*
X160020Y67310D02*
X233680D01*
X309880D01*
X39370Y203200D02*
X106270D01*
Y121060D02*
Y203200D01*
Y418630D02*
Y488540D01*
X123190Y505460D01*
X106270Y203200D02*
Y418630D01*
X153270Y505860D02*
X153670Y505460D01*
X123190D02*
X153670D01*
X198120Y461010D02*
X204470D01*
X261620Y267970D02*
Y290830D01*
Y267970D02*
X313690Y215900D01*
X420370D01*
X455930Y180340D01*
X502920D01*
X420172Y216098D02*
X420370Y215900D01*
X358140Y457200D02*
X420172Y395168D01*
Y359410D02*
Y395168D01*
Y284480D02*
X433070D01*
X420172Y216098D02*
Y284480D01*
Y359410D01*
X764540Y534670D02*
X786130Y513080D01*
X655320Y275590D02*
X665480Y265430D01*
X626110Y373380D02*
X655320Y344170D01*
Y275590D02*
Y295910D01*
Y344170D01*
X699770Y265430D02*
Y311150D01*
X665480Y265430D02*
X699770D01*
X786130Y350520D02*
Y513080D01*
Y303530D02*
Y350520D01*
X699770Y265430D02*
X725170Y240030D01*
X797560D02*
X805180Y247650D01*
Y284480D01*
X786130Y303530D02*
X805180Y284480D01*
X725170Y240030D02*
X779780D01*
X797560D01*
X152400Y552450D02*
Y570230D01*
X170180Y588010D01*
X254000D01*
X261620Y580390D01*
X204470Y461010D02*
X260350D01*
X261620Y462280D01*
Y290830D02*
Y462280D01*
X42840Y298110D02*
Y358480D01*
X261620Y462280D02*
Y562610D01*
Y580390D01*
X367030Y534670D02*
X740410D01*
X764540D01*
D30*
X141749Y472109D02*
G03*
X150148Y468630I8399J8399D01*
G01*
D02*
G03*
X141749Y465151I0J-11878D01*
G01*
X518532Y222622D02*
G03*
X510232Y226060I-8300J-8300D01*
G01*
X710994Y24837D02*
G03*
X717550Y20320I6556J2499D01*
G01*
X711353Y24283D02*
G03*
X720920Y20320I9567J9567D01*
G01*
X407670Y431800D02*
X543560D01*
X384810Y454660D02*
X407670Y431800D01*
X384810Y454660D02*
Y491143D01*
X800100Y20320D02*
X923290D01*
X614680Y123190D02*
X652780Y85090D01*
X712470Y25400D01*
X401320Y123190D02*
X516890D01*
X166370Y254000D02*
Y342900D01*
Y254000D02*
X297180Y123190D01*
X401320D01*
X712470Y25400D02*
X717550Y20320D01*
X800100D01*
X458470Y226060D02*
X516890D01*
X519430Y223520D01*
X516890Y123190D02*
X543560D01*
X614680D01*
X543560D02*
Y243840D01*
Y321310D01*
Y431800D01*
X384810Y491143D02*
X384929Y491262D01*
X715129Y335161D02*
X754380Y295910D01*
X166370Y342900D02*
Y467360D01*
X138270Y468630D02*
X165100D01*
X166370Y467360D01*
X165100Y468630D02*
X219710Y523240D01*
X543560Y431800D02*
X694809D01*
X715129Y411480D01*
Y335161D02*
Y411480D01*
D37*
X195580Y420370D02*
D03*
X220980D02*
D03*
X195580Y394970D02*
D03*
X220980D02*
D03*
X195580Y369570D02*
D03*
X220980D02*
D03*
X195580Y344170D02*
D03*
X220980D02*
D03*
X195580Y318770D02*
D03*
D38*
X220980D02*
D03*
D39*
X680720Y334280D02*
D03*
Y285480D02*
D03*
X103270Y533400D02*
D03*
X128270D02*
D03*
X153270D02*
D03*
X886460Y285480D02*
D03*
Y334280D02*
D03*
D40*
X477200Y99810D02*
D03*
X437200D02*
D03*
X477200Y34810D02*
D03*
X604200Y99810D02*
D03*
X564200D02*
D03*
X604200Y34810D02*
D03*
X350200Y99810D02*
D03*
X310200D02*
D03*
X350200Y34810D02*
D03*
D41*
X437200D02*
D03*
X564200D02*
D03*
X310200D02*
D03*
D42*
X106270Y418630D02*
D03*
D43*
X138270Y468630D02*
D03*
D44*
X66110Y469900D02*
D03*
D45*
X32190Y147320D02*
D03*
X234440D02*
D03*
D46*
X728980Y62230D02*
D03*
Y36830D02*
D03*
X855980Y62230D02*
D03*
Y36830D02*
D03*
X982980Y62230D02*
D03*
Y36830D02*
D03*
D47*
X61840Y308710D02*
D03*
Y352710D02*
D03*
D48*
X1060000Y560000D02*
D03*
Y40000D02*
D03*
X40000Y560000D02*
D03*
Y40000D02*
D03*
D49*
X740529Y491262D02*
D03*
X715129D02*
D03*
X689729D02*
D03*
X664329D02*
D03*
X638929D02*
D03*
X613529D02*
D03*
X588129D02*
D03*
X562729D02*
D03*
X537329D02*
D03*
X511929D02*
D03*
X486529D02*
D03*
X461129D02*
D03*
X435729D02*
D03*
X410329D02*
D03*
X384929D02*
D03*
D50*
X359529D02*
D03*
D51*
X307340Y483870D02*
D03*
Y173990D02*
D03*
X1056640Y483870D02*
D03*
Y173990D02*
D03*
D52*
X519430Y279400D02*
D03*
X530860D02*
D03*
X483870Y259080D02*
D03*
X474980Y254000D02*
D03*
X431800Y345440D02*
D03*
X433070Y314960D02*
D03*
X579120Y302260D02*
D03*
X568960Y238760D02*
D03*
X579120Y239014D02*
D03*
X800100Y20320D02*
D03*
X712470Y25400D02*
D03*
X652780Y85090D02*
D03*
X516890Y123190D02*
D03*
X401320D02*
D03*
X204470Y461010D02*
D03*
X924560Y20320D02*
D03*
X447040Y210820D02*
D03*
X474980D02*
D03*
X568960Y300990D02*
D03*
X513080Y243840D02*
D03*
X502920Y201930D02*
D03*
X420172Y359410D02*
D03*
X433070Y284480D02*
D03*
X626110Y373380D02*
D03*
X655320Y295910D02*
D03*
X699770Y311150D02*
D03*
X786130Y350520D02*
D03*
X779780Y240030D02*
D03*
X261620Y562610D02*
D03*
Y269240D02*
D03*
X288290Y241300D02*
D03*
X85090Y22860D02*
D03*
X850900Y281940D02*
D03*
X911860Y46990D02*
D03*
X434340Y561340D02*
D03*
X948690Y430530D02*
D03*
X906780Y173990D02*
D03*
X133145Y94185D02*
D03*
X387350Y427990D02*
D03*
X637540Y163830D02*
D03*
X525780Y354330D02*
D03*
X524510Y300990D02*
D03*
X558800Y330200D02*
D03*
X778510Y41910D02*
D03*
D53*
X39370Y203200D02*
D03*
X106680Y254000D02*
D03*
X458470Y226060D02*
D03*
X519430Y223520D02*
D03*
X543560Y321310D02*
D03*
X786130Y513080D02*
D03*
X755210Y296350D02*
D03*
X219710Y523240D02*
D03*
X42840Y358480D02*
D03*
Y298110D02*
D03*
X715010Y391160D02*
D03*
M02*
