%FSLAX44Y44*%
%MOMM*%
G71*
G01*
G75*
G04 Layer_Physical_Order=1*
G04 Layer_Color=255*
%ADD10C,0.2540*%
%ADD11C,0.5080*%
%ADD12C,0.5842*%
%ADD13C,1.2700*%
%ADD14R,0.9000X1.0000*%
%ADD15R,1.0160X0.7620*%
%ADD16R,1.8000X1.3000*%
%ADD17R,1.1430X1.2700*%
%ADD18R,1.0000X1.0000*%
%ADD19R,1.0000X1.0000*%
%ADD20R,1.0000X0.9000*%
G04:AMPARAMS|DCode=21|XSize=2.8mm|YSize=0.5mm|CornerRadius=0.125mm|HoleSize=0mm|Usage=FLASHONLY|Rotation=180.000|XOffset=0mm|YOffset=0mm|HoleType=Round|Shape=RoundedRectangle|*
%AMROUNDEDRECTD21*
21,1,2.8000,0.2500,0,0,180.0*
21,1,2.5500,0.5000,0,0,180.0*
1,1,0.2500,-1.2750,0.1250*
1,1,0.2500,1.2750,0.1250*
1,1,0.2500,1.2750,-0.1250*
1,1,0.2500,-1.2750,-0.1250*
%
%ADD21ROUNDEDRECTD21*%
G04:AMPARAMS|DCode=22|XSize=3.5mm|YSize=2.05mm|CornerRadius=0.5125mm|HoleSize=0mm|Usage=FLASHONLY|Rotation=180.000|XOffset=0mm|YOffset=0mm|HoleType=Round|Shape=RoundedRectangle|*
%AMROUNDEDRECTD22*
21,1,3.5000,1.0250,0,0,180.0*
21,1,2.4750,2.0500,0,0,180.0*
1,1,1.0250,-1.2375,0.5125*
1,1,1.0250,1.2375,0.5125*
1,1,1.0250,1.2375,-0.5125*
1,1,1.0250,-1.2375,-0.5125*
%
%ADD22ROUNDEDRECTD22*%
G04:AMPARAMS|DCode=23|XSize=4mm|YSize=2.05mm|CornerRadius=0.5125mm|HoleSize=0mm|Usage=FLASHONLY|Rotation=180.000|XOffset=0mm|YOffset=0mm|HoleType=Round|Shape=RoundedRectangle|*
%AMROUNDEDRECTD23*
21,1,4.0000,1.0250,0,0,180.0*
21,1,2.9750,2.0500,0,0,180.0*
1,1,1.0250,-1.4875,0.5125*
1,1,1.0250,1.4875,0.5125*
1,1,1.0250,1.4875,-0.5125*
1,1,1.0250,-1.4875,-0.5125*
%
%ADD23ROUNDEDRECTD23*%
G04:AMPARAMS|DCode=24|XSize=3.5mm|YSize=2.05mm|CornerRadius=0.5125mm|HoleSize=0mm|Usage=FLASHONLY|Rotation=180.000|XOffset=0mm|YOffset=0mm|HoleType=Round|Shape=RoundedRectangle|*
%AMROUNDEDRECTD24*
21,1,3.5000,1.0250,0,0,180.0*
21,1,2.4750,2.0500,0,0,180.0*
1,1,1.0250,-1.2375,0.5125*
1,1,1.0250,1.2375,0.5125*
1,1,1.0250,1.2375,-0.5125*
1,1,1.0250,-1.2375,-0.5125*
%
%ADD24ROUNDEDRECTD24*%
%ADD25O,0.6000X1.9000*%
%ADD26O,1.9000X0.6000*%
%ADD27O,0.6000X2.0500*%
%ADD28O,2.0500X0.6000*%
%ADD29R,0.6000X0.8500*%
%ADD30C,1.0160*%
%ADD31C,0.7620*%
%ADD32C,0.3810*%
%ADD33R,2.5250X7.2000*%
%ADD34R,4.1500X2.0750*%
%ADD35R,2.7250X2.0750*%
%ADD36R,1.2250X7.2000*%
%ADD37C,1.6500*%
%ADD38R,1.6500X1.6500*%
%ADD39C,1.6000*%
%ADD40O,1.5000X2.5000*%
%ADD41R,1.5000X2.5000*%
%ADD42O,4.0000X2.0000*%
%ADD43O,2.0000X4.5000*%
%ADD44O,2.0000X4.0000*%
%ADD45C,2.0000*%
%ADD46C,1.7000*%
%ADD47C,0.9000*%
%ADD48C,6.0000*%
%ADD49C,1.5000*%
%ADD50R,1.5000X1.5000*%
%ADD51C,5.0000*%
%ADD52C,0.7000*%
%ADD53C,1.2700*%
G36*
X465834Y307108D02*
X467076Y306278D01*
X466590Y305104D01*
X465710Y305280D01*
X460930D01*
Y308910D01*
X443310D01*
Y291290D01*
Y285370D01*
X460930D01*
Y291290D01*
Y294921D01*
X463565D01*
X467378Y291108D01*
X469058Y289985D01*
X469621Y289873D01*
X470220Y288753D01*
X470135Y288548D01*
X470068Y288040D01*
X475712D01*
X476770Y287901D01*
X484020D01*
Y285639D01*
X476770D01*
X475712Y285500D01*
X470068D01*
X470135Y284992D01*
X470821Y283336D01*
X471255Y282770D01*
X470821Y282204D01*
X470135Y280548D01*
X469901Y278770D01*
X470135Y276992D01*
X470821Y275336D01*
X471913Y273913D01*
X472996Y273082D01*
X472588Y271880D01*
X431405D01*
X425550Y277735D01*
Y280297D01*
X426752Y280706D01*
X427856Y279266D01*
X429384Y278095D01*
X431162Y277358D01*
X431800Y277274D01*
Y284480D01*
Y291686D01*
X431162Y291602D01*
X429384Y290865D01*
X427856Y289694D01*
X426752Y288254D01*
X425550Y288663D01*
Y309880D01*
X425231Y311480D01*
X426447Y311848D01*
X426685Y311273D01*
X427856Y309746D01*
X429384Y308575D01*
X431162Y307838D01*
X433070Y307587D01*
X434978Y307838D01*
X436757Y308575D01*
X438284Y309746D01*
X439455Y311273D01*
X440192Y313052D01*
X440372Y314418D01*
X440409Y314606D01*
X458335D01*
X465834Y307108D01*
D02*
G37*
G36*
X533138Y315921D02*
X534855Y315210D01*
X536248Y314141D01*
X536305Y314055D01*
X536391Y313998D01*
X537460Y312605D01*
X538171Y310888D01*
X538381Y309300D01*
Y297180D01*
X538775Y295198D01*
X539897Y293517D01*
X540292Y293123D01*
X539806Y291950D01*
X511909D01*
Y301385D01*
X526655Y316131D01*
X531549D01*
X533138Y315921D01*
D02*
G37*
G36*
X874835Y288204D02*
X874702Y287534D01*
X874816Y287514D01*
X874798Y287377D01*
X874651Y286638D01*
X874681Y286488D01*
X874548Y285480D01*
X874954Y282397D01*
X876144Y279524D01*
X878037Y277057D01*
X879875Y275647D01*
X879466Y274444D01*
X855115D01*
X854707Y275647D01*
X856114Y276726D01*
X857285Y278253D01*
X858022Y280032D01*
X858106Y280670D01*
X843694D01*
X843778Y280032D01*
X844515Y278253D01*
X845686Y276726D01*
X847093Y275647D01*
X846685Y274444D01*
X830722D01*
X818069Y287098D01*
X818774Y288154D01*
X819132Y288005D01*
X820910Y287771D01*
X833910D01*
X835688Y288005D01*
X837344Y288692D01*
X838347Y289461D01*
X846717D01*
X847126Y288258D01*
X845686Y287154D01*
X844515Y285627D01*
X843778Y283848D01*
X843694Y283210D01*
X858106D01*
X858022Y283848D01*
X857285Y285627D01*
X856114Y287154D01*
X854674Y288258D01*
X855083Y289461D01*
X874585D01*
X874835Y288204D01*
D02*
G37*
G36*
X185320Y551180D02*
Y496570D01*
X185646Y494932D01*
X184841Y493950D01*
X175968D01*
X175968Y493950D01*
Y493950D01*
X175450Y493950D01*
X175260D01*
X175070D01*
X174552Y493950D01*
X174552Y493950D01*
Y493950D01*
X158450D01*
Y490320D01*
X156210D01*
X154228Y489925D01*
X152548Y488802D01*
X151582Y487837D01*
X150337Y488085D01*
X150333Y488095D01*
X148119Y490979D01*
X147233Y491659D01*
X147127Y491819D01*
X146340Y492345D01*
X146198Y492454D01*
X146263Y492546D01*
X145739Y492896D01*
X144953Y494072D01*
X144744Y495122D01*
Y495460D01*
X144252Y497938D01*
X142848Y500038D01*
X135388Y507498D01*
X133288Y508902D01*
X130810Y509394D01*
X115712D01*
X109744Y515362D01*
Y523482D01*
X111693Y524977D01*
X113586Y527444D01*
X114776Y530317D01*
X115135Y533044D01*
X116405D01*
X116764Y530317D01*
X117954Y527444D01*
X119847Y524977D01*
X122314Y523084D01*
X125187Y521894D01*
X128270Y521488D01*
X131353Y521894D01*
X134226Y523084D01*
X136693Y524977D01*
X138586Y527444D01*
X139776Y530317D01*
X140135Y533044D01*
X140244D01*
Y533756D01*
X140135D01*
X139776Y536483D01*
X138586Y539356D01*
X136693Y541823D01*
X134226Y543716D01*
X133449Y544038D01*
Y564275D01*
X140575Y571400D01*
X185320D01*
Y551180D01*
D02*
G37*
G36*
X545586Y362571D02*
X547242Y361885D01*
X549020Y361651D01*
X550798Y361885D01*
X552454Y362571D01*
X553020Y363005D01*
X553586Y362571D01*
X555242Y361885D01*
X557020Y361651D01*
X558798Y361885D01*
X560454Y362571D01*
X561020Y363005D01*
X561586Y362571D01*
X563242Y361885D01*
X563708Y361824D01*
X564116Y360621D01*
X539897Y336403D01*
X538809Y334774D01*
X538612Y334754D01*
X537150Y335045D01*
X526316Y345879D01*
X526725Y347081D01*
X527688Y347208D01*
X529467Y347945D01*
X530994Y349116D01*
X532165Y350644D01*
X532902Y352422D01*
X532986Y353060D01*
X525780D01*
Y355600D01*
X532986D01*
X532902Y356238D01*
X532165Y358017D01*
X530994Y359544D01*
X529467Y360715D01*
X528253Y361218D01*
Y362158D01*
X529392Y362720D01*
X529586Y362571D01*
X531242Y361885D01*
X533020Y361651D01*
X534798Y361885D01*
X536454Y362571D01*
X537020Y363005D01*
X537586Y362571D01*
X539242Y361885D01*
X541020Y361651D01*
X542798Y361885D01*
X544454Y362571D01*
X545020Y363005D01*
X545586Y362571D01*
D02*
G37*
G36*
X560070Y322994D02*
X560708Y323078D01*
X562486Y323815D01*
X562641Y323934D01*
X563781Y323372D01*
Y306387D01*
X563768Y306374D01*
X563768D01*
X563730Y306283D01*
X563712Y306238D01*
X563712D01*
X563714Y306219D01*
X563414Y305770D01*
X562575Y304676D01*
X561838Y302898D01*
X561587Y300990D01*
X561838Y299082D01*
X562147Y298335D01*
X561442Y297279D01*
X550785D01*
X548740Y299325D01*
Y309300D01*
X548949Y310888D01*
X549660Y312605D01*
X550741Y314013D01*
X550806Y314064D01*
X550815Y314055D01*
X550914Y314204D01*
X552435Y316186D01*
X553459Y318658D01*
X553808Y321310D01*
X553511Y323566D01*
X554611Y324201D01*
X555113Y323815D01*
X556892Y323078D01*
X557530Y322994D01*
Y330200D01*
X560070D01*
Y322994D01*
D02*
G37*
G36*
X494110Y232396D02*
Y223980D01*
Y218060D01*
X502920D01*
Y215520D01*
X494110D01*
Y207980D01*
X496913D01*
X497474Y206841D01*
X496535Y205616D01*
X495798Y203838D01*
X495714Y203200D01*
X510126D01*
X510042Y203838D01*
X509305Y205616D01*
X508366Y206841D01*
X508927Y207980D01*
X511730D01*
Y215186D01*
X512869Y215748D01*
X514306Y214645D01*
X516778Y213622D01*
X519430Y213272D01*
X519756Y213315D01*
X519915Y213284D01*
X520322Y213365D01*
X520411Y213299D01*
Y213299D01*
X520764Y213369D01*
X522201Y213083D01*
X523228Y212397D01*
X523274Y212351D01*
X523372Y212223D01*
X523387Y212238D01*
X523387Y212237D01*
X524210Y211688D01*
Y207090D01*
X549896D01*
X550382Y205917D01*
X540145Y195679D01*
X508774D01*
X508212Y196819D01*
X509305Y198244D01*
X510042Y200022D01*
X510126Y200660D01*
X495714D01*
X495798Y200022D01*
X496458Y198428D01*
X495402Y197723D01*
X482458Y210685D01*
X482406Y210812D01*
X482402Y210820D01*
X482402D01*
X482402Y210820D01*
X482402Y210820D01*
X482389D01*
X482282Y211362D01*
X482102Y212728D01*
X481365Y214506D01*
X480194Y216034D01*
X478667Y217205D01*
X478433Y218378D01*
X492937Y232882D01*
X494110Y232396D01*
D02*
G37*
G36*
X966975Y70910D02*
X966975Y70910D01*
X966968Y70903D01*
X967044Y70841D01*
X967395Y70490D01*
X968994Y68407D01*
X970228Y65427D01*
X970606Y62552D01*
X970564Y62230D01*
X970987Y59016D01*
X972227Y56022D01*
X974200Y53450D01*
X976772Y51477D01*
X979766Y50237D01*
X980312Y50165D01*
Y48895D01*
X979766Y48823D01*
X976772Y47583D01*
X974200Y45610D01*
X974024Y45380D01*
X973937Y45321D01*
X973800Y45117D01*
X973753Y45111D01*
X973753D01*
X973316Y44541D01*
X970567Y42432D01*
X967366Y41106D01*
X965902Y40913D01*
X960362Y46452D01*
X958682Y47575D01*
X956700Y47969D01*
X951150D01*
Y51100D01*
X933530D01*
Y34998D01*
X933530Y34998D01*
X933530D01*
X933530Y34480D01*
Y34290D01*
Y34100D01*
X933530Y33582D01*
X933530Y33582D01*
X933530D01*
Y30970D01*
X930030D01*
X930030Y30970D01*
X928048Y30575D01*
X926367Y29453D01*
X926367Y29452D01*
X924705Y27789D01*
X924696Y27797D01*
X924695Y27799D01*
D01*
X924695D01*
X924695D01*
X924591Y27755D01*
X924560Y27743D01*
X924560D01*
X924555Y27728D01*
X924018Y27622D01*
X922652Y27442D01*
X920873Y26705D01*
X919346Y25534D01*
X918175Y24007D01*
X917438Y22228D01*
X917187Y20320D01*
X917438Y18412D01*
X918175Y16633D01*
X919346Y15106D01*
X920753Y14027D01*
X920345Y12824D01*
X804315D01*
X803907Y14027D01*
X805314Y15106D01*
X806485Y16633D01*
X806836Y17480D01*
X824150D01*
Y33582D01*
X824150Y33582D01*
X824150D01*
X824150Y34100D01*
Y34290D01*
Y34480D01*
X824150Y34998D01*
X824150Y34998D01*
X824150D01*
Y36816D01*
X825323Y37302D01*
X830727Y31897D01*
X832408Y30775D01*
X834390Y30380D01*
X841591D01*
Y30380D01*
X841600Y30380D01*
X841901D01*
X843657Y30149D01*
X845581Y29352D01*
X847090Y28195D01*
X847200Y28050D01*
X849772Y26077D01*
X852766Y24837D01*
X855980Y24414D01*
X859194Y24837D01*
X862188Y26077D01*
X864760Y28050D01*
X866733Y30622D01*
X867973Y33616D01*
X868396Y36830D01*
X867973Y40044D01*
X866733Y43038D01*
X864760Y45610D01*
X862188Y47583D01*
X859194Y48823D01*
X858648Y48895D01*
Y50165D01*
X859194Y50237D01*
X862188Y51477D01*
X864760Y53450D01*
X866733Y56022D01*
X867973Y59016D01*
X868396Y62230D01*
X867973Y65444D01*
X866733Y68438D01*
X864760Y71010D01*
X864658Y71088D01*
X865066Y72291D01*
X965595D01*
X966975Y70910D01*
D02*
G37*
G36*
X14753Y186203D02*
X16433Y185080D01*
X18415Y184685D01*
X27287D01*
X28093Y183704D01*
X28035Y183414D01*
Y162665D01*
X28331Y161178D01*
X26329Y159840D01*
X25225Y159383D01*
X22341Y157169D01*
X20127Y154285D01*
X18735Y150925D01*
X18271Y147398D01*
X18256Y147320D01*
X18261D01*
X18307Y146972D01*
X17956Y144309D01*
X16794Y141504D01*
X15397Y139684D01*
X9392Y133678D01*
X7988Y131578D01*
X7496Y129100D01*
Y105410D01*
X7988Y102932D01*
X9392Y100832D01*
X18282Y91942D01*
X20382Y90538D01*
X22860Y90046D01*
X41768D01*
X125720Y6094D01*
X125234Y4920D01*
X41373D01*
X41323Y6190D01*
X45305Y6503D01*
X50480Y7745D01*
X55397Y9782D01*
X59934Y12563D01*
X63981Y16019D01*
X67437Y20066D01*
X70218Y24603D01*
X72255Y29520D01*
X73497Y34695D01*
X73914Y40000D01*
X73497Y45305D01*
X72255Y50480D01*
X70218Y55397D01*
X67437Y59934D01*
X63981Y63981D01*
X59934Y67437D01*
X55397Y70218D01*
X50480Y72255D01*
X45305Y73497D01*
X40000Y73914D01*
X34695Y73497D01*
X29520Y72255D01*
X24603Y70218D01*
X20066Y67437D01*
X16019Y63981D01*
X12563Y59934D01*
X9782Y55397D01*
X7745Y50480D01*
X6503Y45305D01*
X6190Y41323D01*
X4920Y41373D01*
Y194375D01*
X6094Y194861D01*
X14753Y186203D01*
D02*
G37*
G36*
X110500Y287030D02*
X112357Y285605D01*
X113665Y285063D01*
Y265430D01*
X132715D01*
Y284403D01*
X136525D01*
Y276860D01*
X155575D01*
Y284403D01*
X158846D01*
X223530Y219720D01*
X225387Y218295D01*
X227549Y217399D01*
X229870Y217093D01*
X296200D01*
X296325Y215829D01*
X295198Y215605D01*
X293517Y214482D01*
X274080Y195044D01*
X47354D01*
X46792Y196184D01*
X48245Y198076D01*
X49268Y200548D01*
X49450Y201930D01*
X29290D01*
X29471Y200548D01*
X30495Y198076D01*
X31948Y196184D01*
X31386Y195044D01*
X20560D01*
X12800Y202805D01*
Y215220D01*
X24130D01*
Y225530D01*
Y235840D01*
X12800D01*
Y241680D01*
X68690D01*
Y264542D01*
X69746Y265248D01*
X69970Y265155D01*
X72965Y264761D01*
X97715D01*
X100711Y265155D01*
X103502Y266311D01*
X105899Y268151D01*
X107739Y270548D01*
X108895Y273339D01*
X109289Y276335D01*
Y286581D01*
X110463Y287067D01*
X110500Y287030D01*
D02*
G37*
G36*
X723801Y130178D02*
Y79685D01*
X723791D01*
X723801Y79588D01*
Y79091D01*
X723458Y76487D01*
X722224Y73508D01*
X720459Y71208D01*
X720200Y71010D01*
X718227Y68438D01*
X716987Y65444D01*
X716564Y62230D01*
X716987Y59016D01*
X718227Y56022D01*
X720200Y53450D01*
X722772Y51477D01*
X725766Y50237D01*
X726312Y50165D01*
Y48895D01*
X725766Y48823D01*
X722772Y47583D01*
X720200Y45610D01*
X720002Y45352D01*
X717702Y43586D01*
X714723Y42352D01*
X712119Y42010D01*
X711622D01*
X711525Y42019D01*
Y42010D01*
X709535D01*
X705092Y46452D01*
X703412Y47575D01*
X701430Y47969D01*
X697150D01*
Y51100D01*
X679530D01*
Y34480D01*
X679530D01*
X679530Y34100D01*
X679530D01*
Y17480D01*
X697150D01*
Y20610D01*
X706378D01*
X707189Y20275D01*
X707256Y20186D01*
X707231Y20161D01*
X707690Y19854D01*
X708783Y19015D01*
X710562Y18278D01*
X712470Y18027D01*
X714378Y18278D01*
X716156Y19015D01*
X717684Y20186D01*
X718855Y21714D01*
X719592Y23492D01*
X719843Y25400D01*
X719631Y27008D01*
X720731Y27643D01*
X722772Y26077D01*
X725766Y24837D01*
X728980Y24414D01*
X732194Y24837D01*
X735188Y26077D01*
X737760Y28050D01*
X739733Y30622D01*
X740973Y33616D01*
X741396Y36830D01*
X740973Y40044D01*
X739733Y43038D01*
X737760Y45610D01*
X735188Y47583D01*
X732194Y48823D01*
X731648Y48895D01*
Y50165D01*
X732194Y50237D01*
X735188Y51477D01*
X737760Y53450D01*
X739733Y56022D01*
X740973Y59016D01*
X741396Y62230D01*
X740973Y65444D01*
X739733Y68438D01*
X737760Y71010D01*
X737502Y71208D01*
X735736Y73508D01*
X734502Y76487D01*
X734159Y79091D01*
Y79588D01*
X734169Y79685D01*
X734159D01*
Y124266D01*
X735333Y124752D01*
X801517Y58568D01*
X801517Y58568D01*
X802525Y57895D01*
X803198Y57445D01*
X805180Y57050D01*
X838525D01*
Y57041D01*
X838622Y57050D01*
X839119D01*
X841723Y56708D01*
X844702Y55474D01*
X847002Y53709D01*
X847200Y53450D01*
X849772Y51477D01*
X852766Y50237D01*
X853312Y50165D01*
Y48895D01*
X852766Y48823D01*
X849772Y47583D01*
X847200Y45610D01*
X847042Y45403D01*
X844717Y43495D01*
X841836Y41955D01*
X838710Y41007D01*
X836487Y40788D01*
X830823Y46452D01*
X829142Y47575D01*
X827160Y47969D01*
X824150D01*
Y51100D01*
X806530D01*
Y34998D01*
X806530Y34998D01*
X806530D01*
X806530Y34480D01*
Y34290D01*
Y34100D01*
X806530Y33582D01*
X806530Y33582D01*
X806530D01*
Y31868D01*
X805632Y30970D01*
X805570D01*
X805570Y30970D01*
Y30970D01*
X803588Y30575D01*
X801908Y29453D01*
X801908Y29452D01*
X800245Y27789D01*
X800236Y27797D01*
X800235Y27799D01*
D01*
X800235D01*
X800235D01*
X800131Y27755D01*
X800100Y27743D01*
X800100D01*
X800095Y27728D01*
X799558Y27622D01*
X798192Y27442D01*
X796413Y26705D01*
X794886Y25534D01*
X793715Y24007D01*
X792978Y22228D01*
X792727Y20320D01*
X792978Y18412D01*
X793715Y16633D01*
X794886Y15106D01*
X796293Y14027D01*
X795885Y12824D01*
X137302D01*
X49028Y101098D01*
X46928Y102502D01*
X44450Y102994D01*
X25542D01*
X20444Y108092D01*
Y126418D01*
X24554Y130527D01*
X26374Y131924D01*
X27020Y132192D01*
X28076Y131486D01*
Y111225D01*
X28372Y109739D01*
X29214Y108479D01*
X30474Y107636D01*
X31960Y107341D01*
X59211D01*
X60697Y107636D01*
X61957Y108479D01*
X62799Y109739D01*
X63095Y111225D01*
Y131975D01*
X63052Y132195D01*
Y162649D01*
X63055Y162665D01*
Y183414D01*
X62997Y183704D01*
X63803Y184685D01*
X189826D01*
X190632Y183704D01*
X190555Y183320D01*
Y132528D01*
X190460Y132052D01*
Y111302D01*
X190756Y109815D01*
X191598Y108555D01*
X192859Y107713D01*
X194345Y107417D01*
X235845D01*
X237332Y107713D01*
X238592Y108555D01*
X239434Y109815D01*
X239730Y111302D01*
Y132052D01*
X239434Y133538D01*
X239747Y134570D01*
X241405Y135257D01*
X244289Y137471D01*
X246503Y140355D01*
X247895Y143715D01*
X248202Y146050D01*
X234440D01*
Y148590D01*
X248202D01*
X247895Y150925D01*
X246503Y154285D01*
X244289Y157169D01*
X241405Y159383D01*
X239964Y159980D01*
X239623Y161102D01*
X239919Y162588D01*
Y183338D01*
X239846Y183704D01*
X240652Y184685D01*
X276225D01*
X278207Y185080D01*
X279888Y186203D01*
X280826Y185264D01*
X279855Y182920D01*
X278797Y178511D01*
X278441Y173990D01*
X278797Y169469D01*
X279855Y165060D01*
X281591Y160870D01*
X283960Y157003D01*
X286905Y153555D01*
X290354Y150610D01*
X294220Y148241D01*
X298410Y146505D01*
X302819Y145447D01*
X307340Y145091D01*
X311861Y145447D01*
X316270Y146505D01*
X320460Y148241D01*
X324327Y150610D01*
X327775Y153555D01*
X330720Y157003D01*
X333089Y160870D01*
X334825Y165060D01*
X335883Y169469D01*
X336239Y173990D01*
X335883Y178511D01*
X334825Y182920D01*
X333089Y187110D01*
X330720Y190977D01*
X327775Y194425D01*
X324327Y197370D01*
X320460Y199739D01*
X316270Y201475D01*
X311861Y202533D01*
X307340Y202889D01*
X302819Y202533D01*
X298410Y201475D01*
X295869Y200422D01*
X295163Y201478D01*
X299325Y205641D01*
X441643D01*
X441656Y205628D01*
Y205627D01*
X441724Y205599D01*
X441791Y205571D01*
D01*
X441888Y205522D01*
X442260Y205274D01*
X443354Y204435D01*
X445132Y203698D01*
X447040Y203447D01*
X447168Y203464D01*
X447730Y202325D01*
X376315Y130910D01*
X356870D01*
X354888Y130515D01*
X353208Y129392D01*
X346538Y122723D01*
X345415Y121042D01*
X345020Y119060D01*
Y118745D01*
X344788Y116978D01*
X343984Y115038D01*
X342706Y113372D01*
X342457Y113181D01*
Y113181D01*
X342452Y113143D01*
X342307Y113046D01*
X342257Y112971D01*
X342134Y112876D01*
X340321Y110514D01*
X339181Y107762D01*
X338792Y104810D01*
Y94810D01*
X339181Y91858D01*
X340321Y89106D01*
X342116Y86767D01*
X342132Y86742D01*
X342134Y86744D01*
X342302Y86614D01*
X343749Y84729D01*
X344740Y82337D01*
X345020Y80205D01*
Y66040D01*
Y54415D01*
X344740Y52284D01*
X343749Y49891D01*
X342302Y48006D01*
X342134Y47876D01*
X342132Y47878D01*
X342116Y47853D01*
X340321Y45514D01*
X339181Y42762D01*
X338792Y39810D01*
Y29810D01*
X339181Y26858D01*
X340321Y24106D01*
X342134Y21744D01*
X344496Y19931D01*
X347248Y18791D01*
X350200Y18402D01*
X353153Y18791D01*
X355904Y19931D01*
X358266Y21744D01*
X360079Y24106D01*
X361219Y26858D01*
X361608Y29810D01*
Y39810D01*
X361219Y42762D01*
X360079Y45514D01*
X358284Y47853D01*
X358268Y47878D01*
X358266Y47876D01*
X358098Y48006D01*
X356651Y49891D01*
X355660Y52284D01*
X355379Y54415D01*
Y60861D01*
X367821D01*
Y43100D01*
X364190D01*
Y25480D01*
X387730D01*
Y34290D01*
Y43100D01*
X378180D01*
Y66040D01*
Y90250D01*
X380292D01*
X380292Y90250D01*
Y90250D01*
X380810Y90250D01*
X381000D01*
X381190D01*
X381708Y90250D01*
X381708Y90250D01*
Y90250D01*
X397810D01*
Y93940D01*
X399492Y94275D01*
X401172Y95398D01*
X404982Y99207D01*
X406105Y100888D01*
X406499Y102870D01*
Y117793D01*
X406512Y117806D01*
X406512D01*
X406557Y117913D01*
X406568Y117942D01*
X406568Y117942D01*
X406568Y117942D01*
X406568Y117942D01*
X406559Y117951D01*
X406866Y118410D01*
X407705Y119503D01*
X408442Y121282D01*
X408693Y123190D01*
X408442Y125098D01*
X407705Y126876D01*
X406534Y128404D01*
X405006Y129575D01*
X403228Y130312D01*
X401320Y130563D01*
X399412Y130312D01*
X397634Y129575D01*
X396106Y128404D01*
X394935Y126876D01*
X394198Y125098D01*
X393947Y123190D01*
X394198Y121282D01*
X394935Y119503D01*
X395774Y118410D01*
X396081Y117951D01*
X396072Y117942D01*
X396102Y117868D01*
X396128Y117806D01*
Y117806D01*
X396141Y117788D01*
Y107870D01*
X381708D01*
X381708Y107870D01*
Y107870D01*
X381190Y107870D01*
X381000D01*
X380810D01*
X380292Y107870D01*
X380292Y107870D01*
Y107870D01*
X364190D01*
Y90250D01*
X367821D01*
Y71220D01*
X355379D01*
Y80205D01*
X355660Y82337D01*
X356651Y84729D01*
X358098Y86614D01*
X358266Y86744D01*
X358268Y86742D01*
X358284Y86767D01*
X360079Y89106D01*
X361219Y91858D01*
X361608Y94810D01*
Y104810D01*
X361219Y107762D01*
X360079Y110514D01*
X358266Y112876D01*
X358143Y112971D01*
X358093Y113046D01*
X357948Y113143D01*
X357943Y113181D01*
Y113181D01*
X357694Y113372D01*
X356416Y115038D01*
X355612Y116978D01*
X355592Y117128D01*
X359015Y120550D01*
X378460D01*
X380442Y120945D01*
X382122Y122067D01*
X467422Y207367D01*
X468595Y207133D01*
X469766Y205606D01*
X471293Y204435D01*
X473072Y203698D01*
X474438Y203518D01*
X474980Y203410D01*
X474980Y203398D01*
X475048Y203370D01*
X475115Y203342D01*
D01*
X475115Y203342D01*
X491637Y186838D01*
X491637Y186838D01*
X493318Y185715D01*
X495300Y185320D01*
X542290D01*
X544272Y185715D01*
X545952Y186838D01*
X562607Y203492D01*
X563781Y203006D01*
Y144385D01*
X559195Y139799D01*
X492760D01*
X490778Y139405D01*
X489098Y138282D01*
X473537Y122723D01*
X472415Y121042D01*
X472020Y119060D01*
Y118745D01*
X471788Y116978D01*
X470984Y115038D01*
X469706Y113372D01*
X469457Y113181D01*
Y113181D01*
X469452Y113143D01*
X469307Y113046D01*
X469257Y112971D01*
X469134Y112876D01*
X467321Y110514D01*
X466181Y107762D01*
X465792Y104810D01*
Y94810D01*
X466181Y91858D01*
X467321Y89106D01*
X469116Y86767D01*
X469132Y86742D01*
X469134Y86744D01*
X469302Y86614D01*
X470749Y84729D01*
X471740Y82337D01*
X472020Y80205D01*
Y66040D01*
Y54415D01*
X471740Y52284D01*
X470749Y49891D01*
X469302Y48006D01*
X469134Y47876D01*
X469132Y47878D01*
X469116Y47853D01*
X467321Y45514D01*
X466181Y42762D01*
X465792Y39810D01*
Y29810D01*
X466181Y26858D01*
X467321Y24106D01*
X469134Y21744D01*
X471496Y19931D01*
X474248Y18791D01*
X477200Y18402D01*
X480153Y18791D01*
X482904Y19931D01*
X485266Y21744D01*
X487079Y24106D01*
X488219Y26858D01*
X488608Y29810D01*
Y39810D01*
X488219Y42762D01*
X487079Y45514D01*
X485284Y47853D01*
X485268Y47878D01*
X485266Y47876D01*
X485098Y48006D01*
X483651Y49891D01*
X482660Y52284D01*
X482379Y54415D01*
Y60861D01*
X494320D01*
Y43100D01*
X491190D01*
Y25480D01*
X514730D01*
Y34290D01*
Y43100D01*
X504679D01*
Y66040D01*
Y90250D01*
X507810D01*
Y90250D01*
X508190Y90250D01*
Y90250D01*
X524810D01*
Y107870D01*
X521679D01*
Y117098D01*
X522015Y117908D01*
X522104Y117976D01*
X522129Y117951D01*
X522436Y118410D01*
X523275Y119503D01*
X524012Y121282D01*
X524263Y123190D01*
X524012Y125098D01*
X523275Y126876D01*
X522182Y128301D01*
X522744Y129440D01*
X561340D01*
X563322Y129835D01*
X565003Y130957D01*
X570865Y136820D01*
X576727Y130957D01*
X578408Y129835D01*
X580390Y129440D01*
X593485D01*
X599021Y123905D01*
Y119415D01*
X598740Y117283D01*
X597749Y114891D01*
X596302Y113006D01*
X596134Y112876D01*
X596132Y112878D01*
X596116Y112853D01*
X594321Y110514D01*
X593181Y107762D01*
X592792Y104810D01*
Y94810D01*
X593181Y91858D01*
X594321Y89106D01*
X596116Y86767D01*
X596132Y86742D01*
X596134Y86744D01*
X596302Y86614D01*
X597749Y84729D01*
X598740Y82337D01*
X599021Y80205D01*
Y64770D01*
Y54415D01*
X598740Y52284D01*
X597749Y49891D01*
X596302Y48006D01*
X596134Y47876D01*
X596132Y47878D01*
X596116Y47853D01*
X594321Y45514D01*
X593181Y42762D01*
X592792Y39810D01*
Y29810D01*
X593181Y26858D01*
X594321Y24106D01*
X596134Y21744D01*
X598496Y19931D01*
X601247Y18791D01*
X604200Y18402D01*
X607152Y18791D01*
X609904Y19931D01*
X612266Y21744D01*
X614079Y24106D01*
X615219Y26858D01*
X615608Y29810D01*
Y39810D01*
X615219Y42762D01*
X614079Y45514D01*
X612284Y47853D01*
X612268Y47878D01*
X612266Y47876D01*
X612098Y48006D01*
X610651Y49891D01*
X609660Y52284D01*
X609380Y54415D01*
Y59591D01*
X621320D01*
Y43100D01*
X618190D01*
Y25480D01*
X641730D01*
Y34290D01*
Y43100D01*
X631679D01*
Y64770D01*
Y90250D01*
X634292D01*
X634292Y90250D01*
Y90250D01*
X634810Y90250D01*
X635000D01*
X635190D01*
X635708Y90250D01*
X635708Y90250D01*
Y90250D01*
X638321D01*
Y88020D01*
X638715Y86038D01*
X639837Y84358D01*
X642767Y81427D01*
X644448Y80305D01*
X646430Y79910D01*
X646430Y79910D01*
X647383D01*
X647396Y79898D01*
Y79897D01*
X647464Y79869D01*
X647532Y79841D01*
D01*
X647628Y79792D01*
X648000Y79544D01*
X649093Y78705D01*
X650872Y77968D01*
X652780Y77717D01*
X654688Y77968D01*
X656467Y78705D01*
X657994Y79876D01*
X659165Y81404D01*
X659902Y83182D01*
X660153Y85090D01*
X659902Y86998D01*
X659165Y88777D01*
X657994Y90304D01*
X656467Y91475D01*
X654688Y92212D01*
X652780Y92463D01*
X652765Y92461D01*
X651810Y93298D01*
Y107870D01*
X635708D01*
X635708Y107870D01*
Y107870D01*
X635190Y107870D01*
X635000D01*
X634810D01*
X634292Y107870D01*
X634292Y107870D01*
Y107870D01*
X618190D01*
Y90250D01*
X621320D01*
Y69949D01*
X609380D01*
Y80205D01*
X609660Y82337D01*
X610651Y84729D01*
X612098Y86614D01*
X612266Y86744D01*
X612268Y86742D01*
X612284Y86767D01*
X614079Y89106D01*
X615219Y91858D01*
X615608Y94810D01*
Y104810D01*
X615219Y107762D01*
X614079Y110514D01*
X612284Y112853D01*
X612268Y112878D01*
X612266Y112876D01*
X612098Y113006D01*
X610651Y114891D01*
X609660Y117283D01*
X609380Y119415D01*
Y126050D01*
X608985Y128032D01*
X607863Y129712D01*
X599292Y138282D01*
X597612Y139405D01*
X595630Y139799D01*
X582535D01*
X578457Y143877D01*
Y226455D01*
X580720Y228717D01*
X580720Y228717D01*
X580731Y228706D01*
X580803Y228800D01*
X582783Y230779D01*
X583905Y232460D01*
X584127Y233575D01*
X584155Y233594D01*
X584250Y233737D01*
X584334Y233800D01*
X585505Y235327D01*
X586242Y237106D01*
X586493Y239014D01*
X586331Y240246D01*
X587168Y241201D01*
X612778D01*
X723801Y130178D01*
D02*
G37*
G36*
X406554Y304157D02*
Y272013D01*
X406949Y270031D01*
X408072Y268350D01*
X422020Y254401D01*
X423701Y253279D01*
X425683Y252885D01*
X467754D01*
X467858Y252092D01*
X468595Y250313D01*
X469766Y248786D01*
X471293Y247615D01*
X473072Y246878D01*
X474980Y246627D01*
X476888Y246878D01*
X478666Y247615D01*
X480194Y248786D01*
X481365Y250313D01*
X482042Y251948D01*
X483870Y251707D01*
X485778Y251958D01*
X487556Y252695D01*
X489084Y253866D01*
X490255Y255394D01*
X490992Y257172D01*
X491243Y259080D01*
X490992Y260988D01*
X490750Y261573D01*
X490932Y261915D01*
X492612Y263037D01*
X492978Y263403D01*
X494151Y262917D01*
Y254520D01*
X494385Y252742D01*
X495071Y251086D01*
X495688Y250283D01*
X469698Y224293D01*
X468559Y224855D01*
X468718Y226060D01*
X468368Y228712D01*
X467345Y231184D01*
X465716Y233306D01*
X463594Y234935D01*
X461122Y235958D01*
X458470Y236308D01*
X455818Y235958D01*
X453568Y235027D01*
X294126D01*
X293564Y236166D01*
X294675Y237614D01*
X295412Y239392D01*
X295496Y240030D01*
X281084D01*
X281168Y239392D01*
X281905Y237614D01*
X283016Y236166D01*
X282454Y235027D01*
X233584D01*
X181565Y287046D01*
X181843Y288444D01*
X234717D01*
X236699Y288839D01*
X238380Y289961D01*
X254389Y305970D01*
X404741D01*
X406554Y304157D01*
D02*
G37*
G36*
X1058677Y593810D02*
X1054695Y593497D01*
X1049520Y592255D01*
X1044603Y590218D01*
X1040066Y587437D01*
X1036019Y583981D01*
X1032563Y579935D01*
X1029782Y575397D01*
X1027745Y570480D01*
X1026503Y565305D01*
X1026086Y560000D01*
X1026503Y554695D01*
X1027745Y549520D01*
X1029782Y544603D01*
X1032563Y540065D01*
X1036019Y536019D01*
X1040066Y532563D01*
X1044603Y529782D01*
X1049520Y527745D01*
X1054695Y526503D01*
X1060000Y526086D01*
X1065305Y526503D01*
X1070480Y527745D01*
X1075397Y529782D01*
X1079934Y532563D01*
X1083981Y536019D01*
X1087437Y540065D01*
X1090218Y544603D01*
X1092255Y549520D01*
X1093497Y554695D01*
X1093810Y558678D01*
X1095079Y558628D01*
Y41372D01*
X1093810Y41322D01*
X1093497Y45305D01*
X1092255Y50480D01*
X1090218Y55397D01*
X1087437Y59934D01*
X1083981Y63981D01*
X1079934Y67437D01*
X1075397Y70218D01*
X1070480Y72255D01*
X1065305Y73497D01*
X1060000Y73914D01*
X1054695Y73497D01*
X1049520Y72255D01*
X1044603Y70218D01*
X1040066Y67437D01*
X1036019Y63981D01*
X1032563Y59934D01*
X1029782Y55397D01*
X1027745Y50480D01*
X1026503Y45305D01*
X1026283Y42516D01*
X1025014Y42565D01*
Y248920D01*
X1024522Y251398D01*
X1023118Y253498D01*
X1004068Y272548D01*
X1001968Y273952D01*
X999490Y274444D01*
X893454D01*
X893045Y275647D01*
X894883Y277057D01*
X896776Y279524D01*
X897966Y282397D01*
X898372Y285480D01*
X897966Y288563D01*
X896776Y291436D01*
X894883Y293903D01*
X892416Y295796D01*
X889543Y296986D01*
X886460Y297392D01*
X885452Y297259D01*
X885302Y297289D01*
X884563Y297142D01*
X884426Y297124D01*
X884406Y297238D01*
X883736Y297105D01*
X882216Y297407D01*
X881136Y298129D01*
X881086Y298179D01*
X880979Y298318D01*
X880963Y298302D01*
X880963Y298302D01*
X879282Y299425D01*
X877300Y299820D01*
X838347D01*
X837649Y300355D01*
Y301262D01*
X838547Y302160D01*
X876300D01*
X878282Y302555D01*
X879962Y303678D01*
X890123Y313838D01*
X891245Y315518D01*
X891639Y317500D01*
Y318032D01*
X891643D01*
X891639Y318070D01*
Y318547D01*
X891951Y320915D01*
X893064Y323600D01*
X894670Y325693D01*
X894883Y325857D01*
X896776Y328324D01*
X897966Y331197D01*
X898372Y334280D01*
X897966Y337363D01*
X896776Y340236D01*
X894883Y342703D01*
X892416Y344596D01*
X889543Y345786D01*
X886460Y346192D01*
X883377Y345786D01*
X880504Y344596D01*
X878037Y342703D01*
X876144Y340236D01*
X874954Y337363D01*
X874548Y334280D01*
X874954Y331197D01*
X876144Y328324D01*
X878037Y325857D01*
X878250Y325693D01*
X879856Y323600D01*
X880969Y320915D01*
X881153Y319518D01*
X874155Y312519D01*
X838347D01*
X837649Y313055D01*
Y314325D01*
X838767Y315183D01*
X839858Y316606D01*
X840545Y318262D01*
X840779Y320040D01*
X840545Y321818D01*
X839858Y323474D01*
X838767Y324897D01*
X837649Y325755D01*
Y327025D01*
X838767Y327883D01*
X839858Y329306D01*
X840545Y330962D01*
X840612Y331470D01*
X814208D01*
X814275Y330962D01*
X814961Y329306D01*
X816053Y327883D01*
X816269Y327717D01*
X815861Y326514D01*
X812800D01*
X810322Y326022D01*
X808222Y324618D01*
X799332Y315728D01*
X797928Y313628D01*
X797436Y311150D01*
Y292100D01*
X797928Y289622D01*
X799332Y287522D01*
X823462Y263392D01*
X825562Y261988D01*
X828040Y261496D01*
X996808D01*
X1012066Y246238D01*
Y28082D01*
X996808Y12824D01*
X928775D01*
X928367Y14027D01*
X929774Y15106D01*
X930945Y16633D01*
X931682Y18412D01*
X931862Y19778D01*
X931970Y20320D01*
X931982Y20320D01*
X932027Y20426D01*
X932038Y20455D01*
D01*
X932175Y20610D01*
X933530D01*
Y17480D01*
X951150D01*
Y33582D01*
X951150Y33582D01*
X951150D01*
X951150Y34100D01*
Y34290D01*
Y34480D01*
X951150Y34998D01*
X951150Y34998D01*
X951150D01*
Y37610D01*
X954555D01*
X960267Y31897D01*
X961948Y30775D01*
X963930Y30380D01*
X963931D01*
Y30367D01*
X964072Y30380D01*
X968901D01*
X970657Y30149D01*
X972581Y29352D01*
X974090Y28195D01*
X974200Y28050D01*
X976772Y26077D01*
X979766Y24837D01*
X982980Y24414D01*
X986194Y24837D01*
X989188Y26077D01*
X991760Y28050D01*
X993733Y30622D01*
X994973Y33616D01*
X995396Y36830D01*
X994973Y40044D01*
X993733Y43038D01*
X991760Y45610D01*
X989188Y47583D01*
X986194Y48823D01*
X985648Y48895D01*
Y50165D01*
X986194Y50237D01*
X989188Y51477D01*
X991760Y53450D01*
X993733Y56022D01*
X994973Y59016D01*
X995396Y62230D01*
X994973Y65444D01*
X993733Y68438D01*
X991760Y71010D01*
X989188Y72983D01*
X986194Y74223D01*
X982980Y74646D01*
X982657Y74604D01*
X979783Y74982D01*
X976803Y76216D01*
X974720Y77815D01*
X974369Y78166D01*
X974307Y78242D01*
X974307Y78242D01*
X974300Y78235D01*
X971403Y81132D01*
X969722Y82255D01*
X967740Y82649D01*
X798192D01*
X619860Y260982D01*
Y275590D01*
X619465Y277572D01*
X618343Y279252D01*
X615163Y282432D01*
X613482Y283555D01*
X612457Y283759D01*
X611915Y284773D01*
X612382Y285954D01*
X613218Y286238D01*
X622448Y277008D01*
X624128Y275885D01*
X624920Y275727D01*
Y271480D01*
X642540D01*
Y287480D01*
Y295020D01*
X624920D01*
Y290844D01*
X623747Y290358D01*
X615672Y298433D01*
X613992Y299555D01*
X612495Y299853D01*
X611897Y300973D01*
X611905Y300992D01*
X611972Y301500D01*
X606328D01*
X605270Y301639D01*
X598020D01*
Y303901D01*
X605270D01*
X606328Y304040D01*
X611972D01*
X611905Y304548D01*
X611820Y304753D01*
X612418Y305873D01*
X612980Y305985D01*
X614660Y307108D01*
X616825Y309272D01*
X662573D01*
X675142Y296703D01*
X674418Y295620D01*
X673848Y295239D01*
X673915Y295145D01*
X673813Y295066D01*
X673183Y294645D01*
X673097Y294517D01*
X672297Y293903D01*
X670404Y291436D01*
X669214Y288563D01*
X668808Y285480D01*
X669214Y282397D01*
X670404Y279524D01*
X672297Y277057D01*
X674764Y275164D01*
X677637Y273974D01*
X680720Y273568D01*
X683803Y273974D01*
X686676Y275164D01*
X689143Y277057D01*
X689169Y277091D01*
X689792Y277507D01*
X690512Y277651D01*
X697053D01*
X697233Y277633D01*
Y277651D01*
X708740D01*
Y274020D01*
X726360D01*
Y290020D01*
Y297560D01*
X708740D01*
Y290020D01*
Y288009D01*
X702657D01*
X699427Y288328D01*
X695641Y289476D01*
X692151Y291342D01*
X689335Y293652D01*
X689143Y293903D01*
X688343Y294517D01*
X688257Y294645D01*
X687627Y295066D01*
X687525Y295145D01*
X687591Y295239D01*
X687022Y295620D01*
X686155Y296918D01*
X685900Y298201D01*
Y298274D01*
X685923Y298449D01*
X685900D01*
Y298450D01*
X685900Y298450D01*
X685505Y300432D01*
X684382Y302113D01*
X684382Y302113D01*
X670130Y316365D01*
X672894Y319129D01*
X672896Y319126D01*
X672920Y319155D01*
X673258Y319493D01*
X675152Y320946D01*
X677838Y322059D01*
X680453Y322403D01*
X680720Y322368D01*
X683803Y322774D01*
X686676Y323964D01*
X689143Y325857D01*
X689335Y326108D01*
X692151Y328418D01*
X695641Y330284D01*
X699427Y331432D01*
X702657Y331750D01*
X708740D01*
Y328120D01*
Y322200D01*
X726360D01*
Y328120D01*
Y345740D01*
D01*
Y345740D01*
X727231Y346610D01*
X731915D01*
X733960Y344565D01*
Y320040D01*
Y317800D01*
X730330D01*
Y301180D01*
X730330D01*
X730330Y300800D01*
X730330D01*
Y284180D01*
X747950D01*
Y287296D01*
X748272D01*
Y287296D01*
X748384Y287311D01*
X749442D01*
X749706Y286915D01*
X750031Y285286D01*
Y284920D01*
X750425Y282938D01*
X751547Y281257D01*
X760498Y272307D01*
X762178Y271185D01*
X764160Y270791D01*
X770970D01*
Y267160D01*
Y261240D01*
X788590D01*
Y267160D01*
Y284780D01*
X770970D01*
Y281150D01*
X766305D01*
X760685Y286770D01*
X760714Y286915D01*
X761843Y288605D01*
X762067Y288754D01*
Y288754D01*
X762070Y288778D01*
X762277Y288917D01*
X762340Y289013D01*
X762465Y289095D01*
X762456Y289104D01*
X762525Y289193D01*
X763170Y289461D01*
X769473D01*
X770476Y288692D01*
X772132Y288005D01*
X773910Y287771D01*
X786910D01*
X788688Y288005D01*
X790344Y288692D01*
X791767Y289783D01*
X792859Y291206D01*
X793545Y292862D01*
X793779Y294640D01*
X793545Y296418D01*
X792859Y298074D01*
X791767Y299497D01*
X790649Y300355D01*
Y301625D01*
X791767Y302483D01*
X792859Y303906D01*
X793545Y305562D01*
X793779Y307340D01*
X793545Y309118D01*
X792859Y310774D01*
X791767Y312197D01*
X790649Y313055D01*
Y314325D01*
X791767Y315183D01*
X792859Y316606D01*
X793545Y318262D01*
X793779Y320040D01*
X793545Y321818D01*
X792859Y323474D01*
X791767Y324897D01*
X790649Y325755D01*
Y327025D01*
X791767Y327883D01*
X792859Y329306D01*
X793545Y330962D01*
X793779Y332740D01*
X793545Y334518D01*
X792859Y336174D01*
X791767Y337597D01*
X790344Y338689D01*
X788688Y339375D01*
X786910Y339609D01*
X773910D01*
X772132Y339375D01*
X770844Y338841D01*
X769473Y340213D01*
X767792Y341335D01*
X765810Y341730D01*
X760335D01*
X742294Y359771D01*
X740614Y360893D01*
X738632Y361287D01*
X663448D01*
X661466Y360893D01*
X659786Y359771D01*
X639965Y339949D01*
X612601D01*
X611905Y340992D01*
X612139Y342770D01*
X611905Y344548D01*
X611218Y346204D01*
X610784Y346770D01*
X611218Y347336D01*
X611905Y348992D01*
X612139Y350770D01*
X611905Y352548D01*
X612601Y353591D01*
X644520D01*
X646502Y353985D01*
X648183Y355107D01*
X704455Y411381D01*
X707090D01*
Y398860D01*
X707090D01*
X707090Y397528D01*
X706135Y396284D01*
X705111Y393812D01*
X704762Y391160D01*
X705111Y388508D01*
X706135Y386036D01*
X707764Y383914D01*
X709886Y382285D01*
X712358Y381261D01*
X715010Y380912D01*
X717662Y381261D01*
X719912Y382193D01*
X740410D01*
X742731Y382499D01*
X744893Y383395D01*
X746750Y384820D01*
X753100Y391170D01*
X754525Y393027D01*
X755421Y395189D01*
X755727Y397510D01*
Y407670D01*
Y424180D01*
X755421Y426501D01*
X754525Y428663D01*
X753100Y430520D01*
X751243Y431945D01*
X749081Y432841D01*
X746760Y433147D01*
X744439Y432841D01*
X742305Y431957D01*
X740210D01*
Y434190D01*
X726590D01*
Y418070D01*
X737793D01*
Y416480D01*
X724090D01*
Y416480D01*
X723815Y416480D01*
X723710D01*
Y416480D01*
X723710D01*
X723710D01*
X720580D01*
Y418070D01*
X721210D01*
Y434190D01*
X707590D01*
Y421740D01*
X702310D01*
X700328Y421345D01*
X698648Y420223D01*
X642375Y363950D01*
X609707D01*
X608704Y364719D01*
X607048Y365405D01*
X605270Y365639D01*
X590770D01*
X588992Y365405D01*
X588242Y365094D01*
X587344Y365992D01*
X587655Y366742D01*
X587889Y368520D01*
Y374500D01*
X581020D01*
Y377040D01*
X587889D01*
Y383020D01*
X587655Y384798D01*
X586968Y386454D01*
X585877Y387877D01*
X584454Y388969D01*
X582798Y389655D01*
X581625Y389809D01*
X581217Y391012D01*
X583672Y393467D01*
X584795Y395148D01*
X585190Y397130D01*
Y398860D01*
X594740D01*
Y407670D01*
Y416480D01*
X571200D01*
Y398860D01*
X572756D01*
X573242Y397687D01*
X569357Y393802D01*
X568235Y392122D01*
X568095Y391419D01*
X566880Y391050D01*
X558138Y399792D01*
Y460389D01*
X558405Y460657D01*
X616236D01*
X618218Y461051D01*
X619898Y462174D01*
X622699Y464975D01*
X639847D01*
X641829Y465369D01*
X643510Y466492D01*
X646311Y469292D01*
X662308D01*
X664290Y469687D01*
X665970Y470810D01*
X668771Y473610D01*
X685800D01*
X687782Y474005D01*
X689463Y475127D01*
X693392Y479057D01*
X694514Y480737D01*
X694572Y481026D01*
X695433Y481383D01*
X697796Y483196D01*
X699609Y485559D01*
X700748Y488310D01*
X701137Y491262D01*
X700748Y494215D01*
X699609Y496966D01*
X697796Y499329D01*
X695433Y501142D01*
X692682Y502281D01*
X689729Y502670D01*
X686777Y502281D01*
X684025Y501142D01*
X681663Y499329D01*
X679850Y496966D01*
X678710Y494215D01*
X678322Y491262D01*
X678710Y488310D01*
X679850Y485559D01*
X680195Y485109D01*
X679634Y483969D01*
X674425D01*
X673863Y485109D01*
X674209Y485559D01*
X675348Y488310D01*
X675737Y491262D01*
X675348Y494215D01*
X674209Y496966D01*
X672396Y499329D01*
X670033Y501142D01*
X667282Y502281D01*
X664329Y502670D01*
X661377Y502281D01*
X658625Y501142D01*
X656263Y499329D01*
X654450Y496966D01*
X653310Y494215D01*
X652922Y491262D01*
X653310Y488310D01*
X654450Y485559D01*
X654795Y485109D01*
X654234Y483969D01*
X649025D01*
X648463Y485109D01*
X648809Y485559D01*
X649948Y488310D01*
X650337Y491262D01*
X649948Y494215D01*
X648809Y496966D01*
X646996Y499329D01*
X644633Y501142D01*
X641882Y502281D01*
X638929Y502670D01*
X635977Y502281D01*
X633226Y501142D01*
X630863Y499329D01*
X629050Y496966D01*
X627910Y494215D01*
X627522Y491262D01*
X627910Y488310D01*
X629050Y485559D01*
X629395Y485109D01*
X628834Y483969D01*
X623625D01*
X623063Y485109D01*
X623409Y485559D01*
X624548Y488310D01*
X624937Y491262D01*
X624548Y494215D01*
X623409Y496966D01*
X621596Y499329D01*
X619233Y501142D01*
X616482Y502281D01*
X613529Y502670D01*
X610577Y502281D01*
X607826Y501142D01*
X605463Y499329D01*
X603650Y496966D01*
X602510Y494215D01*
X602122Y491262D01*
X602510Y488310D01*
X603650Y485559D01*
X603995Y485109D01*
X603434Y483969D01*
X598225D01*
X597663Y485109D01*
X598008Y485559D01*
X599148Y488310D01*
X599537Y491262D01*
X599148Y494215D01*
X598008Y496966D01*
X596196Y499329D01*
X593833Y501142D01*
X591082Y502281D01*
X588129Y502670D01*
X585177Y502281D01*
X582425Y501142D01*
X580063Y499329D01*
X578250Y496966D01*
X577110Y494215D01*
X576722Y491262D01*
X577110Y488310D01*
X578250Y485559D01*
X578595Y485109D01*
X578034Y483969D01*
X572825D01*
X572263Y485109D01*
X572608Y485559D01*
X573748Y488310D01*
X574137Y491262D01*
X573748Y494215D01*
X572608Y496966D01*
X570796Y499329D01*
X568433Y501142D01*
X565682Y502281D01*
X562729Y502670D01*
X559777Y502281D01*
X557025Y501142D01*
X554663Y499329D01*
X552850Y496966D01*
X551710Y494215D01*
X551322Y491262D01*
X551710Y488310D01*
X552850Y485559D01*
X553195Y485109D01*
X552634Y483969D01*
X548640D01*
X547280Y483699D01*
X546609Y484777D01*
X547209Y485559D01*
X548348Y488310D01*
X548737Y491262D01*
X548348Y494215D01*
X547209Y496966D01*
X545396Y499329D01*
X543033Y501142D01*
X540282Y502281D01*
X537329Y502670D01*
X534377Y502281D01*
X531626Y501142D01*
X529263Y499329D01*
X527450Y496966D01*
X526310Y494215D01*
X525922Y491262D01*
X526310Y488310D01*
X527450Y485559D01*
X528384Y484341D01*
X527516Y483414D01*
X527275Y483575D01*
X525293Y483969D01*
X522025D01*
X521463Y485109D01*
X521809Y485559D01*
X522948Y488310D01*
X523337Y491262D01*
X522948Y494215D01*
X521809Y496966D01*
X519996Y499329D01*
X517633Y501142D01*
X514882Y502281D01*
X511929Y502670D01*
X508977Y502281D01*
X506226Y501142D01*
X503863Y499329D01*
X502050Y496966D01*
X500910Y494215D01*
X500522Y491262D01*
X500910Y488310D01*
X502050Y485559D01*
X502395Y485109D01*
X501834Y483969D01*
X496625D01*
X496063Y485109D01*
X496409Y485559D01*
X497548Y488310D01*
X497937Y491262D01*
X497548Y494215D01*
X496409Y496966D01*
X494596Y499329D01*
X492233Y501142D01*
X489482Y502281D01*
X486529Y502670D01*
X483577Y502281D01*
X480826Y501142D01*
X478463Y499329D01*
X476650Y496966D01*
X475510Y494215D01*
X475122Y491262D01*
X475510Y488310D01*
X476650Y485559D01*
X476995Y485109D01*
X476434Y483969D01*
X471225D01*
X470663Y485109D01*
X471008Y485559D01*
X472148Y488310D01*
X472537Y491262D01*
X472148Y494215D01*
X471008Y496966D01*
X469196Y499329D01*
X466833Y501142D01*
X464082Y502281D01*
X461129Y502670D01*
X458177Y502281D01*
X455425Y501142D01*
X453063Y499329D01*
X451250Y496966D01*
X450110Y494215D01*
X449722Y491262D01*
X450110Y488310D01*
X451250Y485559D01*
X451595Y485109D01*
X451034Y483969D01*
X445825D01*
X445263Y485109D01*
X445608Y485559D01*
X446748Y488310D01*
X447137Y491262D01*
X446748Y494215D01*
X445608Y496966D01*
X443796Y499329D01*
X441433Y501142D01*
X438682Y502281D01*
X435729Y502670D01*
X432777Y502281D01*
X430025Y501142D01*
X427663Y499329D01*
X425850Y496966D01*
X424710Y494215D01*
X424322Y491262D01*
X424710Y488310D01*
X425850Y485559D01*
X426195Y485109D01*
X425634Y483969D01*
X420425D01*
X419863Y485109D01*
X420209Y485559D01*
X421348Y488310D01*
X421737Y491262D01*
X421348Y494215D01*
X420209Y496966D01*
X418396Y499329D01*
X416033Y501142D01*
X413282Y502281D01*
X410329Y502670D01*
X407377Y502281D01*
X404626Y501142D01*
X402263Y499329D01*
X400450Y496966D01*
X399310Y494215D01*
X398922Y491262D01*
X399310Y488310D01*
X400450Y485559D01*
X402263Y483196D01*
X404626Y481383D01*
X405024Y481218D01*
X405075Y481093D01*
X405078Y481092D01*
X405425Y479347D01*
X406548Y477667D01*
X406549Y477666D01*
X409087Y475127D01*
X410768Y474005D01*
X412750Y473610D01*
X429779D01*
X432580Y470810D01*
X434260Y469687D01*
X436242Y469292D01*
X453509D01*
X456829Y465973D01*
X458509Y464850D01*
X460491Y464456D01*
X477639D01*
X479922Y462174D01*
X481602Y461051D01*
X483584Y460657D01*
X515774D01*
Y401179D01*
X505358Y390762D01*
X504235Y389082D01*
X504211Y389069D01*
X502798Y389655D01*
X501020Y389889D01*
X499242Y389655D01*
X497586Y388969D01*
X496163Y387877D01*
X495071Y386454D01*
X494385Y384798D01*
X494151Y383020D01*
Y368520D01*
X494385Y366742D01*
X494696Y365992D01*
X493798Y365094D01*
X493048Y365405D01*
X491270Y365639D01*
X476770D01*
X474992Y365405D01*
X473336Y364719D01*
X472409Y364007D01*
X471269Y364569D01*
Y369570D01*
X470875Y371552D01*
X469753Y373232D01*
X465563Y377422D01*
X463882Y378545D01*
X461900Y378940D01*
X460930D01*
Y382570D01*
X443310D01*
Y364950D01*
Y359030D01*
X452120D01*
Y357760D01*
X453390D01*
Y348950D01*
X460930D01*
Y358341D01*
X462145Y358710D01*
X462427Y358288D01*
X465607Y355107D01*
X467288Y353985D01*
X469270Y353591D01*
X469439D01*
X470135Y352548D01*
X470068Y352040D01*
X475712D01*
X476770Y351901D01*
X491270D01*
X492328Y352040D01*
X497972D01*
X497905Y352548D01*
X498601Y353591D01*
X503955D01*
X529882Y327663D01*
X529396Y326489D01*
X524510D01*
X522528Y326095D01*
X521855Y325645D01*
X520848Y324972D01*
X520848Y324972D01*
X503068Y307192D01*
X499213Y303338D01*
X498010Y303746D01*
X497905Y304548D01*
X497219Y306204D01*
X496785Y306770D01*
X497219Y307336D01*
X497905Y308992D01*
X498139Y310770D01*
X497905Y312548D01*
X497219Y314204D01*
X496785Y314770D01*
X497219Y315336D01*
X497905Y316992D01*
X498139Y318770D01*
X497905Y320548D01*
X497219Y322204D01*
X496785Y322770D01*
X497219Y323336D01*
X497905Y324992D01*
X498139Y326770D01*
X497905Y328548D01*
X497219Y330204D01*
X496785Y330770D01*
X497219Y331336D01*
X497905Y332992D01*
X498139Y334770D01*
X497905Y336548D01*
X497219Y338204D01*
X496785Y338770D01*
X497219Y339336D01*
X497905Y340992D01*
X498139Y342770D01*
X497905Y344548D01*
X497219Y346204D01*
X496785Y346770D01*
X497219Y347336D01*
X497905Y348992D01*
X497972Y349500D01*
X492328D01*
X491270Y349639D01*
X476770D01*
X475712Y349500D01*
X470068D01*
X470135Y348992D01*
X469439Y347949D01*
X467473D01*
X465491Y347555D01*
X463811Y346432D01*
X459616Y342238D01*
X439529D01*
X438823Y343293D01*
X438922Y343532D01*
X439173Y345440D01*
X438922Y347348D01*
X438185Y349127D01*
X437014Y350654D01*
X435486Y351825D01*
X433708Y352562D01*
X431800Y352813D01*
X429892Y352562D01*
X428114Y351825D01*
X426586Y350654D01*
X425415Y349127D01*
X424678Y347348D01*
X424574Y346555D01*
X253616D01*
X244447Y355724D01*
Y424942D01*
X244053Y426924D01*
X242931Y428605D01*
X230993Y440542D01*
X229312Y441665D01*
X227330Y442060D01*
X201535D01*
X199489Y444105D01*
Y454182D01*
X200629Y454744D01*
X200784Y454625D01*
X202562Y453888D01*
X203200Y453804D01*
Y461010D01*
Y468216D01*
X202562Y468132D01*
X200784Y467395D01*
X200629Y467276D01*
X199489Y467838D01*
Y492034D01*
X200692Y492442D01*
X200883Y492193D01*
X202306Y491101D01*
X203962Y490415D01*
X204470Y490348D01*
Y502280D01*
X198871D01*
Y497183D01*
X198400Y496988D01*
X197523Y496872D01*
X195679Y498715D01*
Y545370D01*
X198871D01*
Y544050D01*
X199105Y542272D01*
X199792Y540616D01*
X200883Y539193D01*
X202306Y538102D01*
X203962Y537415D01*
X205740Y537181D01*
X207518Y537415D01*
X209174Y538102D01*
X210597Y539193D01*
X210763Y539409D01*
X211966Y539001D01*
Y529837D01*
X210835Y528364D01*
X209811Y525892D01*
X209462Y523240D01*
X209811Y520588D01*
X210835Y518116D01*
X212464Y515994D01*
X213583Y515135D01*
Y514907D01*
X212725Y513789D01*
X211455D01*
X210597Y514907D01*
X209174Y515998D01*
X207518Y516685D01*
X207010Y516752D01*
Y503550D01*
Y490348D01*
X207518Y490415D01*
X209174Y491101D01*
X210597Y492193D01*
X211455Y493311D01*
X212725D01*
X213583Y492193D01*
X215006Y491101D01*
X216662Y490415D01*
X218440Y490181D01*
X220218Y490415D01*
X221874Y491101D01*
X223297Y492193D01*
X224155Y493311D01*
X225425D01*
X226283Y492193D01*
X227706Y491101D01*
X229362Y490415D01*
X231140Y490181D01*
X232918Y490415D01*
X234574Y491101D01*
X235997Y492193D01*
X236855Y493311D01*
X238125D01*
X238983Y492193D01*
X240406Y491101D01*
X242062Y490415D01*
X243840Y490181D01*
X245618Y490415D01*
X247274Y491101D01*
X248697Y492193D01*
X249788Y493616D01*
X250475Y495272D01*
X250709Y497050D01*
Y510050D01*
X250475Y511828D01*
X249788Y513484D01*
X248697Y514907D01*
X247274Y515998D01*
X245618Y516685D01*
X243840Y516919D01*
X242062Y516685D01*
X240406Y515998D01*
X238983Y514907D01*
X238125Y513789D01*
X236855D01*
X235997Y514907D01*
X234574Y515998D01*
X232918Y516685D01*
X231140Y516919D01*
X229362Y516685D01*
X228879Y516485D01*
X228106Y517492D01*
X228585Y518116D01*
X229608Y520588D01*
X229958Y523240D01*
X229608Y525892D01*
X228585Y528364D01*
X227291Y530049D01*
X226982Y530512D01*
X226956Y530486D01*
X226891Y530537D01*
X225810Y531945D01*
X225099Y533662D01*
X224914Y535061D01*
Y539001D01*
X226117Y539409D01*
X226283Y539193D01*
X227706Y538102D01*
X229362Y537415D01*
X231140Y537181D01*
X232918Y537415D01*
X234574Y538102D01*
X235997Y539193D01*
X236855Y540311D01*
X238125D01*
X238983Y539193D01*
X240406Y538102D01*
X242062Y537415D01*
X243840Y537181D01*
X245618Y537415D01*
X247274Y538102D01*
X248697Y539193D01*
X249788Y540616D01*
X250475Y542272D01*
X250709Y544050D01*
Y557050D01*
X250475Y558828D01*
X249788Y560484D01*
X248697Y561907D01*
X247274Y562999D01*
X245618Y563685D01*
X243915Y563909D01*
X243507Y565112D01*
X243692Y565298D01*
X244815Y566978D01*
X244973Y567770D01*
X254930D01*
X255491Y566631D01*
X255235Y566297D01*
X254498Y564518D01*
X254414Y563880D01*
X268826D01*
X268742Y564518D01*
X268005Y566297D01*
X266834Y567824D01*
X265306Y568995D01*
X264460Y569346D01*
Y575310D01*
X255650D01*
Y576580D01*
X254380D01*
Y585390D01*
X230840D01*
Y585390D01*
X230355Y585390D01*
X230170D01*
Y585390D01*
X230170D01*
X230170D01*
X213550D01*
Y585390D01*
X213275Y585390D01*
X213170D01*
Y585390D01*
X213170D01*
X213170D01*
X196550D01*
Y581759D01*
X138430D01*
X136448Y581365D01*
X134768Y580243D01*
X124607Y570083D01*
X123485Y568402D01*
X123090Y566420D01*
Y544038D01*
X122314Y543716D01*
X119847Y541823D01*
X117954Y539356D01*
X116764Y536483D01*
X116405Y533756D01*
X115135D01*
X114776Y536483D01*
X113586Y539356D01*
X111693Y541823D01*
X109226Y543716D01*
X106353Y544906D01*
X103270Y545312D01*
X100187Y544906D01*
X97314Y543716D01*
X94847Y541823D01*
X92954Y539356D01*
X91764Y536483D01*
X91358Y533400D01*
X91764Y530317D01*
X92954Y527444D01*
X94847Y524977D01*
X96796Y523482D01*
Y512680D01*
X97288Y510202D01*
X98692Y508102D01*
X108452Y498342D01*
X110552Y496938D01*
X113030Y496446D01*
X128128D01*
X130619Y493955D01*
X130494Y492691D01*
X130277Y492546D01*
X130342Y492454D01*
X130200Y492345D01*
X129413Y491819D01*
X129306Y491659D01*
X128421Y490979D01*
X126207Y488095D01*
X124815Y484735D01*
X124341Y481130D01*
Y456130D01*
X124815Y452525D01*
X126207Y449165D01*
X128421Y446281D01*
X131305Y444067D01*
X134665Y442675D01*
X138270Y442201D01*
X141875Y442675D01*
X145235Y444067D01*
X148119Y446281D01*
X150333Y449165D01*
X151725Y452525D01*
X152199Y456130D01*
Y463663D01*
X153112Y463845D01*
X154792Y464967D01*
X157332Y467508D01*
X158455Y469188D01*
X158849Y471170D01*
Y476330D01*
X174552D01*
X174552Y476330D01*
Y476330D01*
X175070Y476330D01*
X175260D01*
X175450D01*
X175968Y476330D01*
X175968Y476330D01*
Y476330D01*
X177786D01*
X178272Y475157D01*
X174137Y471022D01*
X173015Y469342D01*
X172621Y467360D01*
Y380244D01*
X171639Y379438D01*
X169672Y379829D01*
X151430D01*
Y383460D01*
X134810D01*
Y383460D01*
X134535Y383460D01*
X134430D01*
Y383460D01*
X134430D01*
X134430D01*
X117810D01*
Y379770D01*
X116128Y379435D01*
X114447Y378312D01*
X110638Y374502D01*
X110457Y374233D01*
X109269Y374680D01*
X109289Y374835D01*
Y385085D01*
X108895Y388080D01*
X107739Y390872D01*
X105899Y393269D01*
X103502Y395108D01*
X100711Y396265D01*
X97715Y396659D01*
X72965D01*
X69970Y396265D01*
X67178Y395108D01*
X65340Y393698D01*
X63502Y395108D01*
X60711Y396265D01*
X57715Y396659D01*
X27965D01*
X24969Y396265D01*
X22178Y395108D01*
X19781Y393269D01*
X17941Y390872D01*
X16785Y388080D01*
X16391Y385085D01*
Y374835D01*
X16785Y371839D01*
X17941Y369048D01*
X19781Y366651D01*
X22178Y364812D01*
X24969Y363655D01*
X27965Y363261D01*
X30030D01*
Y358480D01*
X30467Y355165D01*
X31746Y352075D01*
X33782Y349422D01*
X36435Y347387D01*
X39525Y346107D01*
X42840Y345671D01*
X46155Y346107D01*
X49245Y347387D01*
X51898Y349422D01*
X52624Y350369D01*
X53884Y350204D01*
X54581Y348519D01*
X55913Y346783D01*
X57495Y345570D01*
X57578Y344302D01*
X6094Y292819D01*
X4920Y293305D01*
Y558627D01*
X6190Y558677D01*
X6503Y554695D01*
X7745Y549520D01*
X9782Y544603D01*
X12563Y540065D01*
X16019Y536019D01*
X20066Y532563D01*
X24603Y529782D01*
X29520Y527745D01*
X34695Y526503D01*
X40000Y526086D01*
X45305Y526503D01*
X50480Y527745D01*
X55397Y529782D01*
X59934Y532563D01*
X63981Y536019D01*
X67437Y540065D01*
X70218Y544603D01*
X72255Y549520D01*
X73497Y554695D01*
X73914Y560000D01*
X73497Y565305D01*
X72255Y570480D01*
X70218Y575397D01*
X67437Y579935D01*
X63981Y583981D01*
X59934Y587437D01*
X55397Y590218D01*
X50480Y592255D01*
X45305Y593497D01*
X41323Y593810D01*
X41373Y595079D01*
X1058627D01*
X1058677Y593810D01*
D02*
G37*
%LPC*%
G36*
X38100Y213281D02*
X36718Y213099D01*
X34246Y212075D01*
X32124Y210446D01*
X30495Y208324D01*
X29471Y205852D01*
X29290Y204470D01*
X38100D01*
Y213281D01*
D02*
G37*
G36*
X908050Y181196D02*
Y175260D01*
X913986D01*
X913902Y175898D01*
X913165Y177677D01*
X911994Y179204D01*
X910467Y180375D01*
X908688Y181112D01*
X908050Y181196D01*
D02*
G37*
G36*
X913986Y172720D02*
X908050D01*
Y166784D01*
X908688Y166868D01*
X910467Y167605D01*
X911994Y168776D01*
X913165Y170303D01*
X913902Y172082D01*
X913986Y172720D01*
D02*
G37*
G36*
X905510Y181196D02*
X904872Y181112D01*
X903093Y180375D01*
X901566Y179204D01*
X900395Y177677D01*
X899658Y175898D01*
X899574Y175260D01*
X905510D01*
Y181196D01*
D02*
G37*
G36*
X52070Y224260D02*
X40530D01*
Y215220D01*
X52070D01*
Y224260D01*
D02*
G37*
G36*
X66150D02*
X54610D01*
Y215220D01*
X66150D01*
Y224260D01*
D02*
G37*
G36*
X38210D02*
X26670D01*
Y215220D01*
X38210D01*
Y224260D01*
D02*
G37*
G36*
X40640Y213281D02*
Y204470D01*
X49450D01*
X49268Y205852D01*
X48245Y208324D01*
X46616Y210446D01*
X44494Y212075D01*
X42022Y213099D01*
X40640Y213281D01*
D02*
G37*
G36*
X435610Y568546D02*
Y562610D01*
X441546D01*
X441462Y563248D01*
X440725Y565027D01*
X439554Y566554D01*
X438027Y567725D01*
X436248Y568462D01*
X435610Y568546D01*
D02*
G37*
G36*
X905510Y172720D02*
X899574D01*
X899658Y172082D01*
X900395Y170303D01*
X901566Y168776D01*
X903093Y167605D01*
X904872Y166868D01*
X905510Y166784D01*
Y172720D01*
D02*
G37*
G36*
X562930Y116050D02*
X561247Y115829D01*
X558496Y114689D01*
X556134Y112876D01*
X554321Y110514D01*
X553181Y107762D01*
X552792Y104810D01*
Y101080D01*
X562930D01*
Y116050D01*
D02*
G37*
G36*
X565470D02*
Y101080D01*
X575608D01*
Y104810D01*
X575219Y107762D01*
X574079Y110514D01*
X572266Y112876D01*
X569904Y114689D01*
X567152Y115829D01*
X565470Y116050D01*
D02*
G37*
G36*
X438470D02*
Y101080D01*
X448608D01*
Y104810D01*
X448219Y107762D01*
X447079Y110514D01*
X445266Y112876D01*
X442904Y114689D01*
X440153Y115829D01*
X438470Y116050D01*
D02*
G37*
G36*
X311470D02*
Y101080D01*
X321608D01*
Y104810D01*
X321219Y107762D01*
X320079Y110514D01*
X318266Y112876D01*
X315904Y114689D01*
X313153Y115829D01*
X311470Y116050D01*
D02*
G37*
G36*
X435930D02*
X434248Y115829D01*
X431496Y114689D01*
X429134Y112876D01*
X427321Y110514D01*
X426181Y107762D01*
X425792Y104810D01*
Y101080D01*
X435930D01*
Y116050D01*
D02*
G37*
G36*
X636270Y171036D02*
X635632Y170952D01*
X633853Y170215D01*
X632326Y169044D01*
X631155Y167516D01*
X630418Y165738D01*
X630334Y165100D01*
X636270D01*
Y171036D01*
D02*
G37*
G36*
X638810D02*
Y165100D01*
X644746D01*
X644662Y165738D01*
X643925Y167516D01*
X642754Y169044D01*
X641227Y170215D01*
X639448Y170952D01*
X638810Y171036D01*
D02*
G37*
G36*
X644746Y162560D02*
X638810D01*
Y156624D01*
X639448Y156708D01*
X641227Y157445D01*
X642754Y158616D01*
X643925Y160144D01*
X644662Y161922D01*
X644746Y162560D01*
D02*
G37*
G36*
X1056640Y202889D02*
X1052119Y202533D01*
X1047710Y201475D01*
X1043520Y199739D01*
X1039653Y197370D01*
X1036205Y194425D01*
X1033260Y190977D01*
X1030891Y187110D01*
X1029155Y182920D01*
X1028097Y178511D01*
X1027741Y173990D01*
X1028097Y169469D01*
X1029155Y165060D01*
X1030891Y160870D01*
X1033260Y157003D01*
X1036205Y153555D01*
X1039653Y150610D01*
X1043520Y148241D01*
X1047710Y146505D01*
X1052119Y145447D01*
X1056640Y145091D01*
X1061161Y145447D01*
X1065570Y146505D01*
X1069760Y148241D01*
X1073626Y150610D01*
X1077075Y153555D01*
X1080020Y157003D01*
X1082389Y160870D01*
X1084125Y165060D01*
X1085183Y169469D01*
X1085539Y173990D01*
X1085183Y178511D01*
X1084125Y182920D01*
X1082389Y187110D01*
X1080020Y190977D01*
X1077075Y194425D01*
X1073626Y197370D01*
X1069760Y199739D01*
X1065570Y201475D01*
X1061161Y202533D01*
X1056640Y202889D01*
D02*
G37*
G36*
X636270Y162560D02*
X630334D01*
X630418Y161922D01*
X631155Y160144D01*
X632326Y158616D01*
X633853Y157445D01*
X635632Y156708D01*
X636270Y156624D01*
Y162560D01*
D02*
G37*
G36*
X788590Y258700D02*
X781050D01*
Y251160D01*
X788590D01*
Y258700D01*
D02*
G37*
G36*
X105410Y264081D02*
X104028Y263899D01*
X101556Y262875D01*
X99434Y261246D01*
X97805Y259124D01*
X96782Y256652D01*
X96600Y255270D01*
X105410D01*
Y264081D01*
D02*
G37*
G36*
X778510Y258700D02*
X770970D01*
Y251160D01*
X778510D01*
Y258700D01*
D02*
G37*
G36*
X105410Y252730D02*
X96600D01*
X96782Y251348D01*
X97805Y248876D01*
X99434Y246754D01*
X101556Y245125D01*
X104028Y244102D01*
X105410Y243920D01*
Y252730D01*
D02*
G37*
G36*
X116761D02*
X107950D01*
Y243920D01*
X109332Y244102D01*
X111804Y245125D01*
X113926Y246754D01*
X115555Y248876D01*
X116579Y251348D01*
X116761Y252730D01*
D02*
G37*
G36*
X260350Y561340D02*
X254414D01*
X254498Y560702D01*
X255235Y558923D01*
X256406Y557396D01*
X257934Y556225D01*
X259712Y555488D01*
X260350Y555404D01*
Y561340D01*
D02*
G37*
G36*
X144780Y274320D02*
X136525D01*
Y265430D01*
X144780D01*
Y274320D01*
D02*
G37*
G36*
X268826Y267970D02*
X262890D01*
Y262034D01*
X263528Y262118D01*
X265306Y262855D01*
X266834Y264026D01*
X268005Y265553D01*
X268742Y267332D01*
X268826Y267970D01*
D02*
G37*
G36*
X107950Y264081D02*
Y255270D01*
X116761D01*
X116579Y256652D01*
X115555Y259124D01*
X113926Y261246D01*
X111804Y262875D01*
X109332Y263899D01*
X107950Y264081D01*
D02*
G37*
G36*
X260350Y267970D02*
X254414D01*
X254498Y267332D01*
X255235Y265553D01*
X256406Y264026D01*
X257934Y262855D01*
X259712Y262118D01*
X260350Y262034D01*
Y267970D01*
D02*
G37*
G36*
X289560Y248506D02*
Y242570D01*
X295496D01*
X295412Y243208D01*
X294675Y244986D01*
X293504Y246514D01*
X291977Y247685D01*
X290198Y248422D01*
X289560Y248506D01*
D02*
G37*
G36*
X66150Y235840D02*
X54610D01*
Y226800D01*
X66150D01*
Y235840D01*
D02*
G37*
G36*
X268826Y561340D02*
X262890D01*
Y555404D01*
X263528Y555488D01*
X265306Y556225D01*
X266834Y557396D01*
X268005Y558923D01*
X268742Y560702D01*
X268826Y561340D01*
D02*
G37*
G36*
X52070Y235840D02*
X40530D01*
Y226800D01*
X52070D01*
Y235840D01*
D02*
G37*
G36*
X433070Y568546D02*
X432432Y568462D01*
X430653Y567725D01*
X429126Y566554D01*
X427955Y565027D01*
X427218Y563248D01*
X427134Y562610D01*
X433070D01*
Y568546D01*
D02*
G37*
G36*
X38210Y235840D02*
X26670D01*
Y226800D01*
X38210D01*
Y235840D01*
D02*
G37*
G36*
X781050Y247236D02*
Y241300D01*
X786986D01*
X786902Y241938D01*
X786165Y243717D01*
X784994Y245244D01*
X783466Y246415D01*
X781688Y247152D01*
X781050Y247236D01*
D02*
G37*
G36*
X287020Y248506D02*
X286382Y248422D01*
X284604Y247685D01*
X283076Y246514D01*
X281905Y244986D01*
X281168Y243208D01*
X281084Y242570D01*
X287020D01*
Y248506D01*
D02*
G37*
G36*
X778510Y247236D02*
X777872Y247152D01*
X776094Y246415D01*
X774566Y245244D01*
X773395Y243717D01*
X772658Y241938D01*
X772574Y241300D01*
X778510D01*
Y247236D01*
D02*
G37*
G36*
Y238760D02*
X772574D01*
X772658Y238122D01*
X773395Y236343D01*
X774566Y234816D01*
X776094Y233645D01*
X777872Y232908D01*
X778510Y232824D01*
Y238760D01*
D02*
G37*
G36*
X786986D02*
X781050D01*
Y232824D01*
X781688Y232908D01*
X783466Y233645D01*
X784994Y234816D01*
X786165Y236343D01*
X786902Y238122D01*
X786986Y238760D01*
D02*
G37*
G36*
X308930Y116050D02*
X307248Y115829D01*
X304496Y114689D01*
X302134Y112876D01*
X300321Y110514D01*
X299181Y107762D01*
X298792Y104810D01*
Y101080D01*
X308930D01*
Y116050D01*
D02*
G37*
G36*
X651810Y33020D02*
X644270D01*
Y25480D01*
X651810D01*
Y33020D01*
D02*
G37*
G36*
X777240Y40640D02*
X771304D01*
X771388Y40002D01*
X772125Y38224D01*
X773296Y36696D01*
X774824Y35525D01*
X776602Y34788D01*
X777240Y34704D01*
Y40640D01*
D02*
G37*
G36*
X524810Y33020D02*
X517270D01*
Y25480D01*
X524810D01*
Y33020D01*
D02*
G37*
G36*
X86360Y30066D02*
Y24130D01*
X92296D01*
X92212Y24768D01*
X91475Y26546D01*
X90304Y28074D01*
X88777Y29245D01*
X86998Y29982D01*
X86360Y30066D01*
D02*
G37*
G36*
X397810Y33020D02*
X390270D01*
Y25480D01*
X397810D01*
Y33020D01*
D02*
G37*
G36*
X651810Y43100D02*
X644270D01*
Y35560D01*
X651810D01*
Y43100D01*
D02*
G37*
G36*
X308930Y51120D02*
X298890D01*
Y36080D01*
X308930D01*
Y51120D01*
D02*
G37*
G36*
X524810Y43100D02*
X517270D01*
Y35560D01*
X524810D01*
Y43100D01*
D02*
G37*
G36*
X785716Y40640D02*
X779780D01*
Y34704D01*
X780418Y34788D01*
X782197Y35525D01*
X783724Y36696D01*
X784895Y38224D01*
X785632Y40002D01*
X785716Y40640D01*
D02*
G37*
G36*
X397810Y43100D02*
X390270D01*
Y35560D01*
X397810D01*
Y43100D01*
D02*
G37*
G36*
X308930Y33540D02*
X298890D01*
Y18500D01*
X308930D01*
Y33540D01*
D02*
G37*
G36*
X321510D02*
X311470D01*
Y18500D01*
X321510D01*
Y33540D01*
D02*
G37*
G36*
X92296Y21590D02*
X86360D01*
Y15654D01*
X86998Y15738D01*
X88777Y16475D01*
X90304Y17646D01*
X91475Y19174D01*
X92212Y20952D01*
X92296Y21590D01*
D02*
G37*
G36*
X264460Y585390D02*
X256920D01*
Y577850D01*
X264460D01*
Y585390D01*
D02*
G37*
G36*
X83820Y21590D02*
X77884D01*
X77968Y20952D01*
X78705Y19174D01*
X79876Y17646D01*
X81404Y16475D01*
X83182Y15738D01*
X83820Y15654D01*
Y21590D01*
D02*
G37*
G36*
X575510Y33540D02*
X565470D01*
Y18500D01*
X575510D01*
Y33540D01*
D02*
G37*
G36*
X83820Y30066D02*
X83182Y29982D01*
X81404Y29245D01*
X79876Y28074D01*
X78705Y26546D01*
X77968Y24768D01*
X77884Y24130D01*
X83820D01*
Y30066D01*
D02*
G37*
G36*
X562930Y33540D02*
X552890D01*
Y18500D01*
X562930D01*
Y33540D01*
D02*
G37*
G36*
X435930D02*
X425890D01*
Y18500D01*
X435930D01*
Y33540D01*
D02*
G37*
G36*
X448510D02*
X438470D01*
Y18500D01*
X448510D01*
Y33540D01*
D02*
G37*
G36*
X321510Y51120D02*
X311470D01*
Y36080D01*
X321510D01*
Y51120D01*
D02*
G37*
G36*
X448608Y98540D02*
X438470D01*
Y83570D01*
X440153Y83791D01*
X442904Y84931D01*
X445266Y86744D01*
X447079Y89106D01*
X448219Y91858D01*
X448608Y94810D01*
Y98540D01*
D02*
G37*
G36*
X562930D02*
X552792D01*
Y94810D01*
X553181Y91858D01*
X554321Y89106D01*
X556134Y86744D01*
X558496Y84931D01*
X561247Y83791D01*
X562930Y83570D01*
Y98540D01*
D02*
G37*
G36*
X435930D02*
X425792D01*
Y94810D01*
X426181Y91858D01*
X427321Y89106D01*
X429134Y86744D01*
X431496Y84931D01*
X434248Y83791D01*
X435930Y83570D01*
Y98540D01*
D02*
G37*
G36*
X308930D02*
X298792D01*
Y94810D01*
X299181Y91858D01*
X300321Y89106D01*
X302134Y86744D01*
X304496Y84931D01*
X307248Y83791D01*
X308930Y83570D01*
Y98540D01*
D02*
G37*
G36*
X321608D02*
X311470D01*
Y83570D01*
X313153Y83791D01*
X315904Y84931D01*
X318266Y86744D01*
X320079Y89106D01*
X321219Y91858D01*
X321608Y94810D01*
Y98540D01*
D02*
G37*
G36*
X131875Y101391D02*
X131237Y101307D01*
X129459Y100570D01*
X127931Y99399D01*
X126760Y97872D01*
X126023Y96093D01*
X125939Y95455D01*
X131875D01*
Y101391D01*
D02*
G37*
G36*
X134415D02*
Y95455D01*
X140351D01*
X140267Y96093D01*
X139530Y97872D01*
X138358Y99399D01*
X136832Y100570D01*
X135053Y101307D01*
X134415Y101391D01*
D02*
G37*
G36*
X140351Y92915D02*
X134415D01*
Y86979D01*
X135053Y87063D01*
X136832Y87800D01*
X138358Y88972D01*
X139530Y90499D01*
X140267Y92277D01*
X140351Y92915D01*
D02*
G37*
G36*
X575608Y98540D02*
X565470D01*
Y83570D01*
X567152Y83791D01*
X569904Y84931D01*
X572266Y86744D01*
X574079Y89106D01*
X575219Y91858D01*
X575608Y94810D01*
Y98540D01*
D02*
G37*
G36*
X131875Y92915D02*
X125939D01*
X126023Y92277D01*
X126760Y90499D01*
X127931Y88972D01*
X129459Y87800D01*
X131237Y87063D01*
X131875Y86979D01*
Y92915D01*
D02*
G37*
G36*
X575510Y51120D02*
X565470D01*
Y36080D01*
X575510D01*
Y51120D01*
D02*
G37*
G36*
X910590Y45720D02*
X904654D01*
X904738Y45082D01*
X905475Y43303D01*
X906646Y41776D01*
X908174Y40605D01*
X909952Y39868D01*
X910590Y39784D01*
Y45720D01*
D02*
G37*
G36*
X562930Y51120D02*
X552890D01*
Y36080D01*
X562930D01*
Y51120D01*
D02*
G37*
G36*
X435930D02*
X425890D01*
Y36080D01*
X435930D01*
Y51120D01*
D02*
G37*
G36*
X448510D02*
X438470D01*
Y36080D01*
X448510D01*
Y51120D01*
D02*
G37*
G36*
X910590Y54196D02*
X909952Y54112D01*
X908174Y53375D01*
X906646Y52204D01*
X905475Y50676D01*
X904738Y48898D01*
X904654Y48260D01*
X910590D01*
Y54196D01*
D02*
G37*
G36*
X913130D02*
Y48260D01*
X919066D01*
X918982Y48898D01*
X918245Y50676D01*
X917074Y52204D01*
X915546Y53375D01*
X913768Y54112D01*
X913130Y54196D01*
D02*
G37*
G36*
X779780Y49116D02*
Y43180D01*
X785716D01*
X785632Y43818D01*
X784895Y45596D01*
X783724Y47124D01*
X782197Y48295D01*
X780418Y49032D01*
X779780Y49116D01*
D02*
G37*
G36*
X919066Y45720D02*
X913130D01*
Y39784D01*
X913768Y39868D01*
X915546Y40605D01*
X917074Y41776D01*
X918245Y43303D01*
X918982Y45082D01*
X919066Y45720D01*
D02*
G37*
G36*
X777240Y49116D02*
X776602Y49032D01*
X774824Y48295D01*
X773296Y47124D01*
X772125Y45596D01*
X771388Y43818D01*
X771304Y43180D01*
X777240D01*
Y49116D01*
D02*
G37*
G36*
X155575Y274320D02*
X147320D01*
Y265430D01*
X155575D01*
Y274320D01*
D02*
G37*
G36*
X947420Y437736D02*
X946782Y437652D01*
X945004Y436915D01*
X943476Y435744D01*
X942305Y434216D01*
X941568Y432438D01*
X941484Y431800D01*
X947420D01*
Y437736D01*
D02*
G37*
G36*
X949960D02*
Y431800D01*
X955896D01*
X955812Y432438D01*
X955075Y434216D01*
X953904Y435744D01*
X952376Y436915D01*
X950598Y437652D01*
X949960Y437736D01*
D02*
G37*
G36*
X388620Y435196D02*
Y429260D01*
X394556D01*
X394472Y429898D01*
X393735Y431676D01*
X392564Y433204D01*
X391036Y434375D01*
X389258Y435112D01*
X388620Y435196D01*
D02*
G37*
G36*
X955896Y429260D02*
X949960D01*
Y423324D01*
X950598Y423408D01*
X952376Y424145D01*
X953904Y425316D01*
X955075Y426843D01*
X955812Y428622D01*
X955896Y429260D01*
D02*
G37*
G36*
X386080Y435196D02*
X385442Y435112D01*
X383663Y434375D01*
X382136Y433204D01*
X380965Y431676D01*
X380228Y429898D01*
X380144Y429260D01*
X386080D01*
Y435196D01*
D02*
G37*
G36*
X211676Y459740D02*
X205740D01*
Y453804D01*
X206378Y453888D01*
X208157Y454625D01*
X209684Y455796D01*
X210855Y457323D01*
X211592Y459102D01*
X211676Y459740D01*
D02*
G37*
G36*
X307340Y512769D02*
X302819Y512413D01*
X298410Y511355D01*
X294220Y509619D01*
X290354Y507250D01*
X286905Y504305D01*
X283960Y500857D01*
X281591Y496990D01*
X279855Y492800D01*
X278797Y488391D01*
X278441Y483870D01*
X278797Y479349D01*
X279855Y474940D01*
X281591Y470750D01*
X283960Y466884D01*
X286905Y463435D01*
X290354Y460490D01*
X294220Y458121D01*
X298410Y456385D01*
X302819Y455327D01*
X307340Y454971D01*
X311861Y455327D01*
X316270Y456385D01*
X320460Y458121D01*
X324327Y460490D01*
X327775Y463435D01*
X330720Y466884D01*
X333089Y470750D01*
X334825Y474940D01*
X335883Y479349D01*
X336239Y483870D01*
X335883Y488391D01*
X334825Y492800D01*
X333089Y496990D01*
X330720Y500857D01*
X327775Y504305D01*
X324327Y507250D01*
X320460Y509619D01*
X316270Y511355D01*
X311861Y512413D01*
X307340Y512769D01*
D02*
G37*
G36*
X80039Y468630D02*
X67380D01*
Y446138D01*
X69715Y446446D01*
X73075Y447837D01*
X75959Y450051D01*
X78173Y452935D01*
X79565Y456295D01*
X80039Y459900D01*
Y468630D01*
D02*
G37*
G36*
X715129Y502670D02*
X712177Y502281D01*
X709426Y501142D01*
X707063Y499329D01*
X705250Y496966D01*
X704110Y494215D01*
X703722Y491262D01*
X704110Y488310D01*
X705250Y485559D01*
X707063Y483196D01*
X709302Y481478D01*
Y474900D01*
X707090D01*
Y457280D01*
X723192D01*
X723192Y457280D01*
Y457280D01*
X723710Y457280D01*
X723900D01*
X724090D01*
X724608Y457280D01*
X724608Y457280D01*
Y457280D01*
X725926D01*
Y455690D01*
X717090D01*
Y439570D01*
X730710D01*
Y441382D01*
X732048Y441648D01*
X734148Y443052D01*
X736978Y445882D01*
X738382Y447982D01*
X738874Y450460D01*
Y457280D01*
X740710D01*
Y474900D01*
X724608D01*
X724608Y474900D01*
Y474900D01*
X724090Y474900D01*
X723900D01*
X723710D01*
X723192Y474900D01*
X723192Y474900D01*
Y474900D01*
X720956D01*
Y481478D01*
X723196Y483196D01*
X725008Y485559D01*
X726148Y488310D01*
X726537Y491262D01*
X726148Y494215D01*
X725008Y496966D01*
X723196Y499329D01*
X720833Y501142D01*
X718082Y502281D01*
X715129Y502670D01*
D02*
G37*
G36*
X64840Y468630D02*
X52181D01*
Y459900D01*
X52655Y456295D01*
X54047Y452935D01*
X56261Y450051D01*
X59145Y447837D01*
X62505Y446446D01*
X64840Y446138D01*
Y468630D01*
D02*
G37*
G36*
X947420Y429260D02*
X941484D01*
X941568Y428622D01*
X942305Y426843D01*
X943476Y425316D01*
X945004Y424145D01*
X946782Y423408D01*
X947420Y423324D01*
Y429260D01*
D02*
G37*
G36*
X105000Y417360D02*
X82508D01*
X82816Y415025D01*
X84207Y411665D01*
X86421Y408781D01*
X89305Y406567D01*
X92665Y405175D01*
X96270Y404701D01*
X105000D01*
Y417360D01*
D02*
G37*
G36*
X130032D02*
X107540D01*
Y404701D01*
X116270D01*
X119875Y405175D01*
X123235Y406567D01*
X126119Y408781D01*
X128333Y411665D01*
X129725Y415025D01*
X130032Y417360D01*
D02*
G37*
G36*
X604820Y406400D02*
X597280D01*
Y398860D01*
X604820D01*
Y406400D01*
D02*
G37*
G36*
X624840Y380586D02*
X624202Y380502D01*
X622424Y379765D01*
X620896Y378594D01*
X619725Y377066D01*
X618988Y375288D01*
X618904Y374650D01*
X624840D01*
Y380586D01*
D02*
G37*
G36*
X627380D02*
Y374650D01*
X633316D01*
X633232Y375288D01*
X632495Y377066D01*
X631324Y378594D01*
X629796Y379765D01*
X628018Y380502D01*
X627380Y380586D01*
D02*
G37*
G36*
X386080Y426720D02*
X380144D01*
X380228Y426082D01*
X380965Y424304D01*
X382136Y422776D01*
X383663Y421605D01*
X385442Y420868D01*
X386080Y420784D01*
Y426720D01*
D02*
G37*
G36*
X394556D02*
X388620D01*
Y420784D01*
X389258Y420868D01*
X391036Y421605D01*
X392564Y422776D01*
X393735Y424304D01*
X394472Y426082D01*
X394556Y426720D01*
D02*
G37*
G36*
X116270Y432559D02*
X107540D01*
Y419900D01*
X130032D01*
X129725Y422235D01*
X128333Y425595D01*
X126119Y428479D01*
X123235Y430693D01*
X119875Y432085D01*
X116270Y432559D01*
D02*
G37*
G36*
X604820Y416480D02*
X597280D01*
Y408940D01*
X604820D01*
Y416480D01*
D02*
G37*
G36*
X105000Y432559D02*
X96270D01*
X92665Y432085D01*
X89305Y430693D01*
X86421Y428479D01*
X84207Y425595D01*
X82816Y422235D01*
X82508Y419900D01*
X105000D01*
Y432559D01*
D02*
G37*
G36*
X796210Y511810D02*
X787400D01*
Y502999D01*
X788782Y503181D01*
X791254Y504205D01*
X793376Y505834D01*
X795005Y507956D01*
X796029Y510428D01*
X796210Y511810D01*
D02*
G37*
G36*
X204470Y516752D02*
X203962Y516685D01*
X202306Y515998D01*
X200883Y514907D01*
X199792Y513484D01*
X199105Y511828D01*
X198871Y510050D01*
Y504820D01*
X204470D01*
Y516752D01*
D02*
G37*
G36*
X784860Y511810D02*
X776049D01*
X776232Y510428D01*
X777255Y507956D01*
X778884Y505834D01*
X781006Y504205D01*
X783478Y503181D01*
X784860Y502999D01*
Y511810D01*
D02*
G37*
G36*
X741799Y502503D02*
Y492532D01*
X751770D01*
X751548Y494215D01*
X750408Y496966D01*
X748596Y499329D01*
X746233Y501142D01*
X743482Y502281D01*
X741799Y502503D01*
D02*
G37*
G36*
X388920Y529510D02*
X365380D01*
Y520700D01*
Y511890D01*
X374930D01*
Y510160D01*
X375325Y508178D01*
X376447Y506497D01*
X379534Y503411D01*
X379527Y503360D01*
X378763Y501516D01*
X377547Y499931D01*
X377256Y499708D01*
Y499708D01*
X377249Y499651D01*
X377077Y499536D01*
X377019Y499449D01*
X376863Y499329D01*
X375050Y496966D01*
X373910Y494215D01*
X373522Y491262D01*
X373910Y488310D01*
X375050Y485559D01*
X376863Y483196D01*
X379226Y481383D01*
X381977Y480243D01*
X384929Y479855D01*
X387882Y480243D01*
X390633Y481383D01*
X392996Y483196D01*
X394809Y485559D01*
X395948Y488310D01*
X396337Y491262D01*
X395948Y494215D01*
X394809Y496966D01*
X392996Y499329D01*
X392840Y499449D01*
X392781Y499536D01*
X392610Y499651D01*
X392603Y499708D01*
Y499708D01*
X392311Y499931D01*
X391096Y501516D01*
X390331Y503360D01*
X390109Y505052D01*
Y505341D01*
X389715Y507323D01*
X388592Y509003D01*
X386878Y510717D01*
X387364Y511890D01*
X388920D01*
Y529510D01*
D02*
G37*
G36*
X165015Y532130D02*
X154540D01*
Y521655D01*
X156353Y521894D01*
X159226Y523084D01*
X161693Y524977D01*
X163586Y527444D01*
X164776Y530317D01*
X165015Y532130D01*
D02*
G37*
G36*
X152000D02*
X141525D01*
X141764Y530317D01*
X142954Y527444D01*
X144847Y524977D01*
X147314Y523084D01*
X150187Y521894D01*
X152000Y521655D01*
Y532130D01*
D02*
G37*
G36*
X787400Y523161D02*
Y514350D01*
X796210D01*
X796029Y515732D01*
X795005Y518204D01*
X793376Y520326D01*
X791254Y521955D01*
X788782Y522979D01*
X787400Y523161D01*
D02*
G37*
G36*
X362840Y519430D02*
X355300D01*
Y511890D01*
X362840D01*
Y519430D01*
D02*
G37*
G36*
X784860Y523161D02*
X783478Y522979D01*
X781006Y521955D01*
X778884Y520326D01*
X777255Y518204D01*
X776232Y515732D01*
X776049Y514350D01*
X784860D01*
Y523161D01*
D02*
G37*
G36*
X739259Y502503D02*
X737577Y502281D01*
X734826Y501142D01*
X732463Y499329D01*
X730650Y496966D01*
X729510Y494215D01*
X729289Y492532D01*
X739259D01*
Y502503D01*
D02*
G37*
G36*
X67380Y493662D02*
Y471170D01*
X80039D01*
Y479900D01*
X79565Y483505D01*
X78173Y486865D01*
X75959Y489749D01*
X73075Y491963D01*
X69715Y493354D01*
X67380Y493662D01*
D02*
G37*
G36*
X358259Y489992D02*
X348219D01*
Y479952D01*
X358259D01*
Y489992D01*
D02*
G37*
G36*
X64840Y493662D02*
X62505Y493354D01*
X59145Y491963D01*
X56261Y489749D01*
X54047Y486865D01*
X52655Y483505D01*
X52181Y479900D01*
Y471170D01*
X64840D01*
Y493662D01*
D02*
G37*
G36*
X1056640Y512769D02*
X1052119Y512413D01*
X1047710Y511355D01*
X1043520Y509619D01*
X1039653Y507250D01*
X1036205Y504305D01*
X1033260Y500857D01*
X1030891Y496990D01*
X1029155Y492800D01*
X1028097Y488391D01*
X1027741Y483870D01*
X1028097Y479349D01*
X1029155Y474940D01*
X1030891Y470750D01*
X1033260Y466884D01*
X1036205Y463435D01*
X1039653Y460490D01*
X1043520Y458121D01*
X1047710Y456385D01*
X1052119Y455327D01*
X1056640Y454971D01*
X1061161Y455327D01*
X1065570Y456385D01*
X1069760Y458121D01*
X1073626Y460490D01*
X1077075Y463435D01*
X1080020Y466884D01*
X1082389Y470750D01*
X1084125Y474940D01*
X1085183Y479349D01*
X1085539Y483870D01*
X1085183Y488391D01*
X1084125Y492800D01*
X1082389Y496990D01*
X1080020Y500857D01*
X1077075Y504305D01*
X1073626Y507250D01*
X1069760Y509619D01*
X1065570Y511355D01*
X1061161Y512413D01*
X1056640Y512769D01*
D02*
G37*
G36*
X205740Y468216D02*
Y462280D01*
X211676D01*
X211592Y462918D01*
X210855Y464697D01*
X209684Y466224D01*
X208157Y467395D01*
X206378Y468132D01*
X205740Y468216D01*
D02*
G37*
G36*
X358259Y502572D02*
X348219D01*
Y492532D01*
X358259D01*
Y502572D01*
D02*
G37*
G36*
X370839D02*
X360799D01*
Y492532D01*
X370839D01*
Y502572D01*
D02*
G37*
G36*
X751770Y489992D02*
X741799D01*
Y480022D01*
X743482Y480243D01*
X746233Y481383D01*
X748596Y483196D01*
X750408Y485559D01*
X751548Y488310D01*
X751770Y489992D01*
D02*
G37*
G36*
X370839D02*
X360799D01*
Y479952D01*
X370839D01*
Y489992D01*
D02*
G37*
G36*
X739259D02*
X729289D01*
X729510Y488310D01*
X730650Y485559D01*
X732463Y483196D01*
X734826Y481383D01*
X737577Y480243D01*
X739259Y480022D01*
Y489992D01*
D02*
G37*
G36*
X632460Y305100D02*
X624920D01*
Y297560D01*
X632460D01*
Y305100D01*
D02*
G37*
G36*
X642540D02*
X635000D01*
Y297560D01*
X642540D01*
Y305100D01*
D02*
G37*
G36*
X656590Y303116D02*
Y297180D01*
X662526D01*
X662442Y297818D01*
X661705Y299597D01*
X660534Y301124D01*
X659007Y302295D01*
X657228Y303032D01*
X656590Y303116D01*
D02*
G37*
G36*
X531716Y299720D02*
X525780D01*
Y293784D01*
X526418Y293868D01*
X528196Y294605D01*
X529724Y295776D01*
X530895Y297304D01*
X531632Y299082D01*
X531716Y299720D01*
D02*
G37*
G36*
X654050Y303116D02*
X653412Y303032D01*
X651634Y302295D01*
X650106Y301124D01*
X648935Y299597D01*
X648198Y297818D01*
X648114Y297180D01*
X654050D01*
Y303116D01*
D02*
G37*
G36*
X525780Y308196D02*
Y302260D01*
X531716D01*
X531632Y302898D01*
X530895Y304676D01*
X529724Y306204D01*
X528196Y307375D01*
X526418Y308112D01*
X525780Y308196D01*
D02*
G37*
G36*
X698500Y309880D02*
X692564D01*
X692648Y309242D01*
X693385Y307463D01*
X694556Y305936D01*
X696084Y304765D01*
X697862Y304028D01*
X698500Y303944D01*
Y309880D01*
D02*
G37*
G36*
X523240Y308196D02*
X522602Y308112D01*
X520824Y307375D01*
X519296Y306204D01*
X518125Y304676D01*
X517388Y302898D01*
X517304Y302260D01*
X523240D01*
Y308196D01*
D02*
G37*
G36*
X716280Y307640D02*
X708740D01*
Y300100D01*
X716280D01*
Y307640D01*
D02*
G37*
G36*
X726360D02*
X718820D01*
Y300100D01*
X726360D01*
Y307640D01*
D02*
G37*
G36*
X523240Y299720D02*
X517304D01*
X517388Y299082D01*
X518125Y297304D01*
X519296Y295776D01*
X520824Y294605D01*
X522602Y293868D01*
X523240Y293784D01*
Y299720D01*
D02*
G37*
G36*
X460930Y282830D02*
X453390D01*
Y275290D01*
X460930D01*
Y282830D01*
D02*
G37*
G36*
X440276Y283210D02*
X434340D01*
Y277274D01*
X434978Y277358D01*
X436757Y278095D01*
X438284Y279266D01*
X439455Y280793D01*
X440192Y282572D01*
X440276Y283210D01*
D02*
G37*
G36*
X450850Y282830D02*
X443310D01*
Y275290D01*
X450850D01*
Y282830D01*
D02*
G37*
G36*
X260350Y276446D02*
X259712Y276362D01*
X257934Y275625D01*
X256406Y274454D01*
X255235Y272927D01*
X254498Y271148D01*
X254414Y270510D01*
X260350D01*
Y276446D01*
D02*
G37*
G36*
X262890D02*
Y270510D01*
X268826D01*
X268742Y271148D01*
X268005Y272927D01*
X266834Y274454D01*
X265306Y275625D01*
X263528Y276362D01*
X262890Y276446D01*
D02*
G37*
G36*
X662526Y294640D02*
X656590D01*
Y288704D01*
X657228Y288788D01*
X659007Y289525D01*
X660534Y290696D01*
X661705Y292223D01*
X662442Y294002D01*
X662526Y294640D01*
D02*
G37*
G36*
X433070Y560070D02*
X427134D01*
X427218Y559432D01*
X427955Y557654D01*
X429126Y556126D01*
X430653Y554955D01*
X432432Y554218D01*
X433070Y554134D01*
Y560070D01*
D02*
G37*
G36*
X654050Y294640D02*
X648114D01*
X648198Y294002D01*
X648935Y292223D01*
X650106Y290696D01*
X651634Y289525D01*
X653412Y288788D01*
X654050Y288704D01*
Y294640D01*
D02*
G37*
G36*
X441546Y560070D02*
X435610D01*
Y554134D01*
X436248Y554218D01*
X438027Y554955D01*
X439554Y556126D01*
X440725Y557654D01*
X441462Y559432D01*
X441546Y560070D01*
D02*
G37*
G36*
X434340Y291686D02*
Y285750D01*
X440276D01*
X440192Y286388D01*
X439455Y288167D01*
X438284Y289694D01*
X436757Y290865D01*
X434978Y291602D01*
X434340Y291686D01*
D02*
G37*
G36*
X418902Y358140D02*
X412966D01*
X413050Y357502D01*
X413787Y355723D01*
X414958Y354196D01*
X416485Y353025D01*
X418264Y352288D01*
X418902Y352204D01*
Y358140D01*
D02*
G37*
G36*
X427378D02*
X421442D01*
Y352204D01*
X422080Y352288D01*
X423858Y353025D01*
X425386Y354196D01*
X426557Y355723D01*
X427294Y357502D01*
X427378Y358140D01*
D02*
G37*
G36*
X787400Y357726D02*
Y351790D01*
X793336D01*
X793252Y352428D01*
X792515Y354207D01*
X791344Y355734D01*
X789817Y356905D01*
X788038Y357642D01*
X787400Y357726D01*
D02*
G37*
G36*
X450850Y356490D02*
X443310D01*
Y348950D01*
X450850D01*
Y356490D01*
D02*
G37*
G36*
X784860Y357726D02*
X784222Y357642D01*
X782443Y356905D01*
X780916Y355734D01*
X779745Y354207D01*
X779008Y352428D01*
X778924Y351790D01*
X784860D01*
Y357726D01*
D02*
G37*
G36*
X624840Y372110D02*
X618904D01*
X618988Y371472D01*
X619725Y369693D01*
X620896Y368166D01*
X622424Y366995D01*
X624202Y366258D01*
X624840Y366174D01*
Y372110D01*
D02*
G37*
G36*
X633316D02*
X627380D01*
Y366174D01*
X628018Y366258D01*
X629796Y366995D01*
X631324Y368166D01*
X632495Y369693D01*
X633232Y371472D01*
X633316Y372110D01*
D02*
G37*
G36*
X362840Y529510D02*
X355300D01*
Y521970D01*
X362840D01*
Y529510D01*
D02*
G37*
G36*
X418902Y366616D02*
X418264Y366532D01*
X416485Y365795D01*
X414958Y364624D01*
X413787Y363097D01*
X413050Y361318D01*
X412966Y360680D01*
X418902D01*
Y366616D01*
D02*
G37*
G36*
X421442D02*
Y360680D01*
X427378D01*
X427294Y361318D01*
X426557Y363097D01*
X425386Y364624D01*
X423858Y365795D01*
X422080Y366532D01*
X421442Y366616D01*
D02*
G37*
G36*
X793336Y349250D02*
X787400D01*
Y343314D01*
X788038Y343398D01*
X789817Y344135D01*
X791344Y345306D01*
X792515Y346833D01*
X793252Y348612D01*
X793336Y349250D01*
D02*
G37*
G36*
X726360Y319660D02*
X718820D01*
Y312120D01*
X726360D01*
Y319660D01*
D02*
G37*
G36*
X698500Y318356D02*
X697862Y318272D01*
X696084Y317535D01*
X694556Y316364D01*
X693385Y314837D01*
X692648Y313058D01*
X692564Y312420D01*
X698500D01*
Y318356D01*
D02*
G37*
G36*
X716280Y319660D02*
X708740D01*
Y312120D01*
X716280D01*
Y319660D01*
D02*
G37*
G36*
X706976Y309880D02*
X701040D01*
Y303944D01*
X701678Y304028D01*
X703456Y304765D01*
X704984Y305936D01*
X706155Y307463D01*
X706892Y309242D01*
X706976Y309880D01*
D02*
G37*
G36*
X154540Y545145D02*
Y534670D01*
X165015D01*
X164776Y536483D01*
X163586Y539356D01*
X161693Y541823D01*
X159226Y543716D01*
X156353Y544906D01*
X154540Y545145D01*
D02*
G37*
G36*
X833910Y339609D02*
X828680D01*
Y334010D01*
X840612D01*
X840545Y334518D01*
X839858Y336174D01*
X838767Y337597D01*
X837344Y338689D01*
X835688Y339375D01*
X833910Y339609D01*
D02*
G37*
G36*
X784860Y349250D02*
X778924D01*
X779008Y348612D01*
X779745Y346833D01*
X780916Y345306D01*
X782443Y344135D01*
X784222Y343398D01*
X784860Y343314D01*
Y349250D01*
D02*
G37*
G36*
X826140Y339609D02*
X820910D01*
X819132Y339375D01*
X817476Y338689D01*
X816053Y337597D01*
X814961Y336174D01*
X814275Y334518D01*
X814208Y334010D01*
X826140D01*
Y339609D01*
D02*
G37*
G36*
X701040Y318356D02*
Y312420D01*
X706976D01*
X706892Y313058D01*
X706155Y314837D01*
X704984Y316364D01*
X703456Y317535D01*
X701678Y318272D01*
X701040Y318356D01*
D02*
G37*
G36*
X152000Y545145D02*
X150187Y544906D01*
X147314Y543716D01*
X144847Y541823D01*
X142954Y539356D01*
X141764Y536483D01*
X141525Y534670D01*
X152000D01*
Y545145D01*
D02*
G37*
%LPD*%
D10*
X357187Y494114D02*
G03*
X359410Y498816I-3862J4702D01*
G01*
X355575Y496077D02*
G03*
X359410Y504189I-6664J8113D01*
G01*
Y499018D02*
G03*
X361785Y494183I6110J0D01*
G01*
X359410Y504189D02*
G03*
X363338Y496193I10104J0D01*
G01*
X382448Y493993D02*
G03*
X384929Y499601I-5094J5607D01*
G01*
X380740Y495873D02*
G03*
X384929Y505340I-8601J9467D01*
G01*
Y499601D02*
G03*
X387411Y493993I7576J0D01*
G01*
X384929Y505340D02*
G03*
X389119Y495873I12790J0D01*
G01*
X438501Y485683D02*
G03*
X435729Y481211I2221J-4472D01*
G01*
D02*
G03*
X432957Y485683I-4993J0D01*
G01*
X463901D02*
G03*
X461129Y481211I2221J-4472D01*
G01*
D02*
G03*
X458358Y485683I-4993J0D01*
G01*
X489301D02*
G03*
X486529Y481211I2221J-4472D01*
G01*
D02*
G03*
X483758Y485683I-4993J0D01*
G01*
X616180Y485624D02*
G03*
X613529Y481450I1963J-4175D01*
G01*
D02*
G03*
X610879Y485624I-4613J0D01*
G01*
X641580D02*
G03*
X638929Y481450I1963J-4175D01*
G01*
D02*
G03*
X636279Y485624I-4613J0D01*
G01*
X666311Y485356D02*
G03*
X664329Y482600I925J-2756D01*
G01*
D02*
G03*
X662347Y485356I-2907J0D01*
G01*
X691633Y485331D02*
G03*
X689729Y482720I838J-2611D01*
G01*
D02*
G03*
X687825Y485331I-2742J0D01*
G01*
X977868Y31718D02*
G03*
X968591Y35560I-9276J-9276D01*
G01*
X969623D02*
G03*
X979490Y39962I0J13257D01*
G01*
X963931Y35560D02*
G03*
X977599Y41659I0J18365D01*
G01*
X978290Y62230D02*
G03*
X974974Y70236I-11323J0D01*
G01*
X975750Y62230D02*
G03*
X970638Y74572I-17455J0D01*
G01*
X974974Y70236D02*
G03*
X982980Y66920I8006J8006D01*
G01*
X970638Y74572D02*
G03*
X982980Y69460I12342J12342D01*
G01*
X850868Y31718D02*
G03*
X841591Y35560I-9276J-9276D01*
G01*
D02*
G03*
X852664Y40146I0J15659D01*
G01*
X835459Y35560D02*
G03*
X850868Y41942I0J21791D01*
G01*
X852664Y58914D02*
G03*
X844657Y62230I-8006J-8006D01*
G01*
X850868Y57118D02*
G03*
X838525Y62230I-12342J-12342D01*
G01*
X844657D02*
G03*
X852664Y65546I0J11323D01*
G01*
X838525Y62230D02*
G03*
X850868Y67342I0J17455D01*
G01*
X725664Y33514D02*
G03*
X717657Y36830I-8006J-8006D01*
G01*
X723868Y31718D02*
G03*
X711525Y36830I-12342J-12342D01*
G01*
X717657D02*
G03*
X725664Y40146I0J11323D01*
G01*
X711525Y36830D02*
G03*
X723868Y41942I0J17455D01*
G01*
X725664Y65546D02*
G03*
X728980Y73553I-8006J8006D01*
G01*
X723868Y67342D02*
G03*
X728980Y79685I-12342J12342D01*
G01*
Y73553D02*
G03*
X732296Y65546I11323J0D01*
G01*
X728980Y79685D02*
G03*
X734092Y67342I17455J0D01*
G01*
X70487Y455523D02*
G03*
X66040Y444787I10736J-10736D01*
G01*
X72283Y453727D02*
G03*
X66040Y438655I15072J-15072D01*
G01*
Y445125D02*
G03*
X61733Y455523I-14705J0D01*
G01*
X66040Y438993D02*
G03*
X59937Y453727I-20837J0D01*
G01*
X146384Y471852D02*
G03*
X151130Y468630I4746J1884D01*
G01*
D02*
G03*
X146384Y465408I0J-5106D01*
G01*
X91669Y414490D02*
G03*
X82373Y418630I-9295J-8364D01*
G01*
X89780Y412791D02*
G03*
X76671Y418630I-13110J-11796D01*
G01*
X82373D02*
G03*
X91669Y422770I0J12504D01*
G01*
X76671Y418630D02*
G03*
X89780Y424469I0J17635D01*
G01*
X889423Y331317D02*
G03*
X886460Y324165I7153J-7153D01*
G01*
X891219Y329521D02*
G03*
X886460Y318032I11489J-11489D01*
G01*
Y324165D02*
G03*
X883497Y331317I-10115J0D01*
G01*
X886460Y318032D02*
G03*
X881701Y329521I-16248J0D01*
G01*
X882333Y286201D02*
G03*
X880757Y291183I-5582J975D01*
G01*
X879830Y286638D02*
G03*
X877300Y294639I-8965J1566D01*
G01*
X880757Y291183D02*
G03*
X885739Y289608I4007J4007D01*
G01*
X877300Y294639D02*
G03*
X885302Y292110I6435J6435D01*
G01*
X307591Y42419D02*
G03*
X310200Y48718I-6299J6299D01*
G01*
X305795Y44215D02*
G03*
X310200Y54851I-10635J10635D01*
G01*
Y48718D02*
G03*
X312809Y42419I8908J0D01*
G01*
X310200Y54851D02*
G03*
X314605Y44215I15041J0D01*
G01*
X347591Y42419D02*
G03*
X350200Y48718I-6299J6299D01*
G01*
X345795Y44215D02*
G03*
X350200Y54851I-10635J10635D01*
G01*
Y48718D02*
G03*
X352809Y42419I8908J0D01*
G01*
X350200Y54851D02*
G03*
X354605Y44215I15041J0D01*
G01*
X312809Y92201D02*
G03*
X310200Y85902I6299J-6299D01*
G01*
X314605Y90405D02*
G03*
X310200Y79770I10635J-10635D01*
G01*
Y85902D02*
G03*
X307591Y92201I-8908J0D01*
G01*
X310200Y79770D02*
G03*
X305795Y90405I-15041J0D01*
G01*
X352809Y92201D02*
G03*
X350200Y85902I6299J-6299D01*
G01*
X354605Y90405D02*
G03*
X350200Y79770I10635J-10635D01*
G01*
Y85902D02*
G03*
X347591Y92201I-8908J0D01*
G01*
X350200Y79770D02*
G03*
X345795Y90405I-15041J0D01*
G01*
X347694Y107519D02*
G03*
X350200Y113250I-5301J5731D01*
G01*
X345970Y109383D02*
G03*
X350200Y119059I-8950J9676D01*
G01*
Y113250D02*
G03*
X352706Y107519I7807J0D01*
G01*
X350200Y119059D02*
G03*
X354430Y109383I13181J0D01*
G01*
X561591Y32201D02*
G03*
X556547Y34290I-5044J-5044D01*
G01*
X559795Y30405D02*
G03*
X550415Y34290I-9380J-9380D01*
G01*
X554036D02*
G03*
X561591Y37419I0J10684D01*
G01*
X547904Y34290D02*
G03*
X559795Y39215I0J16816D01*
G01*
X561591Y42419D02*
G03*
X564200Y48718I-6299J6299D01*
G01*
X559795Y44215D02*
G03*
X564200Y54851I-10635J10635D01*
G01*
Y48718D02*
G03*
X566809Y42419I8908J0D01*
G01*
X564200Y54851D02*
G03*
X568605Y44215I15041J0D01*
G01*
X567437Y24487D02*
G03*
X564200Y18730I3500J-5756D01*
G01*
D02*
G03*
X560963Y24487I-6737J0D01*
G01*
X601591Y42419D02*
G03*
X604200Y48718I-6299J6299D01*
G01*
X599795Y44215D02*
G03*
X604200Y54851I-10635J10635D01*
G01*
Y48718D02*
G03*
X606809Y42419I8908J0D01*
G01*
X604200Y54851D02*
G03*
X608605Y44215I15041J0D01*
G01*
X566809Y92201D02*
G03*
X564200Y85902I6299J-6299D01*
G01*
X568605Y90405D02*
G03*
X564200Y79770I10635J-10635D01*
G01*
Y85902D02*
G03*
X561591Y92201I-8908J0D01*
G01*
X564200Y79770D02*
G03*
X559795Y90405I-15041J0D01*
G01*
X606809Y92201D02*
G03*
X604200Y85902I6299J-6299D01*
G01*
X608605Y90405D02*
G03*
X604200Y79770I10635J-10635D01*
G01*
Y85902D02*
G03*
X601591Y92201I-8908J0D01*
G01*
X604200Y79770D02*
G03*
X599795Y90405I-15041J0D01*
G01*
X601591Y107419D02*
G03*
X604200Y113718I-6299J6299D01*
G01*
X599795Y109215D02*
G03*
X604200Y119851I-10635J10635D01*
G01*
Y113718D02*
G03*
X606809Y107419I8908J0D01*
G01*
X604200Y119851D02*
G03*
X608605Y109215I15041J0D01*
G01*
X434591Y32201D02*
G03*
X429547Y34290I-5044J-5044D01*
G01*
X432795Y30405D02*
G03*
X423415Y34290I-9380J-9380D01*
G01*
X427036D02*
G03*
X434591Y37419I0J10684D01*
G01*
X420904Y34290D02*
G03*
X432795Y39215I0J16816D01*
G01*
X434591Y42419D02*
G03*
X437200Y48718I-6299J6299D01*
G01*
X432795Y44215D02*
G03*
X437200Y54851I-10635J10635D01*
G01*
Y48718D02*
G03*
X439809Y42419I8908J0D01*
G01*
X437200Y54851D02*
G03*
X441605Y44215I15041J0D01*
G01*
X474591Y42419D02*
G03*
X477200Y48718I-6299J6299D01*
G01*
X472795Y44215D02*
G03*
X477200Y54851I-10635J10635D01*
G01*
Y48718D02*
G03*
X479809Y42419I8908J0D01*
G01*
X477200Y54851D02*
G03*
X481605Y44215I15041J0D01*
G01*
X439809Y92201D02*
G03*
X437200Y85902I6299J-6299D01*
G01*
X441605Y90405D02*
G03*
X437200Y79770I10635J-10635D01*
G01*
Y85902D02*
G03*
X434591Y92201I-8908J0D01*
G01*
X437200Y79770D02*
G03*
X432795Y90405I-15041J0D01*
G01*
X479809Y92201D02*
G03*
X477200Y85902I6299J-6299D01*
G01*
X481605Y90405D02*
G03*
X477200Y79770I10635J-10635D01*
G01*
Y85902D02*
G03*
X474591Y92201I-8908J0D01*
G01*
X477200Y79770D02*
G03*
X472795Y90405I-15041J0D01*
G01*
X474694Y107519D02*
G03*
X477200Y113250I-5301J5731D01*
G01*
X472970Y109383D02*
G03*
X477200Y119059I-8950J9676D01*
G01*
Y113250D02*
G03*
X479706Y107519I7807J0D01*
G01*
X477200Y119059D02*
G03*
X481430Y109383I13181J0D01*
G01*
X678308Y288906D02*
G03*
X680720Y293554I-3273J4649D01*
G01*
X676845Y290983D02*
G03*
X680720Y298449I-5257J7466D01*
G01*
Y293554D02*
G03*
X683132Y288906I5685J0D01*
G01*
X680720Y298449D02*
G03*
X684594Y290983I9132J0D01*
G01*
X681887Y286647D02*
G03*
X691101Y282830I9214J9214D01*
G01*
X683683Y288443D02*
G03*
X697233Y282830I13550J13550D01*
G01*
X685479Y290239D02*
G03*
X703365Y282830I17887J17887D01*
G01*
X690570D02*
G03*
X685479Y280721I0J-7200D01*
G01*
X680720Y330090D02*
G03*
X673567Y327127I0J-10115D01*
G01*
X680720Y327550D02*
G03*
X669231Y322791I0J-16248D01*
G01*
X673567Y327127D02*
G03*
X676530Y334280I-7153J7153D01*
G01*
X669231Y322791D02*
G03*
X673990Y334280I-11489J11489D01*
G01*
X685479Y339039D02*
G03*
X690570Y336930I5091J5091D01*
G01*
X691101D02*
G03*
X681887Y333113I0J-13031D01*
G01*
X697233Y336930D02*
G03*
X683683Y331317I0J-19163D01*
G01*
X703365Y336930D02*
G03*
X685479Y329521I0J-25295D01*
G01*
X259390Y562610D02*
G03*
X257813Y566417I-5384J0D01*
G01*
X257813Y566417D02*
G03*
X261620Y564840I3807J3807D01*
G01*
X757006Y298146D02*
G03*
X765470Y294640I8464J8464D01*
G01*
X758802Y299942D02*
G03*
X771602Y294640I12800J12800D01*
G01*
X763346D02*
G03*
X758802Y292758I0J-6426D01*
G01*
X748272Y292490D02*
G03*
X755210Y296350I0J8166D01*
G01*
X743706Y292490D02*
G03*
X753052Y297689I0J10999D01*
G01*
X739141Y292490D02*
G03*
X750894Y299029I0J13832D01*
G01*
X758614Y292579D02*
G03*
X755210Y284921I6913J-7659D01*
G01*
D02*
G03*
X751806Y292579I-10317J0D01*
G01*
X755210Y296350D02*
G03*
X758190Y301966I-3802J5616D01*
G01*
X753786Y298453D02*
G03*
X758190Y306753I-5618J8299D01*
G01*
X752362Y300557D02*
G03*
X758190Y311539I-7435J10983D01*
G01*
X778203Y241607D02*
G03*
X779780Y245414I-3807J3807D01*
G01*
D02*
G03*
X781357Y241607I5384J0D01*
G01*
X787707Y352097D02*
G03*
X791514Y350520I3807J3807D01*
G01*
D02*
G03*
X787707Y348943I0J-5384D01*
G01*
X701347Y312727D02*
G03*
X708220Y309880I6873J6873D01*
G01*
X653743Y294333D02*
G03*
X649019Y296290I-4724J-4724D01*
G01*
X650854D02*
G03*
X653743Y297487I0J4086D01*
G01*
X626329Y373599D02*
G03*
X621088Y375770I-5241J-5241D01*
G01*
X624533Y371803D02*
G03*
X614956Y375770I-9577J-9577D01*
G01*
X434647Y286057D02*
G03*
X439371Y284100I4724J4724D01*
G01*
X437536D02*
G03*
X434647Y282903I0J-4086D01*
G01*
X419953Y359191D02*
G03*
X423407Y357760I3454J3454D01*
G01*
X421749Y360987D02*
G03*
X429539Y357760I7790J7790D01*
G01*
X501343Y203507D02*
G03*
X502920Y207314I-3807J3807D01*
G01*
D02*
G03*
X504497Y203507I5384J0D01*
G01*
X510850Y243840D02*
G03*
X509273Y247647I-5384J0D01*
G01*
X509273Y247647D02*
G03*
X513080Y246070I3807J3807D01*
G01*
X514657Y242263D02*
G03*
X513080Y238456I3807J-3807D01*
G01*
D02*
G03*
X511503Y242263I-5384J0D01*
G01*
X567383Y302567D02*
G03*
X568960Y306374I-3807J3807D01*
G01*
D02*
G03*
X570537Y302567I5384J0D01*
G01*
X538480Y321310D02*
G03*
X534888Y329982I-12264J0D01*
G01*
X534888Y329982D02*
G03*
X543560Y326390I8672J8672D01*
G01*
X539968Y317718D02*
G03*
X531296Y321310I-8672J-8672D01*
G01*
D02*
G03*
X539968Y324902I0J12264D01*
G01*
X547152Y317718D02*
G03*
X543560Y309046I8672J-8672D01*
G01*
D02*
G03*
X539968Y317718I-12264J0D01*
G01*
X540156Y325081D02*
G03*
X543560Y332739I-6913J7659D01*
G01*
D02*
G03*
X546964Y325081I10317J0D01*
G01*
X519570Y226056D02*
G03*
X529001Y229661I683J12353D01*
G01*
X519710Y228592D02*
G03*
X533019Y233680I963J17433D01*
G01*
X525677Y226337D02*
G03*
X524510Y223520I2817J-2817D01*
G01*
X524487Y223035D02*
G03*
X527050Y215900I8848J-849D01*
G01*
D02*
G03*
X519915Y218463I-6285J-6285D01*
G01*
X477210Y210820D02*
G03*
X478787Y207013I5384J0D01*
G01*
X478787Y207013D02*
G03*
X474980Y208590I-3807J-3807D01*
G01*
X445463Y209243D02*
G03*
X441656Y210820I-3807J-3807D01*
G01*
D02*
G03*
X445463Y212397I0J5384D01*
G01*
X924560Y22550D02*
G03*
X928367Y24127I0J5384D01*
G01*
X928367Y24127D02*
G03*
X926790Y20320I3807J-3807D01*
G01*
X202893Y462587D02*
G03*
X205740Y469460I-6873J6873D01*
G01*
X402897Y121613D02*
G03*
X401320Y117806I3807J-3807D01*
G01*
D02*
G03*
X399743Y121613I-5384J0D01*
G01*
X518467D02*
G03*
X516500Y116865I4748J-4748D01*
G01*
Y118748D02*
G03*
X515313Y121613I-4052J0D01*
G01*
X651203Y83513D02*
G03*
X647396Y85090I-3807J-3807D01*
G01*
D02*
G03*
X651203Y86667I0J5384D01*
G01*
X710893Y23823D02*
G03*
X706145Y25790I-4748J-4748D01*
G01*
X708028D02*
G03*
X710893Y26977I0J4052D01*
G01*
X800100Y22550D02*
G03*
X803907Y24127I0J5384D01*
G01*
X803907Y24127D02*
G03*
X802330Y20320I3807J-3807D01*
G01*
X580493Y237257D02*
G03*
X579120Y234442I2199J-2814D01*
G01*
D02*
G03*
X577747Y237257I-3571J0D01*
G01*
X577057Y232379D02*
G03*
X579428Y239046I-5828J5828D01*
G01*
X573278Y228600D02*
G03*
X576902Y238787I-8905J8905D01*
G01*
X570537Y237183D02*
G03*
X568960Y233376I3807J-3807D01*
G01*
D02*
G03*
X567383Y237183I-5384J0D01*
G01*
X576890Y302260D02*
G03*
X575313Y306067I-5384J0D01*
G01*
X575313Y306067D02*
G03*
X579120Y304490I3807J3807D01*
G01*
X433070Y317190D02*
G03*
X436877Y318767I0J5384D01*
G01*
X436877Y318767D02*
G03*
X435300Y314960I3807J-3807D01*
G01*
X431800Y343210D02*
G03*
X427993Y341633I0J-5384D01*
G01*
X427993Y341633D02*
G03*
X429570Y345440I-3807J3807D01*
G01*
X472750Y254000D02*
G03*
X471173Y257807I-5384J0D01*
G01*
X471173Y257807D02*
G03*
X474980Y256230I3807J3807D01*
G01*
X481652Y259315D02*
G03*
X480568Y262382I-3753J398D01*
G01*
X480568Y262382D02*
G03*
X483635Y261297I2668J2668D01*
G01*
X530860Y277170D02*
G03*
X527053Y275593I0J-5384D01*
G01*
X527053Y275593D02*
G03*
X528630Y279400I-3807J3807D01*
G01*
X519211Y279619D02*
G03*
X517020Y274330I5289J-5289D01*
G01*
X521007Y277823D02*
G03*
X517020Y268198I9625J-9625D01*
G01*
X410210Y481330D02*
G03*
X407520Y485702I-4898J0D01*
G01*
X412945Y485608D02*
G03*
X410210Y481330I1979J-4279D01*
G01*
X598020Y310770D02*
X610998D01*
X683370Y336930D02*
X717550D01*
X680720Y334280D02*
X683370Y336930D01*
Y282830D02*
X717550D01*
X680720Y285480D02*
X683370Y282830D01*
X598020Y326770D02*
X610998D01*
X739140Y320040D02*
X780410D01*
X739140Y309490D02*
Y320040D01*
X610998Y326770D02*
X614680Y330452D01*
X598020Y334770D02*
X642110D01*
X614680Y330452D02*
X643899D01*
X680720Y285480D02*
Y298450D01*
X664718Y314452D02*
X680720Y298450D01*
X610998Y310770D02*
X614680Y314452D01*
X664718D01*
X665210Y318770D02*
X680720Y334280D01*
X598020Y318770D02*
X665210D01*
X643899Y330452D02*
X665237Y351790D01*
X642110Y334770D02*
X663448Y356108D01*
X758190Y328540D02*
Y336550D01*
X738632Y356108D02*
X758190Y336550D01*
X663448Y356108D02*
X738632D01*
X769620Y332740D02*
X780410D01*
X765810Y336550D02*
X769620Y332740D01*
X758190Y336550D02*
X765810D01*
X665237Y351790D02*
X734060D01*
X739140Y346710D01*
Y320040D02*
Y346710D01*
X827410Y294640D02*
X877300D01*
X886460Y285480D01*
X827410Y307340D02*
X876300D01*
X886460Y317500D01*
Y334280D01*
X364110Y508890D02*
Y520700D01*
X359410Y504190D02*
X364110Y508890D01*
X359410Y491382D02*
Y504190D01*
Y491382D02*
X359529Y491262D01*
X380110Y510160D02*
Y520700D01*
Y510160D02*
X384929Y505341D01*
Y491262D02*
Y505341D01*
X128270Y533400D02*
Y566420D01*
X138430Y576580D01*
X190500D01*
X204860D01*
X76670Y418630D02*
X106270D01*
X66040Y429260D02*
X76670Y418630D01*
X66040Y429260D02*
Y469830D01*
X66110Y469900D01*
X465580Y334770D02*
X484020D01*
X463550Y332740D02*
X465580Y334770D01*
X464058Y328422D02*
X465710Y326770D01*
X484020D01*
X467473Y342770D02*
X484020D01*
X461761Y337058D02*
X467473Y342770D01*
X467603Y318770D02*
X484020D01*
X462269Y324104D02*
X467603Y318770D01*
X239014Y324104D02*
X462269D01*
X243840Y332740D02*
X463550D01*
X208280Y336550D02*
Y356870D01*
X220980Y369570D01*
Y318770D02*
X233680D01*
X239014Y324104D01*
X208280Y336550D02*
X213360Y331470D01*
X238760Y328422D02*
X464058D01*
X249682Y337058D02*
X461761D01*
X232410Y344170D02*
X243840Y332740D01*
X220980Y344170D02*
X232410D01*
X235712Y331470D02*
X238760Y328422D01*
X213360Y331470D02*
X235712D01*
X509020Y286770D02*
X598020D01*
X488950Y266700D02*
X509020Y286770D01*
X429260Y266700D02*
X488950D01*
X420370Y275590D02*
X429260Y266700D01*
X231140Y302260D02*
X248666Y319786D01*
X185420Y302260D02*
X231140D01*
X177800Y309880D02*
X185420Y302260D01*
X177800Y369570D02*
X195580D01*
X248666Y319786D02*
X410464D01*
X420370Y309880D01*
Y275590D02*
Y309880D01*
X183760Y473320D02*
Y485140D01*
X177800Y467360D02*
X183760Y473320D01*
X177800Y309880D02*
Y369570D01*
Y467360D01*
X85090Y338710D02*
X113920D01*
X114300Y339090D02*
Y370840D01*
X118110Y374650D01*
X126120D01*
X85090Y330710D02*
X102360D01*
X118110Y314960D01*
X142240D01*
X143510Y316230D01*
X143510Y316230D02*
X143510Y316230D01*
X143510Y316230D02*
Y322580D01*
X114300Y326390D02*
X118110Y322580D01*
X125730D01*
X113920Y338710D02*
X114300Y339090D01*
Y326390D02*
Y339090D01*
X143510Y322580D02*
Y330200D01*
X140970Y332740D02*
X143510Y330200D01*
X130810Y332740D02*
X140970D01*
X126120Y337430D02*
X130810Y332740D01*
X126120Y337430D02*
Y347980D01*
X143120Y374650D02*
X169672D01*
X173482Y370840D01*
Y308091D02*
Y370840D01*
Y308091D02*
X183631Y297942D01*
X232929D01*
X250455Y315468D01*
X408675D01*
X416052Y308091D01*
Y273801D02*
Y308091D01*
Y273801D02*
X427471Y262382D01*
X480568D01*
X143120Y347980D02*
X164084D01*
X169164Y342900D01*
Y306303D02*
Y342900D01*
Y306303D02*
X181843Y293624D01*
X234717D01*
X252243Y311150D01*
X406887D01*
X411734Y306303D01*
Y272013D02*
Y306303D01*
Y272013D02*
X425683Y258064D01*
X517020Y261770D02*
Y276990D01*
X519430Y279400D01*
X525020Y261770D02*
Y273560D01*
X530860Y279400D01*
X480568Y262382D02*
X483870Y259080D01*
X425683Y258064D02*
X470916D01*
X474980Y254000D01*
X191130Y550550D02*
X205740D01*
X190500Y551180D02*
X191130Y550550D01*
X190500Y551180D02*
Y576580D01*
Y496570D02*
Y551180D01*
X234950Y351790D02*
X249682Y337058D01*
X234950Y351790D02*
Y374650D01*
X227330Y382270D02*
X234950Y374650D01*
X213360Y382270D02*
X227330D01*
X208280Y387350D02*
X213360Y382270D01*
X208280Y387350D02*
Y417830D01*
X210820Y420370D01*
X220980D01*
X190500Y496570D02*
X194310Y492760D01*
Y441960D02*
Y492760D01*
Y441960D02*
X199390Y436880D01*
X227330D01*
X239268Y424942D01*
Y353579D02*
Y424942D01*
Y353579D02*
X251471Y341376D01*
X427736D01*
X431800Y345440D01*
X469497Y310770D02*
X484020D01*
X460481Y319786D02*
X469497Y310770D01*
X437896Y319786D02*
X460481D01*
X433070Y314960D02*
X437896Y319786D01*
X435610Y491143D02*
X435729Y491262D01*
X461010Y491143D02*
X461129Y491262D01*
X533020Y375770D02*
Y386855D01*
X557020Y375770D02*
Y387478D01*
X549020Y375770D02*
Y387606D01*
X638810Y491143D02*
X638929Y491262D01*
X533020Y386855D02*
X534670Y388505D01*
X541020Y375770D02*
Y387858D01*
X538988Y389890D02*
X541020Y387858D01*
X525020Y375770D02*
Y388748D01*
X517020Y375770D02*
Y386855D01*
X525272Y395107D01*
X525020Y388748D02*
X529590Y393318D01*
X543560Y393066D02*
X549020Y387606D01*
X548640Y395858D02*
X557020Y387478D01*
X565020Y375770D02*
Y385585D01*
X552958Y397647D02*
X565020Y385585D01*
X486529Y481211D02*
Y491262D01*
Y481211D02*
X488950Y478790D01*
X482843D02*
X487161Y474472D01*
X461129Y481211D02*
Y491262D01*
Y481211D02*
X463550Y478790D01*
X482843D01*
X481573Y473953D02*
X485373Y470154D01*
X462280Y473953D02*
X481573D01*
X457443Y478790D02*
X462280Y473953D01*
X435729Y481211D02*
Y491262D01*
Y481211D02*
X438150Y478790D01*
X457443D01*
X485373Y470154D02*
X521716D01*
X525272Y466598D01*
Y395107D02*
Y466598D01*
X523505Y474472D02*
X529590Y468387D01*
X525293Y478790D02*
X534670Y469413D01*
X487161Y474472D02*
X523505D01*
X529590Y393318D02*
Y468387D01*
X488950Y478790D02*
X525293D01*
X534670Y388505D02*
Y469413D01*
X613529Y481449D02*
Y491262D01*
X610870Y478790D02*
X613529Y481449D01*
X538988Y389890D02*
Y469138D01*
X548640Y478790D01*
X610870D01*
X543560Y393066D02*
Y467603D01*
X550429Y474472D01*
X612659D01*
X616977Y478790D01*
X636270D01*
X638929Y481449D01*
Y491262D01*
X548640Y395858D02*
Y466577D01*
X552217Y470154D01*
X614447D01*
X618765Y474472D01*
X638059D01*
X642377Y478790D01*
X660519D01*
X664329Y482600D01*
Y491262D01*
X552958Y397647D02*
Y462534D01*
X556260Y465836D01*
X616236D01*
X620554Y470154D01*
X639847D01*
X644165Y474472D01*
X662308D01*
X666626Y478790D01*
X685800D01*
X689729Y482719D01*
Y491262D01*
X310200Y34810D02*
Y99810D01*
X372500Y99060D02*
X373000Y98560D01*
X350200Y66040D02*
X373000D01*
X350200Y34810D02*
Y66040D01*
Y99810D01*
X373000Y34290D02*
Y66040D01*
Y98560D01*
X437200Y34810D02*
Y99810D01*
X499500Y34790D02*
X500000Y34290D01*
X477200Y66040D02*
X499500D01*
Y34790D02*
Y66040D01*
Y99060D01*
X477200Y34810D02*
Y66040D01*
Y99810D01*
X564200Y34810D02*
Y99810D01*
X626500Y34790D02*
X627000Y34290D01*
X604200Y64770D02*
X626500D01*
X604200Y34810D02*
Y64770D01*
Y99810D01*
X626500Y34790D02*
Y64770D01*
Y99060D01*
X501020Y248290D02*
Y261770D01*
X378460Y125730D02*
X501020Y248290D01*
X581020Y261770D02*
X581170Y261620D01*
X605790D01*
X614923Y246380D02*
X728980Y132323D01*
X598020Y278770D02*
X611500D01*
X614680Y275590D01*
Y258837D02*
Y275590D01*
X557020Y249430D02*
Y261770D01*
Y249430D02*
X560070Y246380D01*
X614923D01*
X350200Y99810D02*
Y119060D01*
X356870Y125730D01*
X378460D01*
X573278Y308102D02*
X579120Y302260D01*
X573278Y308102D02*
Y338328D01*
X577720Y342770D01*
X598020D01*
X568960Y300990D02*
Y340360D01*
X579370Y350770D01*
X598020D01*
X568960Y142240D02*
Y238760D01*
X477200Y99810D02*
Y119060D01*
X579120Y234442D02*
Y239014D01*
X573278Y228600D02*
X579120Y234442D01*
X573278Y141732D02*
Y228600D01*
X604200Y99810D02*
Y126050D01*
X138270Y468630D02*
X151130D01*
X153670Y471170D01*
X156210Y485140D02*
X166760D01*
X153670Y482600D02*
X156210Y485140D01*
X153670Y471170D02*
Y482600D01*
X688340Y25790D02*
X712080D01*
X712470Y25400D01*
X643500Y88020D02*
Y99060D01*
Y88020D02*
X646430Y85090D01*
X652780D01*
X477200Y119060D02*
X492760Y134620D01*
X561340D01*
X568960Y142240D01*
X516500Y99060D02*
Y122800D01*
X516890Y123190D01*
X573278Y141732D02*
X580390Y134620D01*
X595630D01*
X604200Y126050D01*
X389500Y99060D02*
X397510D01*
X401320Y102870D01*
Y123190D01*
X205740Y462280D02*
Y503550D01*
X204470Y461010D02*
X205740Y462280D01*
X614680Y258837D02*
X796047Y77470D01*
X605790Y261620D02*
X805180Y62230D01*
X854710Y35560D02*
X855980Y36830D01*
X981710Y35560D02*
X982980Y36830D01*
X956700Y42790D02*
X963930Y35560D01*
X942340Y42790D02*
X956700D01*
X963930Y35560D02*
X981710D01*
X967740Y77470D02*
X982980Y62230D01*
X827160Y42790D02*
X834390Y35560D01*
X815340Y42790D02*
X827160D01*
X796047Y77470D02*
X967740D01*
X805180Y62230D02*
X855980D01*
X834390Y35560D02*
X854710D01*
X728980Y62230D02*
Y132323D01*
X701430Y42790D02*
X707390Y36830D01*
X688340Y42790D02*
X701430D01*
X707390Y36830D02*
X728980D01*
X805570Y25790D02*
X815340D01*
X800100Y20320D02*
X805570Y25790D01*
X930030D02*
X942340D01*
X924560Y20320D02*
X930030Y25790D01*
X67310Y346710D02*
X85090D01*
X7620Y287020D02*
X67310Y346710D01*
X7620Y200660D02*
Y287020D01*
Y200660D02*
X18415Y189865D01*
X276225D01*
X297180Y210820D01*
X447040D01*
X448310D01*
X474980D02*
X495300Y190500D01*
X542290D01*
X560070Y208280D01*
X549020Y248540D02*
Y261770D01*
Y248540D02*
X560070Y237490D01*
X549020Y215900D02*
X560070D01*
Y208280D02*
Y215900D01*
Y237490D01*
X527050Y215900D02*
X533020D01*
X519430Y223520D02*
X527050Y215900D01*
X522860Y223520D02*
X533020Y233680D01*
X519430Y223520D02*
X522860D01*
X484020Y358770D02*
X506100D01*
X543560Y321310D01*
X484020Y294770D02*
X497970D01*
X524510Y321310D02*
X543560D01*
X484020Y278770D02*
X494913D01*
X506730Y290587D01*
Y303530D01*
X497970Y294770D02*
X506730Y303530D01*
X524510Y321310D01*
X583060Y294770D02*
X598020D01*
X580390Y292100D02*
X583060Y294770D01*
X548640Y292100D02*
X580390D01*
X543560Y297180D02*
X548640Y292100D01*
X543560Y297180D02*
Y321310D01*
X509020Y247900D02*
Y261770D01*
Y247900D02*
X513080Y243840D01*
X502920Y232790D02*
X510920D01*
X513080Y234950D01*
Y243840D01*
X471040Y294770D02*
X484020D01*
X452120Y300100D02*
X465710D01*
X471040Y294770D01*
X452120Y284100D02*
X465710D01*
X468630Y287020D01*
X483770D01*
X484020Y286770D01*
X465070Y350770D02*
X484020D01*
X461010Y346710D02*
X465070Y350770D01*
X454660Y346710D02*
X461010D01*
X452120Y349250D02*
X454660Y346710D01*
X452120Y349250D02*
Y357760D01*
X469270Y358770D02*
X484020D01*
X466090Y361950D02*
X469270Y358770D01*
X452120Y373760D02*
X461900D01*
X466090Y369570D01*
Y361950D02*
Y369570D01*
X573020Y375770D02*
Y390140D01*
X580010Y397130D02*
Y407670D01*
X573020Y390140D02*
X580010Y397130D01*
X581020Y375770D02*
Y386710D01*
X585470Y391160D01*
X596010Y395350D02*
Y407670D01*
X591820Y391160D02*
X596010Y395350D01*
X585470Y391160D02*
X591820D01*
X598020Y302770D02*
X614170D01*
X620650Y296290D01*
X633730D01*
X633350Y280670D02*
X633730Y280290D01*
X626110Y280670D02*
X633350D01*
X598020Y294770D02*
X612010D01*
X626110Y280670D01*
X502920Y201930D02*
Y216790D01*
X421822Y357760D02*
X452120D01*
X420172Y359410D02*
X421822Y357760D01*
X433450Y284100D02*
X452120D01*
X433070Y284480D02*
X433450Y284100D01*
X541020Y248920D02*
Y261770D01*
Y248920D02*
X549020Y240920D01*
Y233680D02*
Y240920D01*
X581020Y375770D02*
X623720D01*
X626110Y373380D01*
X633730Y296290D02*
X654940D01*
X655320Y295910D01*
X701040Y309880D02*
X717550D01*
X699770Y311150D02*
X701040Y309880D01*
X717550Y298830D02*
Y309880D01*
Y320930D01*
X812800Y332740D02*
X827410D01*
X795020Y350520D02*
X812800Y332740D01*
X786130Y350520D02*
X795020D01*
X779780Y240030D02*
Y259970D01*
X739140Y292490D02*
X751350D01*
X755210Y296350D01*
X758190Y299330D02*
Y311540D01*
X755210Y296350D02*
X758190Y299330D01*
X764160Y275970D02*
X779780D01*
X755210Y284920D02*
X764160Y275970D01*
X755210Y284920D02*
Y296350D01*
X756920Y294640D02*
X780410D01*
X755210Y296350D02*
X756920Y294640D01*
X231140Y565150D02*
X236220D01*
X240030Y568960D01*
X239650Y569340D02*
X240030Y568960D01*
X239650Y569340D02*
Y576580D01*
X221860Y566030D02*
Y576580D01*
X220980Y565150D02*
X221860Y566030D01*
X255650Y568580D02*
Y576580D01*
Y568580D02*
X261620Y562610D01*
X516000Y34290D02*
X563680D01*
X564200Y34810D01*
X389000Y34290D02*
X436680D01*
X437200Y34810D01*
X564200Y18730D02*
Y34810D01*
Y18730D02*
X567690Y15240D01*
X638810D01*
X642620Y33910D02*
X643000Y34290D01*
Y19430D02*
Y34290D01*
X638810Y15240D02*
X643000Y19430D01*
X543560Y321310D02*
Y332740D01*
X573020Y362200D01*
Y375770D01*
X509020D02*
Y387100D01*
X520954Y399034D01*
Y464312D01*
X519430Y465836D02*
X520954Y464312D01*
X483584Y465836D02*
X519430D01*
X479785Y469635D02*
X483584Y465836D01*
X460491Y469635D02*
X479785D01*
X455655Y474472D02*
X460491Y469635D01*
X412750Y478790D02*
X431924D01*
X436242Y474472D02*
X455655D01*
X431924Y478790D02*
X436242Y474472D01*
X410210Y481330D02*
X412750Y478790D01*
X410210Y481330D02*
Y491143D01*
X410329Y491262D01*
X598020Y358770D02*
X644520D01*
X702310Y416560D01*
X714400Y426130D02*
X715400Y425130D01*
X702310Y416560D02*
X715240D01*
X715400Y416400D01*
Y407670D02*
Y416400D01*
Y425130D01*
X732400Y407670D02*
X732790Y408060D01*
X715129Y466361D02*
X715400Y466090D01*
X732400Y407670D02*
X746760D01*
D11*
X32190Y139860D02*
G03*
X19455Y134585I0J-18010D01*
G01*
D02*
G03*
X24730Y147320I-12735J12735D01*
G01*
X133992Y487241D02*
G03*
X138270Y495459I-5754J8218D01*
G01*
D02*
G03*
X142549Y487241I10032J0D01*
G01*
X218440Y535504D02*
G03*
X222404Y525934I13534J0D01*
G01*
X138270Y468630D02*
Y495460D01*
X130810Y502920D02*
X138270Y495460D01*
X85090Y314710D02*
X101850D01*
X104140Y312420D01*
X113030Y502920D02*
X130810D01*
X103270Y512680D02*
X113030Y502920D01*
X103270Y512680D02*
Y533400D01*
X13970Y129100D02*
X32190Y147320D01*
X13970Y105410D02*
Y129100D01*
Y105410D02*
X22860Y96520D01*
X44450D01*
X803910Y311150D02*
X812800Y320040D01*
X827410D01*
X44450Y96520D02*
X134620Y6350D01*
X999490D01*
X1018540Y25400D01*
Y248920D01*
X999490Y267970D02*
X1018540Y248920D01*
X828040Y267970D02*
X999490D01*
X803910Y292100D02*
X828040Y267970D01*
X803910Y292100D02*
Y311150D01*
X786130Y513080D02*
X787010Y512200D01*
X218440Y524510D02*
Y550550D01*
Y524510D02*
X219710Y523240D01*
X218440Y550550D02*
Y562610D01*
X220980Y565150D01*
X231140D01*
X732400Y450460D02*
Y466090D01*
X729570Y447630D02*
X732400Y450460D01*
X723900Y447630D02*
X729570D01*
D12*
X517005Y225945D02*
G03*
X520700Y234864I-8920J8920D01*
G01*
X533020Y249810D02*
Y261770D01*
X520700Y237490D02*
X533020Y249810D01*
X520700Y224790D02*
Y237490D01*
X519430Y223520D02*
X520700Y224790D01*
D13*
X25401Y208279D02*
G03*
X39370Y203200I12427J12427D01*
G01*
D02*
G03*
X52378Y208588I0J18396D01*
G01*
X42840Y379960D02*
X85340D01*
X42840Y281460D02*
X85340D01*
X30480Y203200D02*
X39370D01*
X25400Y208280D02*
Y225530D01*
Y208280D02*
X30480Y203200D01*
X39370D02*
X46990D01*
X53340Y209550D02*
Y225530D01*
X46990Y203200D02*
X53340Y209550D01*
X42840Y358480D02*
Y379960D01*
Y281460D02*
Y298110D01*
X39370Y277990D02*
X42840Y281460D01*
X39370Y254530D02*
Y277990D01*
D14*
X143120Y347980D02*
D03*
X126120D02*
D03*
X143120Y374650D02*
D03*
X126120D02*
D03*
X166760Y485140D02*
D03*
X183760D02*
D03*
X204860Y576580D02*
D03*
X221860D02*
D03*
X732400Y466090D02*
D03*
X715400D02*
D03*
X626500Y99060D02*
D03*
X643500D02*
D03*
X499500D02*
D03*
X516500D02*
D03*
X372500D02*
D03*
X389500D02*
D03*
X732400Y407670D02*
D03*
X715400D02*
D03*
D15*
X125730Y322580D02*
D03*
Y307340D02*
D03*
X143510Y322580D02*
D03*
Y307340D02*
D03*
D16*
X53340Y254530D02*
D03*
Y225530D02*
D03*
X25400D02*
D03*
Y254530D02*
D03*
D17*
X146050Y275590D02*
D03*
X123190D02*
D03*
D18*
X533020Y233680D02*
D03*
X549020D02*
D03*
X380110Y520700D02*
D03*
X364110D02*
D03*
X255650Y576580D02*
D03*
X239650D02*
D03*
X533020Y215900D02*
D03*
X549020D02*
D03*
X596010Y407670D02*
D03*
X580010D02*
D03*
X643000Y34290D02*
D03*
X627000D02*
D03*
X516000D02*
D03*
X500000D02*
D03*
X389000D02*
D03*
X373000D02*
D03*
D19*
X717550Y298830D02*
D03*
Y282830D02*
D03*
Y320930D02*
D03*
Y336930D02*
D03*
X633730Y296290D02*
D03*
Y280290D02*
D03*
X452120Y357760D02*
D03*
Y373760D02*
D03*
Y284100D02*
D03*
Y300100D02*
D03*
X502920Y216790D02*
D03*
Y232790D02*
D03*
X779780Y259970D02*
D03*
Y275970D02*
D03*
D20*
X815340Y25790D02*
D03*
Y42790D02*
D03*
X688340Y25790D02*
D03*
Y42790D02*
D03*
X942340Y25790D02*
D03*
Y42790D02*
D03*
X758190Y311540D02*
D03*
Y328540D02*
D03*
X739140Y292490D02*
D03*
Y309490D02*
D03*
D21*
X85090Y330710D02*
D03*
Y314710D02*
D03*
Y322710D02*
D03*
Y346710D02*
D03*
Y338710D02*
D03*
D22*
X85340Y281460D02*
D03*
D23*
X42840D02*
D03*
Y379960D02*
D03*
D24*
X85340D02*
D03*
D25*
X205740Y503550D02*
D03*
X218440D02*
D03*
X231140D02*
D03*
X243840D02*
D03*
X205740Y550550D02*
D03*
X218440D02*
D03*
X231140D02*
D03*
X243840D02*
D03*
D26*
X780410Y332740D02*
D03*
Y320040D02*
D03*
Y307340D02*
D03*
Y294640D02*
D03*
X827410Y332740D02*
D03*
Y320040D02*
D03*
Y307340D02*
D03*
Y294640D02*
D03*
D27*
X501020Y261770D02*
D03*
X509020D02*
D03*
X517020D02*
D03*
X525020D02*
D03*
X533020D02*
D03*
X541020D02*
D03*
X549020D02*
D03*
X557020D02*
D03*
X565020D02*
D03*
X573020D02*
D03*
X581020D02*
D03*
Y375770D02*
D03*
X573020D02*
D03*
X565020D02*
D03*
X557020D02*
D03*
X549020D02*
D03*
X541020D02*
D03*
X533020D02*
D03*
X525020D02*
D03*
X517020D02*
D03*
X509020D02*
D03*
X501020D02*
D03*
D28*
X598020Y278770D02*
D03*
Y286770D02*
D03*
Y294770D02*
D03*
Y302770D02*
D03*
Y310770D02*
D03*
Y318770D02*
D03*
Y326770D02*
D03*
Y334770D02*
D03*
Y342770D02*
D03*
Y350770D02*
D03*
Y358770D02*
D03*
X484020D02*
D03*
Y350770D02*
D03*
Y342770D02*
D03*
Y334770D02*
D03*
Y326770D02*
D03*
Y318770D02*
D03*
Y310770D02*
D03*
Y302770D02*
D03*
Y294770D02*
D03*
Y286770D02*
D03*
Y278770D02*
D03*
D29*
X714400Y426130D02*
D03*
X733400D02*
D03*
X723900Y447630D02*
D03*
D30*
X104140Y312420D02*
X110490Y306070D01*
Y299720D02*
Y306070D01*
Y299720D02*
X116840Y293370D01*
X123190Y275590D02*
Y290830D01*
X116840Y293370D02*
X125730D01*
X123190Y290830D02*
X125730Y293370D01*
X125730Y293370D01*
X143510Y294640D02*
X144780Y293370D01*
X162560D01*
X229870Y226060D01*
X125730Y293370D02*
X144780D01*
X229870Y226060D02*
X458470D01*
X715010Y391160D02*
X740410D01*
X746760Y397510D01*
Y407670D01*
Y424180D01*
D31*
X143510Y294640D02*
Y307340D01*
X125730Y293370D02*
Y307340D01*
Y293370D02*
X125730Y293370D01*
X146050Y260350D02*
Y275590D01*
X139700Y254000D02*
X146050Y260350D01*
X106680Y254000D02*
X139700D01*
D32*
X715129Y466361D02*
Y491262D01*
X733400Y426130D02*
X744810D01*
X746760Y424180D01*
D33*
X207065Y147320D02*
D03*
D34*
X215095Y121677D02*
D03*
X215285Y172963D02*
D03*
D35*
X45585Y121600D02*
D03*
X45545Y173039D02*
D03*
D36*
X53042Y147415D02*
D03*
D37*
X195580Y420370D02*
D03*
X220980D02*
D03*
X195580Y394970D02*
D03*
X220980D02*
D03*
X195580Y369570D02*
D03*
X220980D02*
D03*
X195580Y344170D02*
D03*
X220980D02*
D03*
X195580Y318770D02*
D03*
D38*
X220980D02*
D03*
D39*
X680720Y334280D02*
D03*
Y285480D02*
D03*
X103270Y533400D02*
D03*
X128270D02*
D03*
X153270D02*
D03*
X886460Y285480D02*
D03*
Y334280D02*
D03*
D40*
X477200Y99810D02*
D03*
X437200D02*
D03*
X477200Y34810D02*
D03*
X604200Y99810D02*
D03*
X564200D02*
D03*
X604200Y34810D02*
D03*
X350200Y99810D02*
D03*
X310200D02*
D03*
X350200Y34810D02*
D03*
D41*
X437200D02*
D03*
X564200D02*
D03*
X310200D02*
D03*
D42*
X106270Y418630D02*
D03*
D43*
X138270Y468630D02*
D03*
D44*
X66110Y469900D02*
D03*
D45*
X32190Y147320D02*
D03*
X234440D02*
D03*
D46*
X728980Y62230D02*
D03*
Y36830D02*
D03*
X855980Y62230D02*
D03*
Y36830D02*
D03*
X982980Y62230D02*
D03*
Y36830D02*
D03*
D47*
X61840Y308710D02*
D03*
Y352710D02*
D03*
D48*
X1060000Y560000D02*
D03*
Y40000D02*
D03*
X40000Y560000D02*
D03*
Y40000D02*
D03*
D49*
X740529Y491262D02*
D03*
X715129D02*
D03*
X689729D02*
D03*
X664329D02*
D03*
X638929D02*
D03*
X613529D02*
D03*
X588129D02*
D03*
X562729D02*
D03*
X537329D02*
D03*
X511929D02*
D03*
X486529D02*
D03*
X461129D02*
D03*
X435729D02*
D03*
X410329D02*
D03*
X384929D02*
D03*
D50*
X359529D02*
D03*
D51*
X307340Y483870D02*
D03*
Y173990D02*
D03*
X1056640Y483870D02*
D03*
Y173990D02*
D03*
D52*
X519430Y279400D02*
D03*
X530860D02*
D03*
X483870Y259080D02*
D03*
X474980Y254000D02*
D03*
X431800Y345440D02*
D03*
X433070Y314960D02*
D03*
X579120Y302260D02*
D03*
X568960Y238760D02*
D03*
X579120Y239014D02*
D03*
X800100Y20320D02*
D03*
X712470Y25400D02*
D03*
X652780Y85090D02*
D03*
X516890Y123190D02*
D03*
X401320D02*
D03*
X204470Y461010D02*
D03*
X924560Y20320D02*
D03*
X447040Y210820D02*
D03*
X474980D02*
D03*
X568960Y300990D02*
D03*
X513080Y243840D02*
D03*
X502920Y201930D02*
D03*
X420172Y359410D02*
D03*
X433070Y284480D02*
D03*
X626110Y373380D02*
D03*
X655320Y295910D02*
D03*
X699770Y311150D02*
D03*
X786130Y350520D02*
D03*
X779780Y240030D02*
D03*
X261620Y562610D02*
D03*
Y269240D02*
D03*
X288290Y241300D02*
D03*
X85090Y22860D02*
D03*
X850900Y281940D02*
D03*
X911860Y46990D02*
D03*
X434340Y561340D02*
D03*
X948690Y430530D02*
D03*
X906780Y173990D02*
D03*
X133145Y94185D02*
D03*
X387350Y427990D02*
D03*
X637540Y163830D02*
D03*
X525780Y354330D02*
D03*
X524510Y300990D02*
D03*
X558800Y330200D02*
D03*
X778510Y41910D02*
D03*
D53*
X39370Y203200D02*
D03*
X106680Y254000D02*
D03*
X458470Y226060D02*
D03*
X519430Y223520D02*
D03*
X543560Y321310D02*
D03*
X786130Y513080D02*
D03*
X755210Y296350D02*
D03*
X219710Y523240D02*
D03*
X42840Y358480D02*
D03*
Y298110D02*
D03*
X715010Y391160D02*
D03*
M02*
